<?xml version="1.0" encoding="utf-8"?>
<!DOCTYPE svg PUBLIC "-//W3C//DTD SVG 1.1//EN" "http://www.w3.org/Graphics/SVG/1.1/DTD/svg11.dtd">
<svg class="marks" width="606" height="344" viewBox="0 0 606 344" version="1.1" xmlns="http://www.w3.org/2000/svg" xmlns:xlink="http://www.w3.org/1999/xlink"><rect width="606" height="344" fill="white"></rect><g fill="none" stroke-miterlimit="10" transform="translate(49,64)"><g class="mark-group role-frame root" role="graphics-object" aria-roledescription="group mark container"><g transform="translate(0,0)"><path class="background" aria-hidden="true" d="M0,0h0v0h0Z"></path><g><g class="mark-group role-column-title facet-title" role="graphics-object" aria-roledescription="group mark container"><g transform="translate(231,-21)"><path class="background" aria-hidden="true" d="M0,0h0v0h0Z"></path><g><g class="mark-group role-title"><g transform="translate(0,-21)"><path class="background" aria-hidden="true" d="M0,0h0v0h0Z" pointer-events="none"></path><g><g class="mark-text role-title-text" role="graphics-symbol" aria-roledescription="title" aria-label="Title text 'Number of Draws from Urn'" pointer-events="none"><text text-anchor="middle" transform="translate(0,9)" font-family="sans-serif" font-size="11px" font-weight="bold" fill="#000" opacity="1">Number of Draws from Urn</text></g></g><path class="foreground" aria-hidden="true" d="" pointer-events="none" display="none"></path></g></g></g><path class="foreground" aria-hidden="true" d="" display="none"></path></g></g><g class="mark-group role-row-header row_header" role="graphics-object" aria-roledescription="group mark container"><g transform="translate(-3,0)"><path class="background" aria-hidden="true" d="M0,0h0v100h0Z"></path><g><g class="mark-group role-axis" role="graphics-symbol" aria-roledescription="axis" aria-label="Y-axis titled 'Mean Reward (n=10,000)' for a linear scale with values from -0.3 to 0.3"><g transform="translate(0.5,0.5)"><path class="background" aria-hidden="true" d="M0,0h0v0h0Z" pointer-events="none"></path><g><g class="mark-rule role-axis-tick" pointer-events="none"><line transform="translate(0,90)" x2="-5" y2="0" stroke="#888" stroke-width="1" opacity="1"></line><line transform="translate(0,50)" x2="-5" y2="0" stroke="#888" stroke-width="1" opacity="1"></line><line transform="translate(0,10)" x2="-5" y2="0" stroke="#888" stroke-width="1" opacity="1"></line></g><g class="mark-text role-axis-label" pointer-events="none"><text text-anchor="end" transform="translate(-7,93)" font-family="sans-serif" font-size="10px" fill="#000" opacity="1">-0.2</text><text text-anchor="end" transform="translate(-7,53)" font-family="sans-serif" font-size="10px" fill="#000" opacity="1">0.0</text><text text-anchor="end" transform="translate(-7,12.999999999999998)" font-family="sans-serif" font-size="10px" fill="#000" opacity="1">0.2</text></g><g class="mark-rule role-axis-domain" pointer-events="none"><line transform="translate(0,100)" x2="0" y2="-100" stroke="#888" stroke-width="1" opacity="1"></line></g><g class="mark-text role-axis-title" pointer-events="none"><text text-anchor="middle" transform="translate(-29,50) rotate(-90) translate(0,-2)" font-family="sans-serif" font-size="11px" font-weight="bold" fill="#000" opacity="1">Mean Reward (n=10,000)</text></g></g><path class="foreground" aria-hidden="true" d="" pointer-events="none" display="none"></path></g></g></g><path class="foreground" aria-hidden="true" d="" display="none"></path></g><g transform="translate(-3,142)"><path class="background" aria-hidden="true" d="M0,0h0v100h0Z"></path><g><g class="mark-group role-axis" role="graphics-symbol" aria-roledescription="axis" aria-label="Y-axis titled 'Mean Reward (n=10,000)' for a linear scale with values from -0.3 to 0.3"><g transform="translate(0.5,0.5)"><path class="background" aria-hidden="true" d="M0,0h0v0h0Z" pointer-events="none"></path><g><g class="mark-rule role-axis-tick" pointer-events="none"><line transform="translate(0,90)" x2="-5" y2="0" stroke="#888" stroke-width="1" opacity="1"></line><line transform="translate(0,50)" x2="-5" y2="0" stroke="#888" stroke-width="1" opacity="1"></line><line transform="translate(0,10)" x2="-5" y2="0" stroke="#888" stroke-width="1" opacity="1"></line></g><g class="mark-text role-axis-label" pointer-events="none"><text text-anchor="end" transform="translate(-7,93)" font-family="sans-serif" font-size="10px" fill="#000" opacity="1">-0.2</text><text text-anchor="end" transform="translate(-7,53)" font-family="sans-serif" font-size="10px" fill="#000" opacity="1">0.0</text><text text-anchor="end" transform="translate(-7,12.999999999999998)" font-family="sans-serif" font-size="10px" fill="#000" opacity="1">0.2</text></g><g class="mark-rule role-axis-domain" pointer-events="none"><line transform="translate(0,100)" x2="0" y2="-100" stroke="#888" stroke-width="1" opacity="1"></line></g><g class="mark-text role-axis-title" pointer-events="none"><text text-anchor="middle" transform="translate(-29,50) rotate(-90) translate(0,-2)" font-family="sans-serif" font-size="11px" font-weight="bold" fill="#000" opacity="1">Mean Reward (n=10,000)</text></g></g><path class="foreground" aria-hidden="true" d="" pointer-events="none" display="none"></path></g></g></g><path class="foreground" aria-hidden="true" d="" display="none"></path></g></g><g class="mark-group role-column-footer column_footer" role="graphics-object" aria-roledescription="group mark container"><g transform="translate(0,243)"><path class="background" aria-hidden="true" d="M0,0h220v0h-220Z"></path><g><g class="mark-group role-axis" role="graphics-symbol" aria-roledescription="axis" aria-label="X-axis titled 'Belief Threshold' for a linear scale with values from 0.0 to 1.0"><g transform="translate(0.5,0.5)"><path class="background" aria-hidden="true" d="M0,0h0v0h0Z" pointer-events="none"></path><g><g class="mark-rule role-axis-tick" pointer-events="none"><line transform="translate(0,0)" x2="0" y2="5" stroke="#888" stroke-width="1" opacity="1"></line><line transform="translate(44,0)" x2="0" y2="5" stroke="#888" stroke-width="1" opacity="1"></line><line transform="translate(88,0)" x2="0" y2="5" stroke="#888" stroke-width="1" opacity="1"></line><line transform="translate(132,0)" x2="0" y2="5" stroke="#888" stroke-width="1" opacity="1"></line><line transform="translate(176,0)" x2="0" y2="5" stroke="#888" stroke-width="1" opacity="1"></line><line transform="translate(220,0)" x2="0" y2="5" stroke="#888" stroke-width="1" opacity="1"></line></g><g class="mark-text role-axis-label" pointer-events="none"><text text-anchor="start" transform="translate(0,15)" font-family="sans-serif" font-size="10px" fill="#000" opacity="1">0.0</text><text text-anchor="middle" transform="translate(44,15)" font-family="sans-serif" font-size="10px" fill="#000" opacity="1">0.2</text><text text-anchor="middle" transform="translate(88,15)" font-family="sans-serif" font-size="10px" fill="#000" opacity="1">0.4</text><text text-anchor="middle" transform="translate(132,15)" font-family="sans-serif" font-size="10px" fill="#000" opacity="1">0.6</text><text text-anchor="middle" transform="translate(176,15)" font-family="sans-serif" font-size="10px" fill="#000" opacity="1">0.8</text><text text-anchor="end" transform="translate(220,15)" font-family="sans-serif" font-size="10px" fill="#000" opacity="1">1.0</text></g><g class="mark-rule role-axis-domain" pointer-events="none"><line transform="translate(0,0)" x2="220" y2="0" stroke="#888" stroke-width="1" opacity="1"></line></g><g class="mark-text role-axis-title" pointer-events="none"><text text-anchor="middle" transform="translate(110,30)" font-family="sans-serif" font-size="11px" font-weight="bold" fill="#000" opacity="1">Belief Threshold</text></g></g><path class="foreground" aria-hidden="true" d="" pointer-events="none" display="none"></path></g></g></g><path class="foreground" aria-hidden="true" d="" display="none"></path></g><g transform="translate(244,243)"><path class="background" aria-hidden="true" d="M0,0h220v0h-220Z"></path><g><g class="mark-group role-axis" role="graphics-symbol" aria-roledescription="axis" aria-label="X-axis titled 'Belief Threshold' for a linear scale with values from 0.0 to 1.0"><g transform="translate(0.5,0.5)"><path class="background" aria-hidden="true" d="M0,0h0v0h0Z" pointer-events="none"></path><g><g class="mark-rule role-axis-tick" pointer-events="none"><line transform="translate(0,0)" x2="0" y2="5" stroke="#888" stroke-width="1" opacity="1"></line><line transform="translate(44,0)" x2="0" y2="5" stroke="#888" stroke-width="1" opacity="1"></line><line transform="translate(88,0)" x2="0" y2="5" stroke="#888" stroke-width="1" opacity="1"></line><line transform="translate(132,0)" x2="0" y2="5" stroke="#888" stroke-width="1" opacity="1"></line><line transform="translate(176,0)" x2="0" y2="5" stroke="#888" stroke-width="1" opacity="1"></line><line transform="translate(220,0)" x2="0" y2="5" stroke="#888" stroke-width="1" opacity="1"></line></g><g class="mark-text role-axis-label" pointer-events="none"><text text-anchor="start" transform="translate(0,15)" font-family="sans-serif" font-size="10px" fill="#000" opacity="1">0.0</text><text text-anchor="middle" transform="translate(44,15)" font-family="sans-serif" font-size="10px" fill="#000" opacity="1">0.2</text><text text-anchor="middle" transform="translate(88,15)" font-family="sans-serif" font-size="10px" fill="#000" opacity="1">0.4</text><text text-anchor="middle" transform="translate(132,15)" font-family="sans-serif" font-size="10px" fill="#000" opacity="1">0.6</text><text text-anchor="middle" transform="translate(176,15)" font-family="sans-serif" font-size="10px" fill="#000" opacity="1">0.8</text><text text-anchor="end" transform="translate(220,15)" font-family="sans-serif" font-size="10px" fill="#000" opacity="1">1.0</text></g><g class="mark-rule role-axis-domain" pointer-events="none"><line transform="translate(0,0)" x2="220" y2="0" stroke="#888" stroke-width="1" opacity="1"></line></g><g class="mark-text role-axis-title" pointer-events="none"><text text-anchor="middle" transform="translate(110,30)" font-family="sans-serif" font-size="11px" font-weight="bold" fill="#000" opacity="1">Belief Threshold</text></g></g><path class="foreground" aria-hidden="true" d="" pointer-events="none" display="none"></path></g></g></g><path class="foreground" aria-hidden="true" d="" display="none"></path></g></g><g class="mark-group role-scope cell" role="graphics-object" aria-roledescription="group mark container"><g transform="translate(0,0)"><path class="background" aria-hidden="true" d="M0.5,0.5h220v100h-220Z" stroke="#ddd"></path><g><g class="mark-group role-axis" aria-hidden="true"><g transform="translate(0.5,100.5)"><path class="background" aria-hidden="true" d="M0,0h0v0h0Z" pointer-events="none"></path><g><g class="mark-rule role-axis-grid" pointer-events="none"><line transform="translate(0,-100)" x2="0" y2="100" stroke="#ddd" stroke-width="1" opacity="1"></line><line transform="translate(44,-100)" x2="0" y2="100" stroke="#ddd" stroke-width="1" opacity="1"></line><line transform="translate(88,-100)" x2="0" y2="100" stroke="#ddd" stroke-width="1" opacity="1"></line><line transform="translate(132,-100)" x2="0" y2="100" stroke="#ddd" stroke-width="1" opacity="1"></line><line transform="translate(176,-100)" x2="0" y2="100" stroke="#ddd" stroke-width="1" opacity="1"></line><line transform="translate(220,-100)" x2="0" y2="100" stroke="#ddd" stroke-width="1" opacity="1"></line></g></g><path class="foreground" aria-hidden="true" d="" pointer-events="none" display="none"></path></g></g><g class="mark-group role-axis" aria-hidden="true"><g transform="translate(0.5,0.5)"><path class="background" aria-hidden="true" d="M0,0h0v0h0Z" pointer-events="none"></path><g><g class="mark-rule role-axis-grid" pointer-events="none"><line transform="translate(0,90)" x2="220" y2="0" stroke="#ddd" stroke-width="1" opacity="1"></line><line transform="translate(0,50)" x2="220" y2="0" stroke="#ddd" stroke-width="1" opacity="1"></line><line transform="translate(0,10)" x2="220" y2="0" stroke="#ddd" stroke-width="1" opacity="1"></line></g></g><path class="foreground" aria-hidden="true" d="" pointer-events="none" display="none"></path></g></g><g class="mark-group role-scope child_pathgroup" role="graphics-object" aria-roledescription="group mark container"><g transform="translate(0,0)"><path class="background" aria-hidden="true" d="M0,0h220v100h-220Z"></path><g><g class="mark-line role-mark child_marks" role="graphics-object" aria-roledescription="line mark container"><path aria-label="Belief Threshold: 0; Mean Reward (n=10,000): -0.2048; Update Rule: Schupbach" role="graphics-symbol" aria-roledescription="line mark" d="M0,90.96L2.2,90.96L4.4,90.94L6.6,90.94L8.8,90.96L11,90.94L13.2,90.96L15.400000000000002,90.9L17.6,90.96L19.8,90.96L22,90.96L24.2,90.96L26.4,90.96L28.6,90.96L30.800000000000004,90.94L33,90.86000000000001L35.2,90.96L37.400000000000006,90.96L39.6,90.92L41.8,90.96L44,90.9L46.199999999999996,90.86000000000001L48.4,90.94L50.6,90.92L52.8,90.96L55,90.96L57.2,90.96L59.400000000000006,84.92L61.60000000000001,85.5L63.8,85.22000000000001L66,88.02L68.2,86.08L70.4,58.599999999999994L72.60000000000001,57.66L74.80000000000001,59.53999999999999L77,58.31999999999999L79.2,58.8L81.4,59.06L83.6,56.46L85.8,56.68L88,58.20000000000001L90.19999999999999,56.00000000000001L92.39999999999999,55.14L94.6,56.220000000000006L96.8,56.54L99,58.00000000000001L101.2,59.8L103.39999999999999,58.34L105.6,59.099999999999994L107.8,57.68L110,56.18000000000001L112.2,57.879999999999995L114.4,57.66L116.60000000000001,57.42L118.80000000000001,56.800000000000004L121.00000000000001,58.879999999999995L123.20000000000002,56.96L125.39999999999999,55.2L127.6,58.56L129.79999999999998,56.08L132,58.379999999999995L134.2,50L136.4,50L138.6,50L140.8,50L143,50L145.20000000000002,50L147.4,50L149.60000000000002,50L151.79999999999998,50L154,50L156.2,50L158.4,50L160.6,50L162.8,50L165,50L167.2,50L169.4,50L171.6,50L173.8,50L176,50L178.20000000000002,50L180.39999999999998,50L182.6,50L184.79999999999998,50L187,50L189.2,50L191.4,50L193.6,50L195.8,50L198,50L200.20000000000002,50L202.4,50L204.60000000000002,50L206.79999999999998,50L209,50" stroke="#72b7b2" stroke-width="2"></path></g></g><path class="foreground" aria-hidden="true" d="" display="none"></path></g><g transform="translate(0,0)"><path class="background" aria-hidden="true" d="M0,0h220v100h-220Z"></path><g><g class="mark-line role-mark child_marks" role="graphics-object" aria-roledescription="line mark container"><path aria-label="Belief Threshold: 0; Mean Reward (n=10,000): -0.2048; Update Rule: Good" role="graphics-symbol" aria-roledescription="line mark" d="M0,90.96L2.2,90.94L4.4,90.96L6.6,90.94L8.8,90.94L11,90.94L13.2,90.96L15.400000000000002,90.96L17.6,90.92L19.8,90.9L22,90.96L24.2,90.96L26.4,90.96L28.6,90.94L30.800000000000004,90.96L33,90.94L35.2,90.96L37.400000000000006,90.96L39.6,90.92L41.8,90.96L44,90.92L46.199999999999996,90.9L48.4,90.96L50.6,90.94L52.8,90.94L55,88.92L57.2,88.16L59.400000000000006,85.94L61.60000000000001,86.14L63.8,86.1L66,56.2L68.2,56.84L70.4,56.42L72.60000000000001,54.84L74.80000000000001,58.82000000000001L77,58.400000000000006L79.2,57.519999999999996L81.4,57.18L83.6,55.24L85.8,58.519999999999996L88,58.78L90.19999999999999,58.58L92.39999999999999,57.64L94.6,56.16L96.8,54.52L99,59.48L101.2,57.86L103.39999999999999,59.06L105.6,60.96L107.8,56.940000000000005L110,58.08L112.2,59.08L114.4,58.440000000000005L116.60000000000001,58.31999999999999L118.80000000000001,57.49999999999999L121.00000000000001,50L123.20000000000002,50L125.39999999999999,50L127.6,50L129.79999999999998,50L132,50L134.2,50L136.4,50L138.6,50L140.8,50L143,50L145.20000000000002,50L147.4,50L149.60000000000002,50L151.79999999999998,50L154,50L156.2,50L158.4,50L160.6,50L162.8,50L165,50L167.2,50L169.4,50L171.6,50L173.8,50L176,50L178.20000000000002,50L180.39999999999998,50L182.6,50L184.79999999999998,50L187,50L189.2,50L191.4,50L193.6,50L195.8,50L198,50L200.20000000000002,50L202.4,50L204.60000000000002,50L206.79999999999998,50L209,50" stroke="#f58518" stroke-width="2"></path></g></g><path class="foreground" aria-hidden="true" d="" display="none"></path></g><g transform="translate(0,0)"><path class="background" aria-hidden="true" d="M0,0h220v100h-220Z"></path><g><g class="mark-line role-mark child_marks" role="graphics-object" aria-roledescription="line mark container"><path aria-label="Belief Threshold: 0; Mean Reward (n=10,000): -0.2043; Update Rule: Popper" role="graphics-symbol" aria-roledescription="line mark" d="M0,90.86000000000001L2.2,90.96L4.4,90.94L6.6,90.96L8.8,90.96L11,90.96L13.2,90.96L15.400000000000002,90.9L17.6,90.96L19.8,90.96L22,90.94L24.2,90.92L26.4,90.94L28.6,90.96L30.800000000000004,90.94L33,90.92L35.2,90.94L37.400000000000006,90.9L39.6,90.9L41.8,90.96L44,90.96L46.199999999999996,90.92L48.4,90.96L50.6,90.86000000000001L52.8,90.96L55,90.96L57.2,90.94L59.400000000000006,88.5L61.60000000000001,86.8L63.8,88.9L66,88L68.2,84.84L70.4,87.62L72.60000000000001,57.54L74.80000000000001,56.099999999999994L77,58.82000000000001L79.2,56.099999999999994L81.4,57.00000000000001L83.6,56.74L85.8,57.400000000000006L88,57.379999999999995L90.19999999999999,60.339999999999996L92.39999999999999,57.02L94.6,58.74L96.8,57.379999999999995L99,58.08L101.2,59.42000000000001L103.39999999999999,56.64L105.6,58.040000000000006L107.8,57.2L110,57.48L112.2,57.04L114.4,57.86L116.60000000000001,61.339999999999996L118.80000000000001,56.48L121.00000000000001,57.58L123.20000000000002,58.74L125.39999999999999,56.98L127.6,56.86L129.79999999999998,61.06L132,57.940000000000005L134.2,58.660000000000004L136.4,57.400000000000006L138.6,59.42000000000001L140.8,50L143,50L145.20000000000002,50L147.4,50L149.60000000000002,50L151.79999999999998,50L154,50L156.2,50L158.4,50L160.6,50L162.8,50L165,50L167.2,50L169.4,50L171.6,50L173.8,50L176,50L178.20000000000002,50L180.39999999999998,50L182.6,50L184.79999999999998,50L187,50L189.2,50L191.4,50L193.6,50L195.8,50L198,50L200.20000000000002,50L202.4,50L204.60000000000002,50L206.79999999999998,50L209,50" stroke="#e45756" stroke-width="2"></path></g></g><path class="foreground" aria-hidden="true" d="" display="none"></path></g><g transform="translate(0,0)"><path class="background" aria-hidden="true" d="M0,0h220v100h-220Z"></path><g><g class="mark-line role-mark child_marks" role="graphics-object" aria-roledescription="line mark container"><path aria-label="Belief Threshold: 0; Mean Reward (n=10,000): -0.2047; Update Rule: Bayes" role="graphics-symbol" aria-roledescription="line mark" d="M0,90.94L2.2,90.94L4.4,90.96L6.6,90.96L8.8,90.96L11,90.96L13.2,90.96L15.400000000000002,90.92L17.6,90.94L19.8,90.96L22,90.96L24.2,90.94L26.4,90.9L28.6,90.96L30.800000000000004,90.92L33,90.94L35.2,90.86000000000001L37.400000000000006,90.96L39.6,90.96L41.8,90.96L44,90.9L46.199999999999996,86.7L48.4,87.16L50.6,83.33999999999999L52.8,85.3L55,87.72L57.2,58.379999999999995L59.400000000000006,58.540000000000006L61.60000000000001,57.48L63.8,57.86L66,54.620000000000005L68.2,56.89999999999999L70.4,58.31999999999999L72.60000000000001,59.78L74.80000000000001,58.24L77,56.32L79.2,56.56L81.4,58.48L83.6,57.49999999999999L85.8,57.98L88,56.32L90.19999999999999,58.02L92.39999999999999,57.519999999999996L94.6,58.699999999999996L96.8,57.699999999999996L99,56.98L101.2,50L103.39999999999999,50L105.6,50L107.8,50L110,50L112.2,50L114.4,50L116.60000000000001,50L118.80000000000001,50L121.00000000000001,50L123.20000000000002,50L125.39999999999999,50L127.6,50L129.79999999999998,50L132,50L134.2,50L136.4,50L138.6,50L140.8,50L143,50L145.20000000000002,50L147.4,50L149.60000000000002,50L151.79999999999998,50L154,50L156.2,50L158.4,50L160.6,50L162.8,50L165,50L167.2,50L169.4,50L171.6,50L173.8,50L176,50L178.20000000000002,50L180.39999999999998,50L182.6,50L184.79999999999998,50L187,50L189.2,50L191.4,50L193.6,50L195.8,50L198,50L200.20000000000002,50L202.4,50L204.60000000000002,50L206.79999999999998,50L209,50" stroke="#4c78a8" stroke-width="2"></path></g></g><path class="foreground" aria-hidden="true" d="" display="none"></path></g></g><g class="mark-group role-title"><g transform="translate(110,-20)"><path class="background" aria-hidden="true" d="M0,0h0v0h0Z" pointer-events="none"></path><g><g class="mark-text role-title-text" role="graphics-symbol" aria-roledescription="title" aria-label="Title text '5'" pointer-events="none"><text text-anchor="middle" transform="translate(0,8)" font-family="sans-serif" font-size="10px" fill="#000" opacity="1">5</text></g></g><path class="foreground" aria-hidden="true" d="" pointer-events="none" display="none"></path></g></g></g><path class="foreground" aria-hidden="true" d="" display="none"></path></g><g transform="translate(244,0)"><path class="background" aria-hidden="true" d="M0.5,0.5h220v100h-220Z" stroke="#ddd"></path><g><g class="mark-group role-axis" aria-hidden="true"><g transform="translate(0.5,100.5)"><path class="background" aria-hidden="true" d="M0,0h0v0h0Z" pointer-events="none"></path><g><g class="mark-rule role-axis-grid" pointer-events="none"><line transform="translate(0,-100)" x2="0" y2="100" stroke="#ddd" stroke-width="1" opacity="1"></line><line transform="translate(44,-100)" x2="0" y2="100" stroke="#ddd" stroke-width="1" opacity="1"></line><line transform="translate(88,-100)" x2="0" y2="100" stroke="#ddd" stroke-width="1" opacity="1"></line><line transform="translate(132,-100)" x2="0" y2="100" stroke="#ddd" stroke-width="1" opacity="1"></line><line transform="translate(176,-100)" x2="0" y2="100" stroke="#ddd" stroke-width="1" opacity="1"></line><line transform="translate(220,-100)" x2="0" y2="100" stroke="#ddd" stroke-width="1" opacity="1"></line></g></g><path class="foreground" aria-hidden="true" d="" pointer-events="none" display="none"></path></g></g><g class="mark-group role-axis" aria-hidden="true"><g transform="translate(0.5,0.5)"><path class="background" aria-hidden="true" d="M0,0h0v0h0Z" pointer-events="none"></path><g><g class="mark-rule role-axis-grid" pointer-events="none"><line transform="translate(0,90)" x2="220" y2="0" stroke="#ddd" stroke-width="1" opacity="1"></line><line transform="translate(0,50)" x2="220" y2="0" stroke="#ddd" stroke-width="1" opacity="1"></line><line transform="translate(0,10)" x2="220" y2="0" stroke="#ddd" stroke-width="1" opacity="1"></line></g></g><path class="foreground" aria-hidden="true" d="" pointer-events="none" display="none"></path></g></g><g class="mark-group role-scope child_pathgroup" role="graphics-object" aria-roledescription="group mark container"><g transform="translate(0,0)"><path class="background" aria-hidden="true" d="M0,0h220v100h-220Z"></path><g><g class="mark-line role-mark child_marks" role="graphics-object" aria-roledescription="line mark container"><path aria-label="Belief Threshold: 0; Mean Reward (n=10,000): -0.1462; Update Rule: Schupbach" role="graphics-symbol" aria-roledescription="line mark" d="M0,79.24L2.2,79.96L4.4,80.60000000000001L6.6,78.84L8.8,79.60000000000001L11,79L13.2,79.67999999999999L15.400000000000002,83.56L17.6,82.04L19.8,82.88L22,80.2L24.2,82.69999999999999L26.4,80.2L28.6,79.38000000000001L30.800000000000004,77.2L33,83.44L35.2,83.56L37.400000000000006,81L39.6,80.67999999999999L41.8,82.69999999999999L44,75.64L46.199999999999996,79.72L48.4,82.91999999999999L50.6,78.44L52.8,78.32000000000001L55,79.64L57.2,81.28L59.400000000000006,78.12L61.60000000000001,81.56L63.8,81L66,82.34L68.2,76.7L70.4,77.27999999999999L72.60000000000001,79.75999999999999L74.80000000000001,81.4L77,79.64L79.2,73.36L81.4,59.56L83.6,53.54L85.8,44.34L88,44.08L90.19999999999999,44.92L92.39999999999999,44.940000000000005L94.6,45.660000000000004L96.8,37.1L99,38.06L101.2,33.86L103.39999999999999,33.74L105.6,30.659999999999997L107.8,34.14L110,30.479999999999997L112.2,31.96L114.4,33.940000000000005L116.60000000000001,31.16L118.80000000000001,33.31999999999999L121.00000000000001,33.620000000000005L123.20000000000002,34.440000000000005L125.39999999999999,33.5L127.6,32.9L129.79999999999998,33.699999999999996L132,32.440000000000005L134.2,31.000000000000007L136.4,30.44L138.6,31.540000000000003L140.8,30.759999999999998L143,31.58L145.20000000000002,31.58L147.4,32.519999999999996L149.60000000000002,31.259999999999998L151.79999999999998,30.600000000000005L154,32.120000000000005L156.2,31.540000000000003L158.4,30.86L160.6,31.840000000000003L162.8,31.96L165,33.02L167.2,32.16L169.4,30.759999999999998L171.6,31.099999999999994L173.8,32.879999999999995L176,32.31999999999999L178.20000000000002,31.000000000000007L180.39999999999998,30.12L182.6,29.89999999999999L184.79999999999998,50L187,50L189.2,50L191.4,50L193.6,50L195.8,50L198,50L200.20000000000002,50L202.4,50L204.60000000000002,50L206.79999999999998,50L209,50" stroke="#72b7b2" stroke-width="2"></path></g></g><path class="foreground" aria-hidden="true" d="" display="none"></path></g><g transform="translate(0,0)"><path class="background" aria-hidden="true" d="M0,0h220v100h-220Z"></path><g><g class="mark-line role-mark child_marks" role="graphics-object" aria-roledescription="line mark container"><path aria-label="Belief Threshold: 0; Mean Reward (n=10,000): -0.1545; Update Rule: Good" role="graphics-symbol" aria-roledescription="line mark" d="M0,80.89999999999999L2.2,81L4.4,78.06L6.6,81.52L8.8,82.44L11,84.04L13.2,83L15.400000000000002,75.7L17.6,79.24L19.8,83.4L22,80L24.2,78.24L26.4,79.08L28.6,78.8L30.800000000000004,78.32000000000001L33,78.52L35.2,83.28L37.400000000000006,82.26L39.6,78.06L41.8,80.76L44,79.96L46.199999999999996,83.44L48.4,82.16L50.6,81.11999999999999L52.8,81.2L55,79.80000000000001L57.2,80.64L59.400000000000006,80.28L61.60000000000001,79.64L63.8,84.36L66,84.66L68.2,82.91999999999999L70.4,72.28L72.60000000000001,58.58L74.80000000000001,57.68L77,44.48L79.2,45.02L81.4,40.94L83.6,44.3L85.8,31.44L88,34.440000000000005L90.19999999999999,33.599999999999994L92.39999999999999,33.96L94.6,33.9L96.8,35.78L99,33.24L101.2,32.919999999999995L103.39999999999999,34.440000000000005L105.6,34.08L107.8,35.36L110,32.78L112.2,32.00000000000001L114.4,35.12L116.60000000000001,33.82000000000001L118.80000000000001,31.86L121.00000000000001,31.240000000000002L123.20000000000002,30.620000000000005L125.39999999999999,31.740000000000002L127.6,30.159999999999997L129.79999999999998,33.040000000000006L132,29.879999999999995L134.2,31.34L136.4,32.78L138.6,31.400000000000006L140.8,31.759999999999998L143,31.899999999999995L145.20000000000002,32.919999999999995L147.4,32.519999999999996L149.60000000000002,31.66L151.79999999999998,31.179999999999996L154,31.499999999999993L156.2,32.08L158.4,30.180000000000007L160.6,31.400000000000006L162.8,31.000000000000007L165,29.78000000000001L167.2,50L169.4,50L171.6,50L173.8,50L176,50L178.20000000000002,50L180.39999999999998,50L182.6,50L184.79999999999998,50L187,50L189.2,50L191.4,50L193.6,50L195.8,50L198,50L200.20000000000002,50L202.4,50L204.60000000000002,50L206.79999999999998,50L209,50" stroke="#f58518" stroke-width="2"></path></g></g><path class="foreground" aria-hidden="true" d="" display="none"></path></g><g transform="translate(0,0)"><path class="background" aria-hidden="true" d="M0,0h220v100h-220Z"></path><g><g class="mark-line role-mark child_marks" role="graphics-object" aria-roledescription="line mark container"><path aria-label="Belief Threshold: 0; Mean Reward (n=10,000): -0.1412; Update Rule: Popper" role="graphics-symbol" aria-roledescription="line mark" d="M0,78.24L2.2,81.04L4.4,82.69999999999999L6.6,83.28L8.8,81.96L11,83.11999999999999L13.2,76.08L15.400000000000002,82.26L17.6,83.26L19.8,84.04L22,78.94L24.2,74.88L26.4,81.24L28.6,77.24L30.800000000000004,76.08L33,81.38000000000001L35.2,79.60000000000001L37.400000000000006,83.08L39.6,79.28L41.8,81.89999999999999L44,79.60000000000001L46.199999999999996,79.80000000000001L48.4,80.46L50.6,81.11999999999999L52.8,77.84L55,77.88L57.2,78.32000000000001L59.400000000000006,84.8L61.60000000000001,79.60000000000001L63.8,80.88L66,81.28L68.2,81.60000000000001L70.4,74.64L72.60000000000001,82.32L74.80000000000001,79.02L77,80.84L79.2,70.88L81.4,57.76L83.6,61.68L85.8,45.08L88,43.52L90.19999999999999,45.4L92.39999999999999,43.98L94.6,43.120000000000005L96.8,32.2L99,34.31999999999999L101.2,33.040000000000006L103.39999999999999,33.940000000000005L105.6,33.220000000000006L107.8,33.879999999999995L110,32.71999999999999L112.2,33.28L114.4,32.48L116.60000000000001,34.3L118.80000000000001,35.31999999999999L121.00000000000001,30.720000000000002L123.20000000000002,34.519999999999996L125.39999999999999,36.38L127.6,32.919999999999995L129.79999999999998,34.42000000000001L132,32.54L134.2,33.5L136.4,32.60000000000001L138.6,31.920000000000005L140.8,31.920000000000005L143,30.84L145.20000000000002,31.94L147.4,30.92L149.60000000000002,33.940000000000005L151.79999999999998,31.279999999999998L154,31.86L156.2,30.259999999999998L158.4,31.899999999999995L160.6,33.24L162.8,31.08L165,29.32L167.2,30.04L169.4,32.08L171.6,32.28L173.8,32.220000000000006L176,28.720000000000002L178.20000000000002,30.959999999999997L180.39999999999998,30.44L182.6,30.079999999999995L184.79999999999998,30.159999999999997L187,50L189.2,50L191.4,50L193.6,50L195.8,50L198,50L200.20000000000002,50L202.4,50L204.60000000000002,50L206.79999999999998,50L209,50" stroke="#e45756" stroke-width="2"></path></g></g><path class="foreground" aria-hidden="true" d="" display="none"></path></g><g transform="translate(0,0)"><path class="background" aria-hidden="true" d="M0,0h220v100h-220Z"></path><g><g class="mark-line role-mark child_marks" role="graphics-object" aria-roledescription="line mark container"><path aria-label="Belief Threshold: 0; Mean Reward (n=10,000): -0.1608; Update Rule: Bayes" role="graphics-symbol" aria-roledescription="line mark" d="M0,82.16L2.2,81.72L4.4,82.91999999999999L6.6,81.72L8.8,78.36000000000001L11,78.52L13.2,78.88L15.400000000000002,78.24L17.6,80.12L19.8,81.76L22,79.75999999999999L24.2,81.89999999999999L26.4,82.16L28.6,84.28L30.800000000000004,81.56L33,81.67999999999999L35.2,79.67999999999999L37.400000000000006,84.08L39.6,80.76L41.8,79.64L44,79.12L46.199999999999996,79.84L48.4,82.76L50.6,80.44L52.8,80.72L55,79.4L57.2,83.4L59.400000000000006,82.44L61.60000000000001,57.06L63.8,58.620000000000005L66,46.78L68.2,43.66L70.4,44.14L72.60000000000001,44.42L74.80000000000001,33.31999999999999L77,32.86L79.2,32.98L81.4,32.099999999999994L83.6,33.76L85.8,33.36L88,35.58L90.19999999999999,34.699999999999996L92.39999999999999,30.64L94.6,31.820000000000004L96.8,34.34L99,31.540000000000003L101.2,33.34L103.39999999999999,31.179999999999996L105.6,30.620000000000005L107.8,33.18L110,30.459999999999997L112.2,31.42L114.4,32.2L116.60000000000001,32.28L118.80000000000001,32.18L121.00000000000001,32.48L123.20000000000002,29.94L125.39999999999999,31.94L127.6,31.699999999999996L129.79999999999998,32.68L132,30.84L134.2,32.400000000000006L136.4,32.26L138.6,33.76L140.8,31.540000000000003L143,31.840000000000003L145.20000000000002,32.18L147.4,31.14L149.60000000000002,50L151.79999999999998,50L154,50L156.2,50L158.4,50L160.6,50L162.8,50L165,50L167.2,50L169.4,50L171.6,50L173.8,50L176,50L178.20000000000002,50L180.39999999999998,50L182.6,50L184.79999999999998,50L187,50L189.2,50L191.4,50L193.6,50L195.8,50L198,50L200.20000000000002,50L202.4,50L204.60000000000002,50L206.79999999999998,50L209,50" stroke="#4c78a8" stroke-width="2"></path></g></g><path class="foreground" aria-hidden="true" d="" display="none"></path></g></g><g class="mark-group role-title"><g transform="translate(110,-20)"><path class="background" aria-hidden="true" d="M0,0h0v0h0Z" pointer-events="none"></path><g><g class="mark-text role-title-text" role="graphics-symbol" aria-roledescription="title" aria-label="Title text '10'" pointer-events="none"><text text-anchor="middle" transform="translate(0,8)" font-family="sans-serif" font-size="10px" fill="#000" opacity="1">10</text></g></g><path class="foreground" aria-hidden="true" d="" pointer-events="none" display="none"></path></g></g></g><path class="foreground" aria-hidden="true" d="" display="none"></path></g><g transform="translate(0,142)"><path class="background" aria-hidden="true" d="M0.5,0.5h220v100h-220Z" stroke="#ddd"></path><g><g class="mark-group role-axis" aria-hidden="true"><g transform="translate(0.5,100.5)"><path class="background" aria-hidden="true" d="M0,0h0v0h0Z" pointer-events="none"></path><g><g class="mark-rule role-axis-grid" pointer-events="none"><line transform="translate(0,-100)" x2="0" y2="100" stroke="#ddd" stroke-width="1" opacity="1"></line><line transform="translate(44,-100)" x2="0" y2="100" stroke="#ddd" stroke-width="1" opacity="1"></line><line transform="translate(88,-100)" x2="0" y2="100" stroke="#ddd" stroke-width="1" opacity="1"></line><line transform="translate(132,-100)" x2="0" y2="100" stroke="#ddd" stroke-width="1" opacity="1"></line><line transform="translate(176,-100)" x2="0" y2="100" stroke="#ddd" stroke-width="1" opacity="1"></line><line transform="translate(220,-100)" x2="0" y2="100" stroke="#ddd" stroke-width="1" opacity="1"></line></g></g><path class="foreground" aria-hidden="true" d="" pointer-events="none" display="none"></path></g></g><g class="mark-group role-axis" aria-hidden="true"><g transform="translate(0.5,0.5)"><path class="background" aria-hidden="true" d="M0,0h0v0h0Z" pointer-events="none"></path><g><g class="mark-rule role-axis-grid" pointer-events="none"><line transform="translate(0,90)" x2="220" y2="0" stroke="#ddd" stroke-width="1" opacity="1"></line><line transform="translate(0,50)" x2="220" y2="0" stroke="#ddd" stroke-width="1" opacity="1"></line><line transform="translate(0,10)" x2="220" y2="0" stroke="#ddd" stroke-width="1" opacity="1"></line></g></g><path class="foreground" aria-hidden="true" d="" pointer-events="none" display="none"></path></g></g><g class="mark-group role-scope child_pathgroup" role="graphics-object" aria-roledescription="group mark container"><g transform="translate(0,0)"><path class="background" aria-hidden="true" d="M0,0h220v100h-220Z"></path><g><g class="mark-line role-mark child_marks" role="graphics-object" aria-roledescription="line mark container"><path aria-label="Belief Threshold: 0; Mean Reward (n=10,000): -0.0208; Update Rule: Schupbach" role="graphics-symbol" aria-roledescription="line mark" d="M0,54.16L2.2,56.800000000000004L4.4,53.96000000000001L6.6,58.040000000000006L8.8,49.08L11,54.96L13.2,50.96000000000001L15.400000000000002,55.52L17.6,56.16L19.8,56.48L22,56.76L24.2,57.36L26.4,56.71999999999999L28.6,52.160000000000004L30.800000000000004,56.24L33,50.67999999999999L35.2,55.08L37.400000000000006,55.24L39.6,52.64L41.8,57.71999999999999L44,54.44L46.199999999999996,55.32L48.4,53.879999999999995L50.6,55.32L52.8,55.800000000000004L55,53.760000000000005L57.2,53.52L59.400000000000006,53.52L61.60000000000001,55.559999999999995L63.8,53.52L66,53.16000000000001L68.2,52.6L70.4,50.2L72.60000000000001,57.36L74.80000000000001,56.519999999999996L77,56.64L79.2,54.24L81.4,54.44L83.6,54.559999999999995L85.8,52.96000000000001L88,53.279999999999994L90.19999999999999,47.28L92.39999999999999,46.160000000000004L94.6,37.28L96.8,35.24L99,30.42L101.2,26.119999999999997L103.39999999999999,24.880000000000003L105.6,23.599999999999998L107.8,24.659999999999993L110,22.48L112.2,19.979999999999997L114.4,22.9L116.60000000000001,20.21999999999999L118.80000000000001,14.42L121.00000000000001,16.74L123.20000000000002,15.260000000000007L125.39999999999999,16.460000000000008L127.6,15.400000000000002L129.79999999999998,17.300000000000004L132,16.520000000000003L134.2,15.839999999999998L136.4,16.02L138.6,17.179999999999996L140.8,15.920000000000002L143,16.720000000000002L145.20000000000002,18.36L147.4,14.719999999999999L149.60000000000002,15.639999999999999L151.79999999999998,16.939999999999998L154,15.579999999999995L156.2,16.599999999999994L158.4,17.779999999999994L160.6,16.92L162.8,15.639999999999999L165,16.680000000000007L167.2,17.39999999999999L169.4,16.06000000000001L171.6,16.680000000000007L173.8,15.739999999999998L176,16.999999999999993L178.20000000000002,16.439999999999998L180.39999999999998,16.880000000000006L182.6,14.860000000000007L184.79999999999998,15.080000000000005L187,21.940000000000005L189.2,21.58L191.4,22.019999999999996L193.6,20.540000000000003L195.8,23.419999999999995L198,23.580000000000002L200.20000000000002,23.219999999999995L202.4,23.299999999999997L204.60000000000002,23.239999999999995L206.79999999999998,50L209,50" stroke="#72b7b2" stroke-width="2"></path></g></g><path class="foreground" aria-hidden="true" d="" display="none"></path></g><g transform="translate(0,0)"><path class="background" aria-hidden="true" d="M0,0h220v100h-220Z"></path><g><g class="mark-line role-mark child_marks" role="graphics-object" aria-roledescription="line mark container"><path aria-label="Belief Threshold: 0; Mean Reward (n=10,000): -0.0156; Update Rule: Good" role="graphics-symbol" aria-roledescription="line mark" d="M0,53.12L2.2,53.36000000000001L4.4,53.96000000000001L6.6,54.92L8.8,55.800000000000004L11,56.279999999999994L13.2,53.56000000000001L15.400000000000002,55.00000000000001L17.6,54.400000000000006L19.8,54.120000000000005L22,55.08L24.2,56.24L26.4,56.48L28.6,56.2L30.800000000000004,55.84L33,52.36000000000001L35.2,52.72L37.400000000000006,53.800000000000004L39.6,53.96000000000001L41.8,52.96000000000001L44,55.44L46.199999999999996,54.32L48.4,53.239999999999995L50.6,53.879999999999995L52.8,52.760000000000005L55,55.84L57.2,54.76L59.400000000000006,55.92L61.60000000000001,55.2L63.8,52.12L66,55.36L68.2,52.239999999999995L70.4,54.879999999999995L72.60000000000001,57.919999999999995L74.80000000000001,54.120000000000005L77,54.96L79.2,52.800000000000004L81.4,44.42L83.6,36.46L85.8,34.919999999999995L88,32.18L90.19999999999999,22.499999999999996L92.39999999999999,25.459999999999994L94.6,24.740000000000006L96.8,21.060000000000002L99,21.720000000000006L101.2,20.120000000000005L103.39999999999999,19.58L105.6,15.039999999999997L107.8,16.520000000000003L110,14.359999999999996L112.2,15.620000000000001L114.4,16.720000000000002L116.60000000000001,16.199999999999992L118.80000000000001,15.779999999999994L121.00000000000001,16.84L123.20000000000002,16.06000000000001L125.39999999999999,16.080000000000005L127.6,14.600000000000001L129.79999999999998,17.579999999999995L132,17.39999999999999L134.2,16.84L136.4,16.04L138.6,15.52L140.8,16.720000000000002L143,15.42L145.20000000000002,15.72L147.4,14.12L149.60000000000002,16.959999999999997L151.79999999999998,16.62L154,18.61999999999999L156.2,16.080000000000005L158.4,16.520000000000003L160.6,15.400000000000002L162.8,15.860000000000007L165,22.26L167.2,23.219999999999995L169.4,22.08L171.6,22.819999999999997L173.8,23.540000000000006L176,23.819999999999997L178.20000000000002,21.940000000000005L180.39999999999998,20.88L182.6,23.819999999999997L184.79999999999998,22.98L187,22.98L189.2,21.23999999999999L191.4,20.21999999999999L193.6,50L195.8,50L198,50L200.20000000000002,50L202.4,50L204.60000000000002,50L206.79999999999998,50L209,50" stroke="#f58518" stroke-width="2"></path></g></g><path class="foreground" aria-hidden="true" d="" display="none"></path></g><g transform="translate(0,0)"><path class="background" aria-hidden="true" d="M0,0h220v100h-220Z"></path><g><g class="mark-line role-mark child_marks" role="graphics-object" aria-roledescription="line mark container"><path aria-label="Belief Threshold: 0; Mean Reward (n=10,000): -0.0352; Update Rule: Popper" role="graphics-symbol" aria-roledescription="line mark" d="M0,57.04L2.2,49.44L4.4,54.879999999999995L6.6,52.92L8.8,57.800000000000004L11,52.760000000000005L13.2,55.04L15.400000000000002,59.48L17.6,48.64000000000001L19.8,53.92L22,55.64L24.2,52.56000000000001L26.4,53.839999999999996L28.6,55.120000000000005L30.800000000000004,56.00000000000001L33,54.84L35.2,56.44L37.400000000000006,54.64L39.6,55.559999999999995L41.8,53.36000000000001L44,55.00000000000001L46.199999999999996,57.08L48.4,57.519999999999996L50.6,53.279999999999994L52.8,53.52L55,56.400000000000006L57.2,56.96L59.400000000000006,56.08L61.60000000000001,53.96000000000001L63.8,53.07999999999999L66,53.839999999999996L68.2,56.2L70.4,55.44L72.60000000000001,57.64L74.80000000000001,56.16L77,52.07999999999999L79.2,53.96000000000001L81.4,49.8L83.6,56.08L85.8,54.48L88,56.279999999999994L90.19999999999999,44.16L92.39999999999999,42.50000000000001L94.6,39.959999999999994L96.8,30.000000000000004L99,23.080000000000002L101.2,23.740000000000006L103.39999999999999,26.259999999999994L105.6,25.859999999999992L107.8,22.340000000000003L110,23.659999999999993L112.2,25.580000000000002L114.4,19.379999999999995L116.60000000000001,16.74L118.80000000000001,16.880000000000006L121.00000000000001,17.080000000000005L123.20000000000002,13.739999999999997L125.39999999999999,17.459999999999997L127.6,15.680000000000005L129.79999999999998,15.42L132,17.520000000000003L134.2,14.12L136.4,15.480000000000004L138.6,16.12L140.8,15.42L143,14.779999999999994L145.20000000000002,16.779999999999994L147.4,15.799999999999992L149.60000000000002,17.24L151.79999999999998,18.14L154,15.920000000000002L156.2,14.92L158.4,16.12L160.6,15.639999999999999L162.8,16.500000000000004L165,16.660000000000007L167.2,15.82L169.4,15.900000000000002L171.6,15.920000000000002L173.8,16.599999999999994L176,17.39999999999999L178.20000000000002,16.179999999999993L180.39999999999998,17.12L182.6,21.639999999999993L184.79999999999998,23.639999999999993L187,22.639999999999993L189.2,23L191.4,21.219999999999995L193.6,22.540000000000006L195.8,21.68L198,23.4L200.20000000000002,23.560000000000002L202.4,22.360000000000003L204.60000000000002,22.299999999999997L206.79999999999998,50L209,50" stroke="#e45756" stroke-width="2"></path></g></g><path class="foreground" aria-hidden="true" d="" display="none"></path></g><g transform="translate(0,0)"><path class="background" aria-hidden="true" d="M0,0h220v100h-220Z"></path><g><g class="mark-line role-mark child_marks" role="graphics-object" aria-roledescription="line mark container"><path aria-label="Belief Threshold: 0; Mean Reward (n=10,000): -0.0254; Update Rule: Bayes" role="graphics-symbol" aria-roledescription="line mark" d="M0,55.08L2.2,52.96000000000001L4.4,51.2L6.6,53.07999999999999L8.8,56.24L11,54.36L13.2,52.07999999999999L15.400000000000002,54.16L17.6,55.720000000000006L19.8,54.76L22,54.72L24.2,54.76L26.4,55.96L28.6,51.2L30.800000000000004,53.64L33,54.24L35.2,55.04L37.400000000000006,56.08L39.6,56.879999999999995L41.8,55.08L44,55.08L46.199999999999996,56.16L48.4,54.32L50.6,54.08L52.8,58.599999999999994L55,53.800000000000004L57.2,50.63999999999999L59.400000000000006,53.6L61.60000000000001,56.16L63.8,53.800000000000004L66,50.080000000000005L68.2,53.6L70.4,45.58L72.60000000000001,37.7L74.80000000000001,32.28L77,24.4L79.2,23.039999999999992L81.4,24.740000000000006L83.6,22.639999999999993L85.8,23.859999999999992L88,21.019999999999996L90.19999999999999,19.06L92.39999999999999,18.54L94.6,19.840000000000003L96.8,16.660000000000007L99,16.12L101.2,17.259999999999998L103.39999999999999,16.439999999999998L105.6,15.080000000000005L107.8,16.900000000000006L110,16.080000000000005L112.2,18.240000000000002L114.4,15.959999999999997L116.60000000000001,16.300000000000004L118.80000000000001,16.199999999999992L121.00000000000001,15.080000000000005L123.20000000000002,15.779999999999994L125.39999999999999,15.860000000000007L127.6,16.500000000000004L129.79999999999998,17.459999999999997L132,17.44L134.2,15.82L136.4,17.480000000000008L138.6,17.04L140.8,17.579999999999995L143,15.779999999999994L145.20000000000002,16.24L147.4,17.36L149.60000000000002,21.98L151.79999999999998,22.299999999999997L154,25.119999999999997L156.2,23.880000000000003L158.4,23L160.6,22.320000000000007L162.8,21.199999999999996L165,21.819999999999993L167.2,23.340000000000003L169.4,22.08L171.6,24.340000000000007L173.8,21.38L176,22.660000000000004L178.20000000000002,50L180.39999999999998,50L182.6,50L184.79999999999998,50L187,50L189.2,50L191.4,50L193.6,50L195.8,50L198,50L200.20000000000002,50L202.4,50L204.60000000000002,50L206.79999999999998,50L209,50" stroke="#4c78a8" stroke-width="2"></path></g></g><path class="foreground" aria-hidden="true" d="" display="none"></path></g></g><g class="mark-group role-title"><g transform="translate(110,-20)"><path class="background" aria-hidden="true" d="M0,0h0v0h0Z" pointer-events="none"></path><g><g class="mark-text role-title-text" role="graphics-symbol" aria-roledescription="title" aria-label="Title text '15'" pointer-events="none"><text text-anchor="middle" transform="translate(0,8)" font-family="sans-serif" font-size="10px" fill="#000" opacity="1">15</text></g></g><path class="foreground" aria-hidden="true" d="" pointer-events="none" display="none"></path></g></g></g><path class="foreground" aria-hidden="true" d="" display="none"></path></g><g transform="translate(244,142)"><path class="background" aria-hidden="true" d="M0.5,0.5h220v100h-220Z" stroke="#ddd"></path><g><g class="mark-group role-axis" aria-hidden="true"><g transform="translate(0.5,100.5)"><path class="background" aria-hidden="true" d="M0,0h0v0h0Z" pointer-events="none"></path><g><g class="mark-rule role-axis-grid" pointer-events="none"><line transform="translate(0,-100)" x2="0" y2="100" stroke="#ddd" stroke-width="1" opacity="1"></line><line transform="translate(44,-100)" x2="0" y2="100" stroke="#ddd" stroke-width="1" opacity="1"></line><line transform="translate(88,-100)" x2="0" y2="100" stroke="#ddd" stroke-width="1" opacity="1"></line><line transform="translate(132,-100)" x2="0" y2="100" stroke="#ddd" stroke-width="1" opacity="1"></line><line transform="translate(176,-100)" x2="0" y2="100" stroke="#ddd" stroke-width="1" opacity="1"></line><line transform="translate(220,-100)" x2="0" y2="100" stroke="#ddd" stroke-width="1" opacity="1"></line></g></g><path class="foreground" aria-hidden="true" d="" pointer-events="none" display="none"></path></g></g><g class="mark-group role-axis" aria-hidden="true"><g transform="translate(0.5,0.5)"><path class="background" aria-hidden="true" d="M0,0h0v0h0Z" pointer-events="none"></path><g><g class="mark-rule role-axis-grid" pointer-events="none"><line transform="translate(0,90)" x2="220" y2="0" stroke="#ddd" stroke-width="1" opacity="1"></line><line transform="translate(0,50)" x2="220" y2="0" stroke="#ddd" stroke-width="1" opacity="1"></line><line transform="translate(0,10)" x2="220" y2="0" stroke="#ddd" stroke-width="1" opacity="1"></line></g></g><path class="foreground" aria-hidden="true" d="" pointer-events="none" display="none"></path></g></g><g class="mark-group role-scope child_pathgroup" role="graphics-object" aria-roledescription="group mark container"><g transform="translate(0,0)"><path class="background" aria-hidden="true" d="M0,0h220v100h-220Z"></path><g><g class="mark-line role-mark child_marks" role="graphics-object" aria-roledescription="line mark container"><path aria-label="Belief Threshold: 0; Mean Reward (n=10,000): 0.08; Update Rule: Schupbach" role="graphics-symbol" aria-roledescription="line mark" d="M0,34L2.2,35.84L4.4,36.040000000000006L6.6,37.12L8.8,34.919999999999995L11,36.96L13.2,35.12L15.400000000000002,35.040000000000006L17.6,36.08L19.8,35.519999999999996L22,33.31999999999999L24.2,38.16L26.4,34.68L28.6,36.24000000000001L30.800000000000004,37.160000000000004L33,34.68L35.2,37.08L37.400000000000006,39.519999999999996L39.6,35.040000000000006L41.8,34.12L44,37.480000000000004L46.199999999999996,37.56L48.4,39L50.6,36.56L52.8,34.040000000000006L55,36.64000000000001L57.2,36.96L59.400000000000006,38.88L61.60000000000001,39.6L63.8,34.599999999999994L66,34.760000000000005L68.2,34.31999999999999L70.4,31.679999999999996L72.60000000000001,34.48L74.80000000000001,35.919999999999995L77,37.63999999999999L79.2,34.48L81.4,36.519999999999996L83.6,36.4L85.8,35.160000000000004L88,35.199999999999996L90.19999999999999,35.72L92.39999999999999,32.06L94.6,30.220000000000002L96.8,25.3L99,26.760000000000005L101.2,20.36L103.39999999999999,19.479999999999997L105.6,24.519999999999996L107.8,21.060000000000002L110,18.44L112.2,14.779999999999994L114.4,12.5L116.60000000000001,12.240000000000006L118.80000000000001,12.5L121.00000000000001,9.060000000000002L123.20000000000002,9.060000000000002L125.39999999999999,9.139999999999993L127.6,9.099999999999998L129.79999999999998,9.440000000000005L132,9.040000000000003L134.2,9.48L136.4,9.040000000000003L138.6,9.040000000000003L140.8,9.040000000000003L143,9.040000000000003L145.20000000000002,9.040000000000003L147.4,9.040000000000003L149.60000000000002,9.040000000000003L151.79999999999998,9.060000000000002L154,9.040000000000003L156.2,9.060000000000002L158.4,9.040000000000003L160.6,9.040000000000003L162.8,9.040000000000003L165,9.040000000000003L167.2,9.040000000000003L169.4,9.060000000000002L171.6,9.040000000000003L173.8,10.220000000000006L176,11.060000000000002L178.20000000000002,9.519999999999996L180.39999999999998,11.359999999999992L182.6,10.919999999999996L184.79999999999998,10.799999999999999L187,11.7L189.2,11.280000000000001L191.4,12.380000000000003L193.6,10.280000000000001L195.8,11.519999999999996L198,10.139999999999993L200.20000000000002,10.799999999999999L202.4,9.420000000000005L204.60000000000002,10.799999999999999L206.79999999999998,10.799999999999999L209,18.100000000000005" stroke="#72b7b2" stroke-width="2"></path></g></g><path class="foreground" aria-hidden="true" d="" display="none"></path></g><g transform="translate(0,0)"><path class="background" aria-hidden="true" d="M0,0h220v100h-220Z"></path><g><g class="mark-line role-mark child_marks" role="graphics-object" aria-roledescription="line mark container"><path aria-label="Belief Threshold: 0; Mean Reward (n=10,000): 0.0682; Update Rule: Good" role="graphics-symbol" aria-roledescription="line mark" d="M0,36.36000000000001L2.2,38.92L4.4,38.839999999999996L6.6,39.64L8.8,36.31999999999999L11,36.08L13.2,34.24L15.400000000000002,32.60000000000001L17.6,37.8L19.8,37.63999999999999L22,34.36L24.2,33.96L26.4,36.64000000000001L28.6,34.08L30.800000000000004,34.919999999999995L33,37.24000000000001L35.2,33.879999999999995L37.400000000000006,36.36000000000001L39.6,33.440000000000005L41.8,33.040000000000006L44,38.559999999999995L46.199999999999996,36.68L48.4,36L50.6,39.32L52.8,34.199999999999996L55,39L57.2,33.4L59.400000000000006,36.199999999999996L61.60000000000001,35.919999999999995L63.8,36.480000000000004L66,34.36L68.2,37.480000000000004L70.4,36.72L72.60000000000001,36.84L74.80000000000001,35.760000000000005L77,35.8L79.2,37.480000000000004L81.4,38.959999999999994L83.6,32.66L85.8,29.159999999999997L88,23.019999999999996L90.19999999999999,22.9L92.39999999999999,26.280000000000005L94.6,18.399999999999995L96.8,15.359999999999996L99,14.62L101.2,14.179999999999993L103.39999999999999,9.58L105.6,9.040000000000003L107.8,9.699999999999998L110,9.060000000000002L112.2,9.040000000000003L114.4,9.040000000000003L116.60000000000001,9.040000000000003L118.80000000000001,9.040000000000003L121.00000000000001,9.040000000000003L123.20000000000002,9.040000000000003L125.39999999999999,9.099999999999998L127.6,9.060000000000002L129.79999999999998,9.060000000000002L132,9.040000000000003L134.2,9.040000000000003L136.4,9.040000000000003L138.6,9.040000000000003L140.8,9.040000000000003L143,9.040000000000003L145.20000000000002,9.040000000000003L147.4,9.040000000000003L149.60000000000002,9.060000000000002L151.79999999999998,10.739999999999995L154,11.460000000000004L156.2,11.319999999999997L158.4,9.28L160.6,10.139999999999993L162.8,9.040000000000003L165,10.959999999999992L167.2,10.199999999999998L169.4,12.380000000000003L171.6,11.48L173.8,10.660000000000004L176,12.240000000000006L178.20000000000002,10.319999999999997L180.39999999999998,11.420000000000009L182.6,11.2L184.79999999999998,10.959999999999992L187,11.6L189.2,11.460000000000004L191.4,19.500000000000007L193.6,19.259999999999998L195.8,18.500000000000007L198,19.759999999999998L200.20000000000002,20.279999999999998L202.4,17.999999999999993L204.60000000000002,18.120000000000005L206.79999999999998,50L209,50" stroke="#f58518" stroke-width="2"></path></g></g><path class="foreground" aria-hidden="true" d="" display="none"></path></g><g transform="translate(0,0)"><path class="background" aria-hidden="true" d="M0,0h220v100h-220Z"></path><g><g class="mark-line role-mark child_marks" role="graphics-object" aria-roledescription="line mark container"><path aria-label="Belief Threshold: 0; Mean Reward (n=10,000): 0.0718; Update Rule: Popper" role="graphics-symbol" aria-roledescription="line mark" d="M0,35.64000000000001L2.2,33.040000000000006L4.4,34.72L6.6,36.160000000000004L8.8,31.279999999999998L11,33.8L13.2,36.4L15.400000000000002,34.4L17.6,34.8L19.8,39.519999999999996L22,36.480000000000004L24.2,37.440000000000005L26.4,41.120000000000005L28.6,35.480000000000004L30.800000000000004,34.24L33,36.480000000000004L35.2,32.60000000000001L37.400000000000006,35.56L39.6,34.36L41.8,37L44,36.4L46.199999999999996,35.160000000000004L48.4,36.24000000000001L50.6,35.68L52.8,36.12L55,33.08L57.2,34.48L59.400000000000006,35.24L61.60000000000001,35.88L63.8,33.040000000000006L66,36.31999999999999L68.2,34.68L70.4,36.36000000000001L72.60000000000001,36L74.80000000000001,33.28L77,31.400000000000006L79.2,36.160000000000004L81.4,38.72L83.6,35.519999999999996L85.8,33.31999999999999L88,36.28L90.19999999999999,35.88L92.39999999999999,31.46L94.6,24.6L96.8,24.659999999999993L99,25.680000000000003L101.2,19.94L103.39999999999999,17.700000000000003L105.6,18.100000000000005L107.8,18.88000000000001L110,11.640000000000006L112.2,9.060000000000002L114.4,11.319999999999997L116.60000000000001,9.079999999999998L118.80000000000001,9.040000000000003L121.00000000000001,9.040000000000003L123.20000000000002,9.079999999999998L125.39999999999999,11.399999999999999L127.6,9.040000000000003L129.79999999999998,9.040000000000003L132,9.040000000000003L134.2,9.040000000000003L136.4,9.040000000000003L138.6,9.060000000000002L140.8,9.040000000000003L143,9.040000000000003L145.20000000000002,9.060000000000002L147.4,9.040000000000003L149.60000000000002,9.040000000000003L151.79999999999998,9.040000000000003L154,9.040000000000003L156.2,9.040000000000003L158.4,10.319999999999997L160.6,9.040000000000003L162.8,9.040000000000003L165,9.040000000000003L167.2,9.040000000000003L169.4,11.980000000000002L171.6,12.240000000000006L173.8,12.8L176,11.799999999999999L178.20000000000002,10.799999999999999L180.39999999999998,10.199999999999998L182.6,13.480000000000004L184.79999999999998,11.759999999999993L187,10.220000000000006L189.2,13.819999999999999L191.4,12.939999999999996L193.6,11.460000000000004L195.8,11.820000000000007L198,12.180000000000001L200.20000000000002,9.599999999999998L202.4,11.319999999999997L204.60000000000002,11.739999999999995L206.79999999999998,17.92L209,19.920000000000005" stroke="#e45756" stroke-width="2"></path></g></g><path class="foreground" aria-hidden="true" d="" display="none"></path></g><g transform="translate(0,0)"><path class="background" aria-hidden="true" d="M0,0h220v100h-220Z"></path><g><g class="mark-line role-mark child_marks" role="graphics-object" aria-roledescription="line mark container"><path aria-label="Belief Threshold: 0; Mean Reward (n=10,000): 0.089; Update Rule: Bayes" role="graphics-symbol" aria-roledescription="line mark" d="M0,32.2L2.2,33.31999999999999L4.4,39.68000000000001L6.6,36.8L8.8,35.31999999999999L11,39.64L13.2,37.28L15.400000000000002,34.31999999999999L17.6,37.760000000000005L19.8,32.919999999999995L22,31.479999999999997L24.2,36L26.4,35.480000000000004L28.6,35.56L30.800000000000004,36.760000000000005L33,37.2L35.2,37.040000000000006L37.400000000000006,37.760000000000005L39.6,36.24000000000001L41.8,36.199999999999996L44,34.199999999999996L46.199999999999996,35.84L48.4,39.080000000000005L50.6,37.28L52.8,36.08L55,34.28L57.2,36.72L59.400000000000006,37.12L61.60000000000001,34.64L63.8,39.44L66,32.28L68.2,33.599999999999994L70.4,38.16L72.60000000000001,37.35999999999999L74.80000000000001,33.56L77,22.239999999999995L79.2,25.539999999999996L81.4,23.560000000000002L83.6,15.500000000000004L85.8,15.379999999999994L88,14.200000000000001L90.19999999999999,11.860000000000003L92.39999999999999,9.860000000000003L94.6,9.060000000000002L96.8,9.999999999999998L99,9.040000000000003L101.2,9.040000000000003L103.39999999999999,9.040000000000003L105.6,9.040000000000003L107.8,9.040000000000003L110,9.040000000000003L112.2,9.040000000000003L114.4,9.040000000000003L116.60000000000001,9.060000000000002L118.80000000000001,9.040000000000003L121.00000000000001,9.060000000000002L123.20000000000002,9.040000000000003L125.39999999999999,9.040000000000003L127.6,9.040000000000003L129.79999999999998,9.040000000000003L132,9.040000000000003L134.2,9.040000000000003L136.4,9.040000000000003L138.6,11.319999999999997L140.8,12.159999999999993L143,10.640000000000004L145.20000000000002,10.519999999999996L147.4,11.319999999999997L149.60000000000002,10.58L151.79999999999998,11.180000000000001L154,11.620000000000008L156.2,10.7L158.4,11.420000000000009L160.6,9.860000000000003L162.8,9.98L165,10.660000000000004L167.2,11.060000000000002L169.4,10.099999999999998L171.6,9.58L173.8,9.98L176,10.959999999999992L178.20000000000002,18.599999999999994L180.39999999999998,18.700000000000006L182.6,19.199999999999996L184.79999999999998,17.62L187,17.520000000000003L189.2,18.36L191.4,18.399999999999995L193.6,17.680000000000007L195.8,50L198,50L200.20000000000002,50L202.4,50L204.60000000000002,50L206.79999999999998,50L209,50" stroke="#4c78a8" stroke-width="2"></path></g></g><path class="foreground" aria-hidden="true" d="" display="none"></path></g></g><g class="mark-group role-title"><g transform="translate(110,-20)"><path class="background" aria-hidden="true" d="M0,0h0v0h0Z" pointer-events="none"></path><g><g class="mark-text role-title-text" role="graphics-symbol" aria-roledescription="title" aria-label="Title text '20'" pointer-events="none"><text text-anchor="middle" transform="translate(0,8)" font-family="sans-serif" font-size="10px" fill="#000" opacity="1">20</text></g></g><path class="foreground" aria-hidden="true" d="" pointer-events="none" display="none"></path></g></g></g><path class="foreground" aria-hidden="true" d="" display="none"></path></g></g><g class="mark-group role-legend" role="graphics-symbol" aria-roledescription="legend" aria-label="Symbol legend titled 'Update Rule' for stroke color with 4 values: Bayes, Good, Popper, Schupbach"><g transform="translate(483,0)"><path class="background" aria-hidden="true" d="M0,0h69v66h-69Z" pointer-events="none"></path><g><g class="mark-group role-legend-entry"><g transform="translate(0,16)"><path class="background" aria-hidden="true" d="M0,0h0v0h0Z" pointer-events="none"></path><g><g class="mark-group role-scope" role="graphics-object" aria-roledescription="group mark container"><g transform="translate(0,0)"><path class="background" aria-hidden="true" d="M0,0h69v11h-69Z" pointer-events="none" opacity="1"></path><g><g class="mark-symbol role-legend-symbol" pointer-events="none"><path transform="translate(6,6)" d="M-5,0L5,0" stroke="#4c78a8" stroke-width="1.5" opacity="1"></path></g><g class="mark-text role-legend-label" pointer-events="none"><text text-anchor="start" transform="translate(16,9)" font-family="sans-serif" font-size="10px" fill="#000" opacity="1">Bayes</text></g></g><path class="foreground" aria-hidden="true" d="" pointer-events="none" display="none"></path></g><g transform="translate(0,13)"><path class="background" aria-hidden="true" d="M0,0h69v11h-69Z" pointer-events="none" opacity="1"></path><g><g class="mark-symbol role-legend-symbol" pointer-events="none"><path transform="translate(6,6)" d="M-5,0L5,0" stroke="#f58518" stroke-width="1.5" opacity="1"></path></g><g class="mark-text role-legend-label" pointer-events="none"><text text-anchor="start" transform="translate(16,9)" font-family="sans-serif" font-size="10px" fill="#000" opacity="1">Good</text></g></g><path class="foreground" aria-hidden="true" d="" pointer-events="none" display="none"></path></g><g transform="translate(0,26)"><path class="background" aria-hidden="true" d="M0,0h69v11h-69Z" pointer-events="none" opacity="1"></path><g><g class="mark-symbol role-legend-symbol" pointer-events="none"><path transform="translate(6,6)" d="M-5,0L5,0" stroke="#e45756" stroke-width="1.5" opacity="1"></path></g><g class="mark-text role-legend-label" pointer-events="none"><text text-anchor="start" transform="translate(16,9)" font-family="sans-serif" font-size="10px" fill="#000" opacity="1">Popper</text></g></g><path class="foreground" aria-hidden="true" d="" pointer-events="none" display="none"></path></g><g transform="translate(0,39)"><path class="background" aria-hidden="true" d="M0,0h69v11h-69Z" pointer-events="none" opacity="1"></path><g><g class="mark-symbol role-legend-symbol" pointer-events="none"><path transform="translate(6,6)" d="M-5,0L5,0" stroke="#72b7b2" stroke-width="1.5" opacity="1"></path></g><g class="mark-text role-legend-label" pointer-events="none"><text text-anchor="start" transform="translate(16,9)" font-family="sans-serif" font-size="10px" fill="#000" opacity="1">Schupbach</text></g></g><path class="foreground" aria-hidden="true" d="" pointer-events="none" display="none"></path></g></g></g><path class="foreground" aria-hidden="true" d="" pointer-events="none" display="none"></path></g></g><g class="mark-text role-legend-title" pointer-events="none"><text text-anchor="start" transform="translate(0,9)" font-family="sans-serif" font-size="11px" font-weight="bold" fill="#000" opacity="1">Update Rule</text></g></g><path class="foreground" aria-hidden="true" d="" pointer-events="none" display="none"></path></g></g><g class="mark-group role-title"><g transform="translate(-43.00000000000001,-59)"><path class="background" aria-hidden="true" d="M0,0h0v0h0Z" pointer-events="none"></path><g><g class="mark-text role-title-text" role="graphics-symbol" aria-roledescription="title" aria-label="Title text 'Average Reward vs. Belief Threshold by Update Rule '" pointer-events="none"><text text-anchor="start" transform="translate(0,10)" font-family="sans-serif" font-size="13px" font-weight="bold" fill="#000" opacity="1">Average Reward vs. Belief Threshold by Update Rule</text></g></g><path class="foreground" aria-hidden="true" d="" pointer-events="none" display="none"></path></g></g></g><path class="foreground" aria-hidden="true" d="" display="none"></path></g></g></g></svg>
