<?xml version="1.0" encoding="utf-8"?>
<!DOCTYPE svg PUBLIC "-//W3C//DTD SVG 1.1//EN" "http://www.w3.org/Graphics/SVG/1.1/DTD/svg11.dtd">
<svg class="marks" width="606" height="344" viewBox="0 0 606 344" version="1.1" xmlns="http://www.w3.org/2000/svg" xmlns:xlink="http://www.w3.org/1999/xlink"><rect width="606" height="344" fill="white"></rect><g fill="none" stroke-miterlimit="10" transform="translate(49,64)"><g class="mark-group role-frame root" role="graphics-object" aria-roledescription="group mark container"><g transform="translate(0,0)"><path class="background" aria-hidden="true" d="M0,0h0v0h0Z"></path><g><g class="mark-group role-column-title facet-title" role="graphics-object" aria-roledescription="group mark container"><g transform="translate(231,-21)"><path class="background" aria-hidden="true" d="M0,0h0v0h0Z"></path><g><g class="mark-group role-title"><g transform="translate(0,-21)"><path class="background" aria-hidden="true" d="M0,0h0v0h0Z" pointer-events="none"></path><g><g class="mark-text role-title-text" role="graphics-symbol" aria-roledescription="title" aria-label="Title text 'Number of Draws from Urn'" pointer-events="none"><text text-anchor="middle" transform="translate(0,9)" font-family="sans-serif" font-size="11px" font-weight="bold" fill="#000" opacity="1">Number of Draws from Urn</text></g></g><path class="foreground" aria-hidden="true" d="" pointer-events="none" display="none"></path></g></g></g><path class="foreground" aria-hidden="true" d="" display="none"></path></g></g><g class="mark-group role-row-header row_header" role="graphics-object" aria-roledescription="group mark container"><g transform="translate(-3,0)"><path class="background" aria-hidden="true" d="M0,0h0v100h0Z"></path><g><g class="mark-group role-axis" role="graphics-symbol" aria-roledescription="axis" aria-label="Y-axis titled 'Mean Reward (n=10,000)' for a linear scale with values from -0.3 to 0.3"><g transform="translate(0.5,0.5)"><path class="background" aria-hidden="true" d="M0,0h0v0h0Z" pointer-events="none"></path><g><g class="mark-rule role-axis-tick" pointer-events="none"><line transform="translate(0,90)" x2="-5" y2="0" stroke="#888" stroke-width="1" opacity="1"></line><line transform="translate(0,50)" x2="-5" y2="0" stroke="#888" stroke-width="1" opacity="1"></line><line transform="translate(0,10)" x2="-5" y2="0" stroke="#888" stroke-width="1" opacity="1"></line></g><g class="mark-text role-axis-label" pointer-events="none"><text text-anchor="end" transform="translate(-7,93)" font-family="sans-serif" font-size="10px" fill="#000" opacity="1">-0.2</text><text text-anchor="end" transform="translate(-7,53)" font-family="sans-serif" font-size="10px" fill="#000" opacity="1">0.0</text><text text-anchor="end" transform="translate(-7,12.999999999999998)" font-family="sans-serif" font-size="10px" fill="#000" opacity="1">0.2</text></g><g class="mark-rule role-axis-domain" pointer-events="none"><line transform="translate(0,100)" x2="0" y2="-100" stroke="#888" stroke-width="1" opacity="1"></line></g><g class="mark-text role-axis-title" pointer-events="none"><text text-anchor="middle" transform="translate(-29,50) rotate(-90) translate(0,-2)" font-family="sans-serif" font-size="11px" font-weight="bold" fill="#000" opacity="1">Mean Reward (n=10,000)</text></g></g><path class="foreground" aria-hidden="true" d="" pointer-events="none" display="none"></path></g></g></g><path class="foreground" aria-hidden="true" d="" display="none"></path></g><g transform="translate(-3,142)"><path class="background" aria-hidden="true" d="M0,0h0v100h0Z"></path><g><g class="mark-group role-axis" role="graphics-symbol" aria-roledescription="axis" aria-label="Y-axis titled 'Mean Reward (n=10,000)' for a linear scale with values from -0.3 to 0.3"><g transform="translate(0.5,0.5)"><path class="background" aria-hidden="true" d="M0,0h0v0h0Z" pointer-events="none"></path><g><g class="mark-rule role-axis-tick" pointer-events="none"><line transform="translate(0,90)" x2="-5" y2="0" stroke="#888" stroke-width="1" opacity="1"></line><line transform="translate(0,50)" x2="-5" y2="0" stroke="#888" stroke-width="1" opacity="1"></line><line transform="translate(0,10)" x2="-5" y2="0" stroke="#888" stroke-width="1" opacity="1"></line></g><g class="mark-text role-axis-label" pointer-events="none"><text text-anchor="end" transform="translate(-7,93)" font-family="sans-serif" font-size="10px" fill="#000" opacity="1">-0.2</text><text text-anchor="end" transform="translate(-7,53)" font-family="sans-serif" font-size="10px" fill="#000" opacity="1">0.0</text><text text-anchor="end" transform="translate(-7,12.999999999999998)" font-family="sans-serif" font-size="10px" fill="#000" opacity="1">0.2</text></g><g class="mark-rule role-axis-domain" pointer-events="none"><line transform="translate(0,100)" x2="0" y2="-100" stroke="#888" stroke-width="1" opacity="1"></line></g><g class="mark-text role-axis-title" pointer-events="none"><text text-anchor="middle" transform="translate(-29,50) rotate(-90) translate(0,-2)" font-family="sans-serif" font-size="11px" font-weight="bold" fill="#000" opacity="1">Mean Reward (n=10,000)</text></g></g><path class="foreground" aria-hidden="true" d="" pointer-events="none" display="none"></path></g></g></g><path class="foreground" aria-hidden="true" d="" display="none"></path></g></g><g class="mark-group role-column-footer column_footer" role="graphics-object" aria-roledescription="group mark container"><g transform="translate(0,243)"><path class="background" aria-hidden="true" d="M0,0h220v0h-220Z"></path><g><g class="mark-group role-axis" role="graphics-symbol" aria-roledescription="axis" aria-label="X-axis titled 'Belief Threshold' for a linear scale with values from 0.0 to 1.0"><g transform="translate(0.5,0.5)"><path class="background" aria-hidden="true" d="M0,0h0v0h0Z" pointer-events="none"></path><g><g class="mark-rule role-axis-tick" pointer-events="none"><line transform="translate(0,0)" x2="0" y2="5" stroke="#888" stroke-width="1" opacity="1"></line><line transform="translate(44,0)" x2="0" y2="5" stroke="#888" stroke-width="1" opacity="1"></line><line transform="translate(88,0)" x2="0" y2="5" stroke="#888" stroke-width="1" opacity="1"></line><line transform="translate(132,0)" x2="0" y2="5" stroke="#888" stroke-width="1" opacity="1"></line><line transform="translate(176,0)" x2="0" y2="5" stroke="#888" stroke-width="1" opacity="1"></line><line transform="translate(220,0)" x2="0" y2="5" stroke="#888" stroke-width="1" opacity="1"></line></g><g class="mark-text role-axis-label" pointer-events="none"><text text-anchor="start" transform="translate(0,15)" font-family="sans-serif" font-size="10px" fill="#000" opacity="1">0.0</text><text text-anchor="middle" transform="translate(44,15)" font-family="sans-serif" font-size="10px" fill="#000" opacity="1">0.2</text><text text-anchor="middle" transform="translate(88,15)" font-family="sans-serif" font-size="10px" fill="#000" opacity="1">0.4</text><text text-anchor="middle" transform="translate(132,15)" font-family="sans-serif" font-size="10px" fill="#000" opacity="1">0.6</text><text text-anchor="middle" transform="translate(176,15)" font-family="sans-serif" font-size="10px" fill="#000" opacity="1">0.8</text><text text-anchor="end" transform="translate(220,15)" font-family="sans-serif" font-size="10px" fill="#000" opacity="1">1.0</text></g><g class="mark-rule role-axis-domain" pointer-events="none"><line transform="translate(0,0)" x2="220" y2="0" stroke="#888" stroke-width="1" opacity="1"></line></g><g class="mark-text role-axis-title" pointer-events="none"><text text-anchor="middle" transform="translate(110,30)" font-family="sans-serif" font-size="11px" font-weight="bold" fill="#000" opacity="1">Belief Threshold</text></g></g><path class="foreground" aria-hidden="true" d="" pointer-events="none" display="none"></path></g></g></g><path class="foreground" aria-hidden="true" d="" display="none"></path></g><g transform="translate(244,243)"><path class="background" aria-hidden="true" d="M0,0h220v0h-220Z"></path><g><g class="mark-group role-axis" role="graphics-symbol" aria-roledescription="axis" aria-label="X-axis titled 'Belief Threshold' for a linear scale with values from 0.0 to 1.0"><g transform="translate(0.5,0.5)"><path class="background" aria-hidden="true" d="M0,0h0v0h0Z" pointer-events="none"></path><g><g class="mark-rule role-axis-tick" pointer-events="none"><line transform="translate(0,0)" x2="0" y2="5" stroke="#888" stroke-width="1" opacity="1"></line><line transform="translate(44,0)" x2="0" y2="5" stroke="#888" stroke-width="1" opacity="1"></line><line transform="translate(88,0)" x2="0" y2="5" stroke="#888" stroke-width="1" opacity="1"></line><line transform="translate(132,0)" x2="0" y2="5" stroke="#888" stroke-width="1" opacity="1"></line><line transform="translate(176,0)" x2="0" y2="5" stroke="#888" stroke-width="1" opacity="1"></line><line transform="translate(220,0)" x2="0" y2="5" stroke="#888" stroke-width="1" opacity="1"></line></g><g class="mark-text role-axis-label" pointer-events="none"><text text-anchor="start" transform="translate(0,15)" font-family="sans-serif" font-size="10px" fill="#000" opacity="1">0.0</text><text text-anchor="middle" transform="translate(44,15)" font-family="sans-serif" font-size="10px" fill="#000" opacity="1">0.2</text><text text-anchor="middle" transform="translate(88,15)" font-family="sans-serif" font-size="10px" fill="#000" opacity="1">0.4</text><text text-anchor="middle" transform="translate(132,15)" font-family="sans-serif" font-size="10px" fill="#000" opacity="1">0.6</text><text text-anchor="middle" transform="translate(176,15)" font-family="sans-serif" font-size="10px" fill="#000" opacity="1">0.8</text><text text-anchor="end" transform="translate(220,15)" font-family="sans-serif" font-size="10px" fill="#000" opacity="1">1.0</text></g><g class="mark-rule role-axis-domain" pointer-events="none"><line transform="translate(0,0)" x2="220" y2="0" stroke="#888" stroke-width="1" opacity="1"></line></g><g class="mark-text role-axis-title" pointer-events="none"><text text-anchor="middle" transform="translate(110,30)" font-family="sans-serif" font-size="11px" font-weight="bold" fill="#000" opacity="1">Belief Threshold</text></g></g><path class="foreground" aria-hidden="true" d="" pointer-events="none" display="none"></path></g></g></g><path class="foreground" aria-hidden="true" d="" display="none"></path></g></g><g class="mark-group role-scope cell" role="graphics-object" aria-roledescription="group mark container"><g transform="translate(0,0)"><path class="background" aria-hidden="true" d="M0.5,0.5h220v100h-220Z" stroke="#ddd"></path><g><g class="mark-group role-axis" aria-hidden="true"><g transform="translate(0.5,100.5)"><path class="background" aria-hidden="true" d="M0,0h0v0h0Z" pointer-events="none"></path><g><g class="mark-rule role-axis-grid" pointer-events="none"><line transform="translate(0,-100)" x2="0" y2="100" stroke="#ddd" stroke-width="1" opacity="1"></line><line transform="translate(44,-100)" x2="0" y2="100" stroke="#ddd" stroke-width="1" opacity="1"></line><line transform="translate(88,-100)" x2="0" y2="100" stroke="#ddd" stroke-width="1" opacity="1"></line><line transform="translate(132,-100)" x2="0" y2="100" stroke="#ddd" stroke-width="1" opacity="1"></line><line transform="translate(176,-100)" x2="0" y2="100" stroke="#ddd" stroke-width="1" opacity="1"></line><line transform="translate(220,-100)" x2="0" y2="100" stroke="#ddd" stroke-width="1" opacity="1"></line></g></g><path class="foreground" aria-hidden="true" d="" pointer-events="none" display="none"></path></g></g><g class="mark-group role-axis" aria-hidden="true"><g transform="translate(0.5,0.5)"><path class="background" aria-hidden="true" d="M0,0h0v0h0Z" pointer-events="none"></path><g><g class="mark-rule role-axis-grid" pointer-events="none"><line transform="translate(0,90)" x2="220" y2="0" stroke="#ddd" stroke-width="1" opacity="1"></line><line transform="translate(0,50)" x2="220" y2="0" stroke="#ddd" stroke-width="1" opacity="1"></line><line transform="translate(0,10)" x2="220" y2="0" stroke="#ddd" stroke-width="1" opacity="1"></line></g></g><path class="foreground" aria-hidden="true" d="" pointer-events="none" display="none"></path></g></g><g class="mark-group role-scope child_pathgroup" role="graphics-object" aria-roledescription="group mark container"><g transform="translate(0,0)"><path class="background" aria-hidden="true" d="M0,0h220v100h-220Z"></path><g><g class="mark-line role-mark child_marks" role="graphics-object" aria-roledescription="line mark container"><path aria-label="Belief Threshold: 0; Mean Reward (n=10,000): -0.2048; Update Rule: Schupbach" role="graphics-symbol" aria-roledescription="line mark" d="M0,90.96L2.2,90.9L4.4,90.94L6.6,90.96L8.8,90.92L11,90.96L13.2,90.96L15.400000000000002,90.92L17.6,90.94L19.8,90.92L22,90.94L24.2,90.96L26.4,90.94L28.6,90.94L30.800000000000004,90.96L33,90.96L35.2,90.9L37.400000000000006,90.96L39.6,90.96L41.8,90.96L44,90.96L46.199999999999996,90.96L48.4,90.94L50.6,90.96L52.8,90.96L55,90.94L57.2,90.96L59.400000000000006,85.64L61.60000000000001,86.06L63.8,85.26L66,87.7L68.2,87.32L70.4,58.08L72.60000000000001,56.89999999999999L74.80000000000001,56.74L77,58.519999999999996L79.2,57.06L81.4,57.71999999999999L83.6,57.02L85.8,56.60000000000001L88,58.599999999999994L90.19999999999999,58.160000000000004L92.39999999999999,59.5L94.6,56.96L96.8,59.24L99,55.800000000000004L101.2,56.42L103.39999999999999,59.260000000000005L105.6,56.800000000000004L107.8,55.92L110,56.11999999999999L112.2,57.64L114.4,59.46L116.60000000000001,59.48L118.80000000000001,58.84L121.00000000000001,59.040000000000006L123.20000000000002,57.34L125.39999999999999,57.08L127.6,58.040000000000006L129.79999999999998,57.48L132,57.56L134.2,50L136.4,50L138.6,50L140.8,50L143,50L145.20000000000002,50L147.4,50L149.60000000000002,50L151.79999999999998,50L154,50L156.2,50L158.4,50L160.6,50L162.8,50L165,50L167.2,50L169.4,50L171.6,50L173.8,50L176,50L178.20000000000002,50L180.39999999999998,50L182.6,50L184.79999999999998,50L187,50L189.2,50L191.4,50L193.6,50L195.8,50L198,50L200.20000000000002,50L202.4,50L204.60000000000002,50L206.79999999999998,50L209,50" stroke="#72b7b2" stroke-width="2"></path></g></g><path class="foreground" aria-hidden="true" d="" display="none"></path></g><g transform="translate(0,0)"><path class="background" aria-hidden="true" d="M0,0h220v100h-220Z"></path><g><g class="mark-line role-mark child_marks" role="graphics-object" aria-roledescription="line mark container"><path aria-label="Belief Threshold: 0; Mean Reward (n=10,000): -0.2047; Update Rule: Good" role="graphics-symbol" aria-roledescription="line mark" d="M0,90.94L2.2,90.94L4.4,90.96L6.6,90.94L8.8,90.92L11,90.96L13.2,90.96L15.400000000000002,90.96L17.6,90.96L19.8,90.96L22,90.96L24.2,90.94L26.4,90.96L28.6,90.96L30.800000000000004,90.94L33,90.96L35.2,90.94L37.400000000000006,90.96L39.6,90.96L41.8,90.96L44,90.94L46.199999999999996,89.42L48.4,85.22000000000001L50.6,87.26L52.8,86.32L55,88.17999999999999L57.2,56.44L59.400000000000006,55.46L61.60000000000001,57.919999999999995L63.8,57.18L66,59.38L68.2,56.36L70.4,57.440000000000005L72.60000000000001,58.11999999999999L74.80000000000001,57.86L77,57.440000000000005L79.2,59.38L81.4,57.379999999999995L83.6,56.86L85.8,58.00000000000001L88,57.379999999999995L90.19999999999999,57.76L92.39999999999999,57.54L94.6,56.56L96.8,56.64L99,57.64L101.2,50L103.39999999999999,50L105.6,50L107.8,50L110,50L112.2,50L114.4,50L116.60000000000001,50L118.80000000000001,50L121.00000000000001,50L123.20000000000002,50L125.39999999999999,50L127.6,50L129.79999999999998,50L132,50L134.2,50L136.4,50L138.6,50L140.8,50L143,50L145.20000000000002,50L147.4,50L149.60000000000002,50L151.79999999999998,50L154,50L156.2,50L158.4,50L160.6,50L162.8,50L165,50L167.2,50L169.4,50L171.6,50L173.8,50L176,50L178.20000000000002,50L180.39999999999998,50L182.6,50L184.79999999999998,50L187,50L189.2,50L191.4,50L193.6,50L195.8,50L198,50L200.20000000000002,50L202.4,50L204.60000000000002,50L206.79999999999998,50L209,50" stroke="#f58518" stroke-width="2"></path></g></g><path class="foreground" aria-hidden="true" d="" display="none"></path></g><g transform="translate(0,0)"><path class="background" aria-hidden="true" d="M0,0h220v100h-220Z"></path><g><g class="mark-line role-mark child_marks" role="graphics-object" aria-roledescription="line mark container"><path aria-label="Belief Threshold: 0; Mean Reward (n=10,000): -0.2047; Update Rule: Popper" role="graphics-symbol" aria-roledescription="line mark" d="M0,90.94L2.2,90.96L4.4,90.92L6.6,90.94L8.8,90.9L11,90.94L13.2,90.96L15.400000000000002,90.92L17.6,90.96L19.8,90.94L22,90.96L24.2,90.96L26.4,90.96L28.6,90.96L30.800000000000004,90.94L33,90.96L35.2,90.92L37.400000000000006,90.82000000000001L39.6,90.96L41.8,90.86000000000001L44,90.96L46.199999999999996,86.53999999999999L48.4,88.92L50.6,89.34L52.8,84.1L55,86.08L57.2,58.20000000000001L59.400000000000006,54.699999999999996L61.60000000000001,57.879999999999995L63.8,58.919999999999995L66,57.96L68.2,59.08L70.4,56.84L72.60000000000001,57.71999999999999L74.80000000000001,57.18L77,56.14L79.2,60.64000000000001L81.4,59.13999999999999L83.6,58.08L85.8,55.48L88,58.48L90.19999999999999,56.48L92.39999999999999,58.58L94.6,57.82000000000001L96.8,57.099999999999994L99,56.66L101.2,50L103.39999999999999,50L105.6,50L107.8,50L110,50L112.2,50L114.4,50L116.60000000000001,50L118.80000000000001,50L121.00000000000001,50L123.20000000000002,50L125.39999999999999,50L127.6,50L129.79999999999998,50L132,50L134.2,50L136.4,50L138.6,50L140.8,50L143,50L145.20000000000002,50L147.4,50L149.60000000000002,50L151.79999999999998,50L154,50L156.2,50L158.4,50L160.6,50L162.8,50L165,50L167.2,50L169.4,50L171.6,50L173.8,50L176,50L178.20000000000002,50L180.39999999999998,50L182.6,50L184.79999999999998,50L187,50L189.2,50L191.4,50L193.6,50L195.8,50L198,50L200.20000000000002,50L202.4,50L204.60000000000002,50L206.79999999999998,50L209,50" stroke="#e45756" stroke-width="2"></path></g></g><path class="foreground" aria-hidden="true" d="" display="none"></path></g><g transform="translate(0,0)"><path class="background" aria-hidden="true" d="M0,0h220v100h-220Z"></path><g><g class="mark-line role-mark child_marks" role="graphics-object" aria-roledescription="line mark container"><path aria-label="Belief Threshold: 0; Mean Reward (n=10,000): -0.2047; Update Rule: Bayes" role="graphics-symbol" aria-roledescription="line mark" d="M0,90.94L2.2,90.96L4.4,90.96L6.6,90.94L8.8,90.9L11,90.94L13.2,90.96L15.400000000000002,90.96L17.6,90.94L19.8,90.96L22,90.96L24.2,90.96L26.4,90.94L28.6,90.86000000000001L30.800000000000004,90.96L33,90.94L35.2,90.94L37.400000000000006,90.96L39.6,90.96L41.8,90.96L44,90.96L46.199999999999996,87.96L48.4,85.8L50.6,86.26L52.8,88.42L55,86L57.2,58.46L59.400000000000006,57.42L61.60000000000001,56.76L63.8,59.64L66,57.74L68.2,57.96L70.4,59.5L72.60000000000001,57.96L74.80000000000001,59.58L77,57.48L79.2,56.89999999999999L81.4,57.46L83.6,58.099999999999994L85.8,58.08L88,58.620000000000005L90.19999999999999,58.3L92.39999999999999,58.00000000000001L94.6,57.879999999999995L96.8,56.76L99,55.89999999999999L101.2,50L103.39999999999999,50L105.6,50L107.8,50L110,50L112.2,50L114.4,50L116.60000000000001,50L118.80000000000001,50L121.00000000000001,50L123.20000000000002,50L125.39999999999999,50L127.6,50L129.79999999999998,50L132,50L134.2,50L136.4,50L138.6,50L140.8,50L143,50L145.20000000000002,50L147.4,50L149.60000000000002,50L151.79999999999998,50L154,50L156.2,50L158.4,50L160.6,50L162.8,50L165,50L167.2,50L169.4,50L171.6,50L173.8,50L176,50L178.20000000000002,50L180.39999999999998,50L182.6,50L184.79999999999998,50L187,50L189.2,50L191.4,50L193.6,50L195.8,50L198,50L200.20000000000002,50L202.4,50L204.60000000000002,50L206.79999999999998,50L209,50" stroke="#4c78a8" stroke-width="2"></path></g></g><path class="foreground" aria-hidden="true" d="" display="none"></path></g></g><g class="mark-group role-title"><g transform="translate(110,-20)"><path class="background" aria-hidden="true" d="M0,0h0v0h0Z" pointer-events="none"></path><g><g class="mark-text role-title-text" role="graphics-symbol" aria-roledescription="title" aria-label="Title text '5'" pointer-events="none"><text text-anchor="middle" transform="translate(0,8)" font-family="sans-serif" font-size="10px" fill="#000" opacity="1">5</text></g></g><path class="foreground" aria-hidden="true" d="" pointer-events="none" display="none"></path></g></g></g><path class="foreground" aria-hidden="true" d="" display="none"></path></g><g transform="translate(244,0)"><path class="background" aria-hidden="true" d="M0.5,0.5h220v100h-220Z" stroke="#ddd"></path><g><g class="mark-group role-axis" aria-hidden="true"><g transform="translate(0.5,100.5)"><path class="background" aria-hidden="true" d="M0,0h0v0h0Z" pointer-events="none"></path><g><g class="mark-rule role-axis-grid" pointer-events="none"><line transform="translate(0,-100)" x2="0" y2="100" stroke="#ddd" stroke-width="1" opacity="1"></line><line transform="translate(44,-100)" x2="0" y2="100" stroke="#ddd" stroke-width="1" opacity="1"></line><line transform="translate(88,-100)" x2="0" y2="100" stroke="#ddd" stroke-width="1" opacity="1"></line><line transform="translate(132,-100)" x2="0" y2="100" stroke="#ddd" stroke-width="1" opacity="1"></line><line transform="translate(176,-100)" x2="0" y2="100" stroke="#ddd" stroke-width="1" opacity="1"></line><line transform="translate(220,-100)" x2="0" y2="100" stroke="#ddd" stroke-width="1" opacity="1"></line></g></g><path class="foreground" aria-hidden="true" d="" pointer-events="none" display="none"></path></g></g><g class="mark-group role-axis" aria-hidden="true"><g transform="translate(0.5,0.5)"><path class="background" aria-hidden="true" d="M0,0h0v0h0Z" pointer-events="none"></path><g><g class="mark-rule role-axis-grid" pointer-events="none"><line transform="translate(0,90)" x2="220" y2="0" stroke="#ddd" stroke-width="1" opacity="1"></line><line transform="translate(0,50)" x2="220" y2="0" stroke="#ddd" stroke-width="1" opacity="1"></line><line transform="translate(0,10)" x2="220" y2="0" stroke="#ddd" stroke-width="1" opacity="1"></line></g></g><path class="foreground" aria-hidden="true" d="" pointer-events="none" display="none"></path></g></g><g class="mark-group role-scope child_pathgroup" role="graphics-object" aria-roledescription="group mark container"><g transform="translate(0,0)"><path class="background" aria-hidden="true" d="M0,0h220v100h-220Z"></path><g><g class="mark-line role-mark child_marks" role="graphics-object" aria-roledescription="line mark container"><path aria-label="Belief Threshold: 0; Mean Reward (n=10,000): -0.1707; Update Rule: Schupbach" role="graphics-symbol" aria-roledescription="line mark" d="M0,84.13999999999999L2.2,81.60000000000001L4.4,82.69999999999999L6.6,82.2L8.8,80.80000000000001L11,82L13.2,81.52L15.400000000000002,80.72L17.6,82.28L19.8,77.7L22,80.44L24.2,78.76L26.4,81.24L28.6,80.72L30.800000000000004,79.5L33,76.96000000000001L35.2,83.76L37.400000000000006,81.89999999999999L39.6,76.8L41.8,82.64L44,79.75999999999999L46.199999999999996,81.67999999999999L48.4,79.52L50.6,77.4L52.8,79.12L55,77.5L57.2,83.60000000000001L59.400000000000006,80.52L61.60000000000001,79.02L63.8,78.14L66,81.4L68.2,79.52L70.4,82.69999999999999L72.60000000000001,80.28L74.80000000000001,81.32L77,83.28L79.2,70.96000000000001L81.4,56.66L83.6,56.71999999999999L85.8,42.24L88,47.8L90.19999999999999,43.879999999999995L92.39999999999999,48.260000000000005L94.6,45.14L96.8,33.379999999999995L99,33.599999999999994L101.2,32.9L103.39999999999999,35.94L105.6,32.519999999999996L107.8,31.42L110,33.82000000000001L112.2,34L114.4,33.199999999999996L116.60000000000001,34.46L118.80000000000001,33.86L121.00000000000001,33.379999999999995L123.20000000000002,31.820000000000004L125.39999999999999,34.34L127.6,34.24L129.79999999999998,34.38L132,32.76L134.2,30.879999999999995L136.4,32.099999999999994L138.6,30.42L140.8,31.620000000000005L143,31.16L145.20000000000002,31.020000000000003L147.4,30.659999999999997L149.60000000000002,32.9L151.79999999999998,32.66L154,30.64L156.2,32.02L158.4,34.14L160.6,31.620000000000005L162.8,31.400000000000006L165,31.299999999999994L167.2,31.979999999999997L169.4,32.60000000000001L171.6,32.76L173.8,31.400000000000006L176,32.66L178.20000000000002,29.74L180.39999999999998,32.99999999999999L182.6,31.520000000000003L184.79999999999998,50L187,50L189.2,50L191.4,50L193.6,50L195.8,50L198,50L200.20000000000002,50L202.4,50L204.60000000000002,50L206.79999999999998,50L209,50" stroke="#72b7b2" stroke-width="2"></path></g></g><path class="foreground" aria-hidden="true" d="" display="none"></path></g><g transform="translate(0,0)"><path class="background" aria-hidden="true" d="M0,0h220v100h-220Z"></path><g><g class="mark-line role-mark child_marks" role="graphics-object" aria-roledescription="line mark container"><path aria-label="Belief Threshold: 0; Mean Reward (n=10,000): -0.1497; Update Rule: Good" role="graphics-symbol" aria-roledescription="line mark" d="M0,79.94L2.2,80.16L4.4,79.64L6.6,79.2L8.8,83.08L11,80.02L13.2,78.72L15.400000000000002,80.12L17.6,85L19.8,80L22,78.96000000000001L24.2,83.32L26.4,84.96000000000001L28.6,81.76L30.800000000000004,82.91999999999999L33,82.76L35.2,74.32L37.400000000000006,78.2L39.6,79.64L41.8,79.2L44,80.28L46.199999999999996,81.88L48.4,79L50.6,77.92L52.8,83.56L55,78L57.2,81.16L59.400000000000006,78.49999999999999L61.60000000000001,57.08L63.8,57.56L66,46.34L68.2,47L70.4,43.66L72.60000000000001,45.220000000000006L74.80000000000001,35.519999999999996L77,33.26L79.2,35.12L81.4,33.660000000000004L83.6,31.42L85.8,33.24L88,31.299999999999994L90.19999999999999,36.22L92.39999999999999,36L94.6,34.84L96.8,33.26L99,32.78L101.2,34.3L103.39999999999999,31.46L105.6,31.899999999999995L107.8,32.120000000000005L110,31.04L112.2,32.379999999999995L114.4,31.66L116.60000000000001,30.759999999999998L118.80000000000001,31.64L121.00000000000001,32.9L123.20000000000002,30.200000000000003L125.39999999999999,32.06L127.6,30.720000000000002L129.79999999999998,32.49999999999999L132,32.14L134.2,30.34L136.4,31.299999999999994L138.6,31.379999999999995L140.8,31.34L143,30.679999999999996L145.20000000000002,32.379999999999995L147.4,31.499999999999993L149.60000000000002,50L151.79999999999998,50L154,50L156.2,50L158.4,50L160.6,50L162.8,50L165,50L167.2,50L169.4,50L171.6,50L173.8,50L176,50L178.20000000000002,50L180.39999999999998,50L182.6,50L184.79999999999998,50L187,50L189.2,50L191.4,50L193.6,50L195.8,50L198,50L200.20000000000002,50L202.4,50L204.60000000000002,50L206.79999999999998,50L209,50" stroke="#f58518" stroke-width="2"></path></g></g><path class="foreground" aria-hidden="true" d="" display="none"></path></g><g transform="translate(0,0)"><path class="background" aria-hidden="true" d="M0,0h220v100h-220Z"></path><g><g class="mark-line role-mark child_marks" role="graphics-object" aria-roledescription="line mark container"><path aria-label="Belief Threshold: 0; Mean Reward (n=10,000): -0.1758; Update Rule: Popper" role="graphics-symbol" aria-roledescription="line mark" d="M0,85.16L2.2,79.96L4.4,82.56L6.6,80.52L8.8,77.5L11,80.08L13.2,80.24L15.400000000000002,81.2L17.6,84.08L19.8,80.76L22,83.72L24.2,79.12L26.4,80.72L28.6,80.67999999999999L30.800000000000004,78.08L33,80.60000000000001L35.2,78.67999999999999L37.400000000000006,84.22L39.6,79.38000000000001L41.8,78.88L44,81.2L46.199999999999996,82.34L48.4,80L50.6,79.84L52.8,80.52L55,77.08L57.2,82.72L59.400000000000006,78.36000000000001L61.60000000000001,58.24L63.8,55.559999999999995L66,45.099999999999994L68.2,45.08L70.4,47.46L72.60000000000001,46.440000000000005L74.80000000000001,33.42L77,33.74L79.2,32.34L81.4,34.540000000000006L83.6,32.34L85.8,31.34L88,32.58L90.19999999999999,34.260000000000005L92.39999999999999,31.920000000000005L94.6,31.540000000000003L96.8,34.78L99,32.86L101.2,35.08L103.39999999999999,30.979999999999997L105.6,34.34L107.8,31.899999999999995L110,30.099999999999994L112.2,33.540000000000006L114.4,30.44L116.60000000000001,31.479999999999997L118.80000000000001,31.16L121.00000000000001,31.979999999999997L123.20000000000002,30.620000000000005L125.39999999999999,32.86L127.6,30.34L129.79999999999998,30.56L132,33.160000000000004L134.2,31.400000000000006L136.4,31.04L138.6,29.86L140.8,32.68L143,31.259999999999998L145.20000000000002,32.46L147.4,31.520000000000003L149.60000000000002,50L151.79999999999998,50L154,50L156.2,50L158.4,50L160.6,50L162.8,50L165,50L167.2,50L169.4,50L171.6,50L173.8,50L176,50L178.20000000000002,50L180.39999999999998,50L182.6,50L184.79999999999998,50L187,50L189.2,50L191.4,50L193.6,50L195.8,50L198,50L200.20000000000002,50L202.4,50L204.60000000000002,50L206.79999999999998,50L209,50" stroke="#e45756" stroke-width="2"></path></g></g><path class="foreground" aria-hidden="true" d="" display="none"></path></g><g transform="translate(0,0)"><path class="background" aria-hidden="true" d="M0,0h220v100h-220Z"></path><g><g class="mark-line role-mark child_marks" role="graphics-object" aria-roledescription="line mark container"><path aria-label="Belief Threshold: 0; Mean Reward (n=10,000): -0.1398; Update Rule: Bayes" role="graphics-symbol" aria-roledescription="line mark" d="M0,77.96000000000001L2.2,79.60000000000001L4.4,78L6.6,80.88L8.8,80.56L11,80.89999999999999L13.2,80.64L15.400000000000002,79L17.6,77.56L19.8,78.06L22,78.49999999999999L24.2,78.28L26.4,77.52L28.6,86.8L30.800000000000004,81.16L33,78.08L35.2,77.27999999999999L37.400000000000006,79.80000000000001L39.6,76.88L41.8,81.46L44,78.12L46.199999999999996,82.88L48.4,76.32L50.6,79.94L52.8,80.72L55,82.88L57.2,80.24L59.400000000000006,80.16L61.60000000000001,56.96L63.8,62.64000000000001L66,45.58L68.2,44.54L70.4,46.81999999999999L72.60000000000001,44.24L74.80000000000001,33.699999999999996L77,34.12L79.2,31.479999999999997L81.4,35.78L83.6,33.56L85.8,33.540000000000006L88,36.22L90.19999999999999,32.49999999999999L92.39999999999999,33.46L94.6,32.84L96.8,34.919999999999995L99,34.46L101.2,34.36L103.39999999999999,32.00000000000001L105.6,32.26L107.8,30.279999999999994L110,31.600000000000005L112.2,30.92L114.4,32.56L116.60000000000001,32.49999999999999L118.80000000000001,31.379999999999995L121.00000000000001,31.64L123.20000000000002,29.14L125.39999999999999,30.959999999999997L127.6,32.84L129.79999999999998,31.679999999999996L132,31.379999999999995L134.2,31.920000000000005L136.4,31.299999999999994L138.6,32.06L140.8,30.740000000000002L143,30.36L145.20000000000002,31.479999999999997L147.4,31.36L149.60000000000002,50L151.79999999999998,50L154,50L156.2,50L158.4,50L160.6,50L162.8,50L165,50L167.2,50L169.4,50L171.6,50L173.8,50L176,50L178.20000000000002,50L180.39999999999998,50L182.6,50L184.79999999999998,50L187,50L189.2,50L191.4,50L193.6,50L195.8,50L198,50L200.20000000000002,50L202.4,50L204.60000000000002,50L206.79999999999998,50L209,50" stroke="#4c78a8" stroke-width="2"></path></g></g><path class="foreground" aria-hidden="true" d="" display="none"></path></g></g><g class="mark-group role-title"><g transform="translate(110,-20)"><path class="background" aria-hidden="true" d="M0,0h0v0h0Z" pointer-events="none"></path><g><g class="mark-text role-title-text" role="graphics-symbol" aria-roledescription="title" aria-label="Title text '10'" pointer-events="none"><text text-anchor="middle" transform="translate(0,8)" font-family="sans-serif" font-size="10px" fill="#000" opacity="1">10</text></g></g><path class="foreground" aria-hidden="true" d="" pointer-events="none" display="none"></path></g></g></g><path class="foreground" aria-hidden="true" d="" display="none"></path></g><g transform="translate(0,142)"><path class="background" aria-hidden="true" d="M0.5,0.5h220v100h-220Z" stroke="#ddd"></path><g><g class="mark-group role-axis" aria-hidden="true"><g transform="translate(0.5,100.5)"><path class="background" aria-hidden="true" d="M0,0h0v0h0Z" pointer-events="none"></path><g><g class="mark-rule role-axis-grid" pointer-events="none"><line transform="translate(0,-100)" x2="0" y2="100" stroke="#ddd" stroke-width="1" opacity="1"></line><line transform="translate(44,-100)" x2="0" y2="100" stroke="#ddd" stroke-width="1" opacity="1"></line><line transform="translate(88,-100)" x2="0" y2="100" stroke="#ddd" stroke-width="1" opacity="1"></line><line transform="translate(132,-100)" x2="0" y2="100" stroke="#ddd" stroke-width="1" opacity="1"></line><line transform="translate(176,-100)" x2="0" y2="100" stroke="#ddd" stroke-width="1" opacity="1"></line><line transform="translate(220,-100)" x2="0" y2="100" stroke="#ddd" stroke-width="1" opacity="1"></line></g></g><path class="foreground" aria-hidden="true" d="" pointer-events="none" display="none"></path></g></g><g class="mark-group role-axis" aria-hidden="true"><g transform="translate(0.5,0.5)"><path class="background" aria-hidden="true" d="M0,0h0v0h0Z" pointer-events="none"></path><g><g class="mark-rule role-axis-grid" pointer-events="none"><line transform="translate(0,90)" x2="220" y2="0" stroke="#ddd" stroke-width="1" opacity="1"></line><line transform="translate(0,50)" x2="220" y2="0" stroke="#ddd" stroke-width="1" opacity="1"></line><line transform="translate(0,10)" x2="220" y2="0" stroke="#ddd" stroke-width="1" opacity="1"></line></g></g><path class="foreground" aria-hidden="true" d="" pointer-events="none" display="none"></path></g></g><g class="mark-group role-scope child_pathgroup" role="graphics-object" aria-roledescription="group mark container"><g transform="translate(0,0)"><path class="background" aria-hidden="true" d="M0,0h220v100h-220Z"></path><g><g class="mark-line role-mark child_marks" role="graphics-object" aria-roledescription="line mark container"><path aria-label="Belief Threshold: 0; Mean Reward (n=10,000): -0.025; Update Rule: Schupbach" role="graphics-symbol" aria-roledescription="line mark" d="M0,55.00000000000001L2.2,53.6L4.4,55.00000000000001L6.6,53.6L8.8,54.32L11,54.800000000000004L13.2,53.72L15.400000000000002,53L17.6,52L19.8,54.36L22,56.36L24.2,55.720000000000006L26.4,57.28L28.6,56.800000000000004L30.800000000000004,51.760000000000005L33,52.6L35.2,53.800000000000004L37.400000000000006,55.44L39.6,54.400000000000006L41.8,52.400000000000006L44,54.48L46.199999999999996,55.60000000000001L48.4,52.6L50.6,55.559999999999995L52.8,53.44L55,50.879999999999995L57.2,56.68L59.400000000000006,51.279999999999994L61.60000000000001,55.84L63.8,55.00000000000001L66,54.800000000000004L68.2,54.04L70.4,52.839999999999996L72.60000000000001,54.08L74.80000000000001,57.440000000000005L77,56.879999999999995L79.2,56.32L81.4,53.800000000000004L83.6,54.32L85.8,56.32L88,51.67999999999999L90.19999999999999,48.18L92.39999999999999,48.86000000000001L94.6,39.5L96.8,37.6L99,30.579999999999995L101.2,23.099999999999998L103.39999999999999,23.340000000000003L105.6,24.960000000000004L107.8,21.279999999999998L110,23.4L112.2,25.419999999999998L114.4,23.960000000000004L116.60000000000001,22.7L118.80000000000001,16.460000000000008L121.00000000000001,15.280000000000005L123.20000000000002,15.060000000000006L125.39999999999999,15.999999999999993L127.6,15.280000000000005L129.79999999999998,16.379999999999995L132,14.779999999999994L134.2,15.200000000000003L136.4,16.939999999999998L138.6,14.939999999999998L140.8,16.080000000000005L143,15.559999999999995L145.20000000000002,15.460000000000008L147.4,15.579999999999995L149.60000000000002,16.720000000000002L151.79999999999998,19.619999999999994L154,17.179999999999996L156.2,16.779999999999994L158.4,16.959999999999997L160.6,17.300000000000004L162.8,16.12L165,16.579999999999995L167.2,16.660000000000007L169.4,16.520000000000003L171.6,14.82L173.8,16.660000000000007L176,16.199999999999992L178.20000000000002,14.900000000000002L180.39999999999998,14.92L182.6,15.039999999999997L184.79999999999998,16.959999999999997L187,22.099999999999998L189.2,20.14L191.4,24.419999999999998L193.6,19.819999999999993L195.8,23.68L198,23.520000000000007L200.20000000000002,23.120000000000008L202.4,22.46L204.60000000000002,21.639999999999993L206.79999999999998,50L209,50" stroke="#72b7b2" stroke-width="2"></path></g></g><path class="foreground" aria-hidden="true" d="" display="none"></path></g><g transform="translate(0,0)"><path class="background" aria-hidden="true" d="M0,0h220v100h-220Z"></path><g><g class="mark-line role-mark child_marks" role="graphics-object" aria-roledescription="line mark container"><path aria-label="Belief Threshold: 0; Mean Reward (n=10,000): -0.0282; Update Rule: Good" role="graphics-symbol" aria-roledescription="line mark" d="M0,55.64L2.2,58.68L4.4,54.559999999999995L6.6,54.32L8.8,56.96L11,52.44L13.2,54.48L15.400000000000002,54.2L17.6,56.279999999999994L19.8,54.16L22,50.03999999999999L24.2,55.04L26.4,53.36000000000001L28.6,56.24L30.800000000000004,51.6L33,52.96000000000001L35.2,55.36L37.400000000000006,53.64L39.6,53.04L41.8,51.47999999999999L44,54.76L46.199999999999996,55.32L48.4,55.48L50.6,56.60000000000001L52.8,52.47999999999999L55,56.68L57.2,55.84L59.400000000000006,55.32L61.60000000000001,52.64L63.8,52.160000000000004L66,53.32L68.2,54.36L70.4,46.019999999999996L72.60000000000001,40.26L74.80000000000001,31.179999999999996L77,25.739999999999995L79.2,22.76L81.4,25.659999999999993L83.6,25.459999999999994L85.8,21.500000000000007L88,21.060000000000002L90.19999999999999,16.74L92.39999999999999,19.679999999999996L94.6,19.619999999999994L96.8,15.200000000000003L99,15.559999999999995L101.2,14.200000000000001L103.39999999999999,17.740000000000002L105.6,13.460000000000004L107.8,16.02L110,16.74L112.2,14.639999999999997L114.4,16.300000000000004L116.60000000000001,17.740000000000002L118.80000000000001,18.100000000000005L121.00000000000001,17.459999999999997L123.20000000000002,17.14L125.39999999999999,15.639999999999999L127.6,16.02L129.79999999999998,16.880000000000006L132,16.359999999999996L134.2,16.480000000000004L136.4,14.42L138.6,17.14L140.8,15.120000000000001L143,16.06000000000001L145.20000000000002,15.799999999999992L147.4,17.300000000000004L149.60000000000002,20.900000000000006L151.79999999999998,21.98L154,21.48L156.2,21.88L158.4,22.239999999999995L160.6,23.599999999999998L162.8,23.599999999999998L165,23.099999999999998L167.2,22.38L169.4,21.860000000000003L171.6,21.78L173.8,21.999999999999996L176,22.78L178.20000000000002,50L180.39999999999998,50L182.6,50L184.79999999999998,50L187,50L189.2,50L191.4,50L193.6,50L195.8,50L198,50L200.20000000000002,50L202.4,50L204.60000000000002,50L206.79999999999998,50L209,50" stroke="#f58518" stroke-width="2"></path></g></g><path class="foreground" aria-hidden="true" d="" display="none"></path></g><g transform="translate(0,0)"><path class="background" aria-hidden="true" d="M0,0h220v100h-220Z"></path><g><g class="mark-line role-mark child_marks" role="graphics-object" aria-roledescription="line mark container"><path aria-label="Belief Threshold: 0; Mean Reward (n=10,000): -0.0048; Update Rule: Popper" role="graphics-symbol" aria-roledescription="line mark" d="M0,50.96000000000001L2.2,54.08L4.4,52.160000000000004L6.6,54L8.8,53.12L11,54L13.2,55.16L15.400000000000002,57.2L17.6,54.72L19.8,55.400000000000006L22,53.760000000000005L24.2,54.96L26.4,57.879999999999995L28.6,55.120000000000005L30.800000000000004,55.16L33,55.36L35.2,56.96L37.400000000000006,54.559999999999995L39.6,54.16L41.8,51.879999999999995L44,54.6L46.199999999999996,55.32L48.4,54.76L50.6,56.24L52.8,53.6L55,56.44L57.2,53.56000000000001L59.400000000000006,52.239999999999995L61.60000000000001,53.32L63.8,54.44L66,57.31999999999999L68.2,53.52L70.4,49.62L72.60000000000001,38.2L74.80000000000001,30.04L77,25.900000000000002L79.2,24.4L81.4,23.160000000000004L83.6,26.32L85.8,23.2L88,19.259999999999998L90.19999999999999,18.799999999999994L92.39999999999999,19.979999999999997L94.6,18.819999999999993L96.8,16.439999999999998L99,17.39999999999999L101.2,16.999999999999993L103.39999999999999,17.020000000000003L105.6,16.379999999999995L107.8,17.080000000000005L110,16.660000000000007L112.2,14.800000000000002L114.4,16.04L116.60000000000001,16.080000000000005L118.80000000000001,16.199999999999992L121.00000000000001,17.599999999999994L123.20000000000002,16.680000000000007L125.39999999999999,17.84L127.6,16.24L129.79999999999998,17.300000000000004L132,13.959999999999994L134.2,17.300000000000004L136.4,17.579999999999995L138.6,18.14L140.8,13.640000000000008L143,17.14L145.20000000000002,16.359999999999996L147.4,16.660000000000007L149.60000000000002,22.88L151.79999999999998,22.299999999999997L154,22.160000000000004L156.2,21.720000000000006L158.4,21.860000000000003L160.6,22.120000000000005L162.8,22.499999999999996L165,21.500000000000007L167.2,22.160000000000004L169.4,22.199999999999996L171.6,24.160000000000004L173.8,23.360000000000003L176,23.4L178.20000000000002,50L180.39999999999998,50L182.6,50L184.79999999999998,50L187,50L189.2,50L191.4,50L193.6,50L195.8,50L198,50L200.20000000000002,50L202.4,50L204.60000000000002,50L206.79999999999998,50L209,50" stroke="#e45756" stroke-width="2"></path></g></g><path class="foreground" aria-hidden="true" d="" display="none"></path></g><g transform="translate(0,0)"><path class="background" aria-hidden="true" d="M0,0h220v100h-220Z"></path><g><g class="mark-line role-mark child_marks" role="graphics-object" aria-roledescription="line mark container"><path aria-label="Belief Threshold: 0; Mean Reward (n=10,000): -0.0322; Update Rule: Bayes" role="graphics-symbol" aria-roledescription="line mark" d="M0,56.44L2.2,52.67999999999999L4.4,52.92L6.6,49.44L8.8,53.44L11,55.24L13.2,52.96000000000001L15.400000000000002,55.559999999999995L17.6,56.36L19.8,51.96000000000001L22,57.879999999999995L24.2,55.720000000000006L26.4,53.64L28.6,54.72L30.800000000000004,52.400000000000006L33,53.400000000000006L35.2,57.71999999999999L37.400000000000006,53.400000000000006L39.6,53.72L41.8,56.519999999999996L44,54.800000000000004L46.199999999999996,57.64L48.4,57.84L50.6,52.12L52.8,54.800000000000004L55,55.60000000000001L57.2,50.03999999999999L59.400000000000006,53.279999999999994L61.60000000000001,55.36L63.8,55.279999999999994L66,54.559999999999995L68.2,54.64L70.4,46.26L72.60000000000001,37.82L74.80000000000001,32.06L77,23.819999999999997L79.2,24.960000000000004L81.4,23.92000000000001L83.6,22.299999999999997L85.8,25.8L88,19.040000000000003L90.19999999999999,17.84L92.39999999999999,21.019999999999996L94.6,18.14L96.8,15.82L99,15.839999999999998L101.2,18.100000000000005L103.39999999999999,16.159999999999997L105.6,16.199999999999992L107.8,14.200000000000001L110,15.500000000000004L112.2,15.779999999999994L114.4,15.42L116.60000000000001,17.24L118.80000000000001,16.199999999999992L121.00000000000001,17.700000000000003L123.20000000000002,17.959999999999997L125.39999999999999,14.860000000000007L127.6,15.000000000000002L129.79999999999998,17.520000000000003L132,16.359999999999996L134.2,16.74L136.4,14.500000000000002L138.6,15.000000000000002L140.8,16.04L143,17.06L145.20000000000002,14.339999999999996L147.4,15.280000000000005L149.60000000000002,24.2L151.79999999999998,24.740000000000006L154,21.999999999999996L156.2,23.599999999999998L158.4,22.499999999999996L160.6,23.25999999999999L162.8,22.860000000000003L165,21.199999999999996L167.2,21.219999999999995L169.4,23.080000000000002L171.6,21.43999999999999L173.8,21.199999999999996L176,20.979999999999997L178.20000000000002,50L180.39999999999998,50L182.6,50L184.79999999999998,50L187,50L189.2,50L191.4,50L193.6,50L195.8,50L198,50L200.20000000000002,50L202.4,50L204.60000000000002,50L206.79999999999998,50L209,50" stroke="#4c78a8" stroke-width="2"></path></g></g><path class="foreground" aria-hidden="true" d="" display="none"></path></g></g><g class="mark-group role-title"><g transform="translate(110,-20)"><path class="background" aria-hidden="true" d="M0,0h0v0h0Z" pointer-events="none"></path><g><g class="mark-text role-title-text" role="graphics-symbol" aria-roledescription="title" aria-label="Title text '15'" pointer-events="none"><text text-anchor="middle" transform="translate(0,8)" font-family="sans-serif" font-size="10px" fill="#000" opacity="1">15</text></g></g><path class="foreground" aria-hidden="true" d="" pointer-events="none" display="none"></path></g></g></g><path class="foreground" aria-hidden="true" d="" display="none"></path></g><g transform="translate(244,142)"><path class="background" aria-hidden="true" d="M0.5,0.5h220v100h-220Z" stroke="#ddd"></path><g><g class="mark-group role-axis" aria-hidden="true"><g transform="translate(0.5,100.5)"><path class="background" aria-hidden="true" d="M0,0h0v0h0Z" pointer-events="none"></path><g><g class="mark-rule role-axis-grid" pointer-events="none"><line transform="translate(0,-100)" x2="0" y2="100" stroke="#ddd" stroke-width="1" opacity="1"></line><line transform="translate(44,-100)" x2="0" y2="100" stroke="#ddd" stroke-width="1" opacity="1"></line><line transform="translate(88,-100)" x2="0" y2="100" stroke="#ddd" stroke-width="1" opacity="1"></line><line transform="translate(132,-100)" x2="0" y2="100" stroke="#ddd" stroke-width="1" opacity="1"></line><line transform="translate(176,-100)" x2="0" y2="100" stroke="#ddd" stroke-width="1" opacity="1"></line><line transform="translate(220,-100)" x2="0" y2="100" stroke="#ddd" stroke-width="1" opacity="1"></line></g></g><path class="foreground" aria-hidden="true" d="" pointer-events="none" display="none"></path></g></g><g class="mark-group role-axis" aria-hidden="true"><g transform="translate(0.5,0.5)"><path class="background" aria-hidden="true" d="M0,0h0v0h0Z" pointer-events="none"></path><g><g class="mark-rule role-axis-grid" pointer-events="none"><line transform="translate(0,90)" x2="220" y2="0" stroke="#ddd" stroke-width="1" opacity="1"></line><line transform="translate(0,50)" x2="220" y2="0" stroke="#ddd" stroke-width="1" opacity="1"></line><line transform="translate(0,10)" x2="220" y2="0" stroke="#ddd" stroke-width="1" opacity="1"></line></g></g><path class="foreground" aria-hidden="true" d="" pointer-events="none" display="none"></path></g></g><g class="mark-group role-scope child_pathgroup" role="graphics-object" aria-roledescription="group mark container"><g transform="translate(0,0)"><path class="background" aria-hidden="true" d="M0,0h220v100h-220Z"></path><g><g class="mark-line role-mark child_marks" role="graphics-object" aria-roledescription="line mark container"><path aria-label="Belief Threshold: 0; Mean Reward (n=10,000): 0.0566; Update Rule: Schupbach" role="graphics-symbol" aria-roledescription="line mark" d="M0,38.68000000000001L2.2,37.56L4.4,34L6.6,40.52L8.8,36.28L11,37.68L13.2,35.919999999999995L15.400000000000002,34.28L17.6,36.72L19.8,36.31999999999999L22,38.6L24.2,34.760000000000005L26.4,37.6L28.6,36.199999999999996L30.800000000000004,37.2L33,36L35.2,32.120000000000005L37.400000000000006,34.84L39.6,34.96L41.8,36.760000000000005L44,32.36L46.199999999999996,35.8L48.4,32.16L50.6,36.12L52.8,35.199999999999996L55,38L57.2,35.68L59.400000000000006,36.919999999999995L61.60000000000001,32.16L63.8,36.08L66,34.72L68.2,32.00000000000001L70.4,37L72.60000000000001,34.84L74.80000000000001,36.31999999999999L77,38.04L79.2,35.24L81.4,33.56L83.6,38.44L85.8,36.919999999999995L88,36.6L90.19999999999999,37.68L92.39999999999999,28.380000000000006L94.6,32.379999999999995L96.8,25.160000000000004L99,25.439999999999998L101.2,22.160000000000004L103.39999999999999,22.799999999999997L105.6,22.720000000000006L107.8,22.039999999999992L110,19.019999999999992L112.2,17.159999999999997L114.4,13.680000000000003L116.60000000000001,12.519999999999998L118.80000000000001,10.220000000000006L121.00000000000001,9.360000000000001L123.20000000000002,9.040000000000003L125.39999999999999,9.799999999999997L127.6,9.040000000000003L129.79999999999998,9.079999999999998L132,9.079999999999998L134.2,9.040000000000003L136.4,9.040000000000003L138.6,9.060000000000002L140.8,9.040000000000003L143,9.040000000000003L145.20000000000002,9.040000000000003L147.4,9.040000000000003L149.60000000000002,9.040000000000003L151.79999999999998,9.040000000000003L154,9.28L156.2,9.040000000000003L158.4,9.040000000000003L160.6,9.040000000000003L162.8,9.040000000000003L165,9.040000000000003L167.2,9.040000000000003L169.4,9.040000000000003L171.6,9.060000000000002L173.8,11.460000000000004L176,10.280000000000001L178.20000000000002,12.6L180.39999999999998,10.399999999999999L182.6,12.6L184.79999999999998,10.060000000000002L187,11.759999999999993L189.2,9.319999999999995L191.4,12.159999999999993L193.6,12.1L195.8,10.399999999999999L198,11.620000000000008L200.20000000000002,10.38L202.4,11.5L204.60000000000002,11.319999999999997L206.79999999999998,12.860000000000005L209,17.779999999999994" stroke="#72b7b2" stroke-width="2"></path></g></g><path class="foreground" aria-hidden="true" d="" display="none"></path></g><g transform="translate(0,0)"><path class="background" aria-hidden="true" d="M0,0h220v100h-220Z"></path><g><g class="mark-line role-mark child_marks" role="graphics-object" aria-roledescription="line mark container"><path aria-label="Belief Threshold: 0; Mean Reward (n=10,000): 0.089; Update Rule: Good" role="graphics-symbol" aria-roledescription="line mark" d="M0,32.2L2.2,34.48L4.4,33.040000000000006L6.6,36.919999999999995L8.8,33.8L11,35.56L13.2,36.760000000000005L15.400000000000002,36.199999999999996L17.6,36.6L19.8,34.8L22,35.84L24.2,36.919999999999995L26.4,33.96L28.6,40.800000000000004L30.800000000000004,38.32L33,34.96L35.2,33.84L37.400000000000006,36.88L39.6,34.199999999999996L41.8,36.519999999999996L44,37.32L46.199999999999996,36.6L48.4,41.080000000000005L50.6,37.519999999999996L52.8,37.480000000000004L55,36.6L57.2,36.6L59.400000000000006,37.4L61.60000000000001,35.8L63.8,38.559999999999995L66,36.84L68.2,37.35999999999999L70.4,35.4L72.60000000000001,36.72L74.80000000000001,31.42L77,25.22L79.2,23.880000000000003L81.4,23.880000000000003L83.6,13.119999999999997L85.8,13.840000000000007L88,13.840000000000007L90.19999999999999,10.620000000000008L92.39999999999999,9.139999999999993L94.6,9.58L96.8,9.360000000000001L99,10.999999999999998L101.2,9.040000000000003L103.39999999999999,9.099999999999998L105.6,9.040000000000003L107.8,9.040000000000003L110,9.040000000000003L112.2,9.040000000000003L114.4,9.040000000000003L116.60000000000001,9.099999999999998L118.80000000000001,9.040000000000003L121.00000000000001,9.060000000000002L123.20000000000002,9.040000000000003L125.39999999999999,9.040000000000003L127.6,9.060000000000002L129.79999999999998,9.040000000000003L132,9.040000000000003L134.2,9.040000000000003L136.4,9.060000000000002L138.6,9.760000000000002L140.8,11.759999999999993L143,10.58L145.20000000000002,10.040000000000004L147.4,12.180000000000001L149.60000000000002,10.060000000000002L151.79999999999998,10.539999999999994L154,12.2L156.2,10.18L158.4,9.060000000000002L160.6,10.939999999999994L162.8,11.640000000000006L165,10.98L167.2,11.399999999999999L169.4,12.539999999999996L171.6,11.840000000000007L173.8,9.98L176,9.440000000000005L178.20000000000002,19.36L180.39999999999998,19.040000000000003L182.6,19.920000000000005L184.79999999999998,18.779999999999998L187,19.58L189.2,18.999999999999993L191.4,19.100000000000005L193.6,18.44L195.8,50L198,50L200.20000000000002,50L202.4,50L204.60000000000002,50L206.79999999999998,50L209,50" stroke="#f58518" stroke-width="2"></path></g></g><path class="foreground" aria-hidden="true" d="" display="none"></path></g><g transform="translate(0,0)"><path class="background" aria-hidden="true" d="M0,0h220v100h-220Z"></path><g><g class="mark-line role-mark child_marks" role="graphics-object" aria-roledescription="line mark container"><path aria-label="Belief Threshold: 0; Mean Reward (n=10,000): 0.0868; Update Rule: Popper" role="graphics-symbol" aria-roledescription="line mark" d="M0,32.64L2.2,37.2L4.4,37.6L6.6,38.32L8.8,36.96L11,34.040000000000006L13.2,36.56L15.400000000000002,40.76L17.6,34.96L19.8,37.24000000000001L22,34.56L24.2,37.32L26.4,31.200000000000006L28.6,34.199999999999996L30.800000000000004,35.8L33,37.35999999999999L35.2,36.08L37.400000000000006,37.8L39.6,37.440000000000005L41.8,37.08L44,33.599999999999994L46.199999999999996,34.160000000000004L48.4,38.480000000000004L50.6,33.71999999999999L52.8,39.6L55,38.72L57.2,35.480000000000004L59.400000000000006,34.160000000000004L61.60000000000001,36.84L63.8,35.31999999999999L66,36.31999999999999L68.2,37.96000000000001L70.4,37.72L72.60000000000001,34.24L74.80000000000001,32.00000000000001L77,23.98L79.2,24.819999999999997L81.4,25.239999999999995L83.6,15.839999999999998L85.8,13.700000000000001L88,18.14L90.19999999999999,12.719999999999999L92.39999999999999,10.620000000000008L94.6,9.040000000000003L96.8,9.040000000000003L99,9.040000000000003L101.2,9.040000000000003L103.39999999999999,9.040000000000003L105.6,9.040000000000003L107.8,9.060000000000002L110,9.040000000000003L112.2,9.040000000000003L114.4,9.040000000000003L116.60000000000001,9.040000000000003L118.80000000000001,9.060000000000002L121.00000000000001,9.079999999999998L123.20000000000002,9.079999999999998L125.39999999999999,9.060000000000002L127.6,9.040000000000003L129.79999999999998,9.040000000000003L132,9.060000000000002L134.2,9.060000000000002L136.4,9.060000000000002L138.6,12.840000000000007L140.8,11.759999999999993L143,10.099999999999998L145.20000000000002,11.640000000000006L147.4,10.620000000000008L149.60000000000002,10.58L151.79999999999998,12.539999999999996L154,12L156.2,11.519999999999996L158.4,11.620000000000008L160.6,12.180000000000001L162.8,11.420000000000009L165,10.139999999999993L167.2,11.060000000000002L169.4,11.099999999999998L171.6,12.719999999999999L173.8,9.820000000000007L176,10.860000000000003L178.20000000000002,18.379999999999995L180.39999999999998,17.659999999999997L182.6,17.94L184.79999999999998,19.120000000000005L187,18.61999999999999L189.2,17.199999999999992L191.4,19.58L193.6,19.21999999999999L195.8,50L198,50L200.20000000000002,50L202.4,50L204.60000000000002,50L206.79999999999998,50L209,50" stroke="#e45756" stroke-width="2"></path></g></g><path class="foreground" aria-hidden="true" d="" display="none"></path></g><g transform="translate(0,0)"><path class="background" aria-hidden="true" d="M0,0h220v100h-220Z"></path><g><g class="mark-line role-mark child_marks" role="graphics-object" aria-roledescription="line mark container"><path aria-label="Belief Threshold: 0; Mean Reward (n=10,000): 0.07; Update Rule: Bayes" role="graphics-symbol" aria-roledescription="line mark" d="M0,36L2.2,39.16L4.4,37.160000000000004L6.6,36.12L8.8,35.96L11,38.04L13.2,33.040000000000006L15.400000000000002,34.040000000000006L17.6,34L19.8,36.08L22,38.35999999999999L24.2,34.519999999999996L26.4,36.4L28.6,30.84L30.800000000000004,39.92L33,35.519999999999996L35.2,34.8L37.400000000000006,33.56L39.6,38L41.8,33.36L44,36.84L46.199999999999996,37.760000000000005L48.4,38.839999999999996L50.6,34.88L52.8,34.48L55,35.8L57.2,36.08L59.400000000000006,36.36000000000001L61.60000000000001,37.32L63.8,35.72L66,38.2L68.2,35.96L70.4,36.88L72.60000000000001,38.4L74.80000000000001,30.94L77,24.740000000000006L79.2,25.459999999999994L81.4,26.8L83.6,12.460000000000004L85.8,14.480000000000004L88,14.359999999999996L90.19999999999999,11.7L92.39999999999999,10.260000000000002L94.6,9.040000000000003L96.8,9.040000000000003L99,9.060000000000002L101.2,9.060000000000002L103.39999999999999,9.040000000000003L105.6,9.040000000000003L107.8,9.040000000000003L110,9.060000000000002L112.2,9.040000000000003L114.4,9.040000000000003L116.60000000000001,9.040000000000003L118.80000000000001,9.040000000000003L121.00000000000001,9.040000000000003L123.20000000000002,9.040000000000003L125.39999999999999,9.040000000000003L127.6,9.060000000000002L129.79999999999998,9.040000000000003L132,9.040000000000003L134.2,9.040000000000003L136.4,9.040000000000003L138.6,10.799999999999999L140.8,9.18L143,11.38L145.20000000000002,13.019999999999998L147.4,10.48L149.60000000000002,10.719999999999995L151.79999999999998,11.799999999999999L154,13.680000000000003L156.2,9.999999999999998L158.4,11.240000000000006L160.6,12.2L162.8,11.519999999999996L165,10.220000000000006L167.2,9.879999999999999L169.4,10.440000000000005L171.6,10.799999999999999L173.8,9.98L176,11.460000000000004L178.20000000000002,18.54L180.39999999999998,18.120000000000005L182.6,17.820000000000004L184.79999999999998,21.060000000000002L187,19.759999999999998L189.2,18.96L191.4,19.66L193.6,18.480000000000008L195.8,50L198,50L200.20000000000002,50L202.4,50L204.60000000000002,50L206.79999999999998,50L209,50" stroke="#4c78a8" stroke-width="2"></path></g></g><path class="foreground" aria-hidden="true" d="" display="none"></path></g></g><g class="mark-group role-title"><g transform="translate(110,-20)"><path class="background" aria-hidden="true" d="M0,0h0v0h0Z" pointer-events="none"></path><g><g class="mark-text role-title-text" role="graphics-symbol" aria-roledescription="title" aria-label="Title text '20'" pointer-events="none"><text text-anchor="middle" transform="translate(0,8)" font-family="sans-serif" font-size="10px" fill="#000" opacity="1">20</text></g></g><path class="foreground" aria-hidden="true" d="" pointer-events="none" display="none"></path></g></g></g><path class="foreground" aria-hidden="true" d="" display="none"></path></g></g><g class="mark-group role-legend" role="graphics-symbol" aria-roledescription="legend" aria-label="Symbol legend titled 'Update Rule' for stroke color with 4 values: Bayes, Good, Popper, Schupbach"><g transform="translate(483,0)"><path class="background" aria-hidden="true" d="M0,0h69v66h-69Z" pointer-events="none"></path><g><g class="mark-group role-legend-entry"><g transform="translate(0,16)"><path class="background" aria-hidden="true" d="M0,0h0v0h0Z" pointer-events="none"></path><g><g class="mark-group role-scope" role="graphics-object" aria-roledescription="group mark container"><g transform="translate(0,0)"><path class="background" aria-hidden="true" d="M0,0h69v11h-69Z" pointer-events="none" opacity="1"></path><g><g class="mark-symbol role-legend-symbol" pointer-events="none"><path transform="translate(6,6)" d="M-5,0L5,0" stroke="#4c78a8" stroke-width="1.5" opacity="1"></path></g><g class="mark-text role-legend-label" pointer-events="none"><text text-anchor="start" transform="translate(16,9)" font-family="sans-serif" font-size="10px" fill="#000" opacity="1">Bayes</text></g></g><path class="foreground" aria-hidden="true" d="" pointer-events="none" display="none"></path></g><g transform="translate(0,13)"><path class="background" aria-hidden="true" d="M0,0h69v11h-69Z" pointer-events="none" opacity="1"></path><g><g class="mark-symbol role-legend-symbol" pointer-events="none"><path transform="translate(6,6)" d="M-5,0L5,0" stroke="#f58518" stroke-width="1.5" opacity="1"></path></g><g class="mark-text role-legend-label" pointer-events="none"><text text-anchor="start" transform="translate(16,9)" font-family="sans-serif" font-size="10px" fill="#000" opacity="1">Good</text></g></g><path class="foreground" aria-hidden="true" d="" pointer-events="none" display="none"></path></g><g transform="translate(0,26)"><path class="background" aria-hidden="true" d="M0,0h69v11h-69Z" pointer-events="none" opacity="1"></path><g><g class="mark-symbol role-legend-symbol" pointer-events="none"><path transform="translate(6,6)" d="M-5,0L5,0" stroke="#e45756" stroke-width="1.5" opacity="1"></path></g><g class="mark-text role-legend-label" pointer-events="none"><text text-anchor="start" transform="translate(16,9)" font-family="sans-serif" font-size="10px" fill="#000" opacity="1">Popper</text></g></g><path class="foreground" aria-hidden="true" d="" pointer-events="none" display="none"></path></g><g transform="translate(0,39)"><path class="background" aria-hidden="true" d="M0,0h69v11h-69Z" pointer-events="none" opacity="1"></path><g><g class="mark-symbol role-legend-symbol" pointer-events="none"><path transform="translate(6,6)" d="M-5,0L5,0" stroke="#72b7b2" stroke-width="1.5" opacity="1"></path></g><g class="mark-text role-legend-label" pointer-events="none"><text text-anchor="start" transform="translate(16,9)" font-family="sans-serif" font-size="10px" fill="#000" opacity="1">Schupbach</text></g></g><path class="foreground" aria-hidden="true" d="" pointer-events="none" display="none"></path></g></g></g><path class="foreground" aria-hidden="true" d="" pointer-events="none" display="none"></path></g></g><g class="mark-text role-legend-title" pointer-events="none"><text text-anchor="start" transform="translate(0,9)" font-family="sans-serif" font-size="11px" font-weight="bold" fill="#000" opacity="1">Update Rule</text></g></g><path class="foreground" aria-hidden="true" d="" pointer-events="none" display="none"></path></g></g><g class="mark-group role-title"><g transform="translate(-43.00000000000001,-59)"><path class="background" aria-hidden="true" d="M0,0h0v0h0Z" pointer-events="none"></path><g><g class="mark-text role-title-text" role="graphics-symbol" aria-roledescription="title" aria-label="Title text 'Average Reward vs. Belief Threshold by Update Rule '" pointer-events="none"><text text-anchor="start" transform="translate(0,10)" font-family="sans-serif" font-size="13px" font-weight="bold" fill="#000" opacity="1">Average Reward vs. Belief Threshold by Update Rule</text></g></g><path class="foreground" aria-hidden="true" d="" pointer-events="none" display="none"></path></g></g></g><path class="foreground" aria-hidden="true" d="" display="none"></path></g></g></g></svg>
