<?xml version="1.0" encoding="utf-8"?>
<!DOCTYPE svg PUBLIC "-//W3C//DTD SVG 1.1//EN" "http://www.w3.org/Graphics/SVG/1.1/DTD/svg11.dtd">
<svg class="marks" width="606" height="344" viewBox="0 0 606 344" version="1.1" xmlns="http://www.w3.org/2000/svg" xmlns:xlink="http://www.w3.org/1999/xlink"><rect width="606" height="344" fill="white"></rect><g fill="none" stroke-miterlimit="10" transform="translate(49,64)"><g class="mark-group role-frame root" role="graphics-object" aria-roledescription="group mark container"><g transform="translate(0,0)"><path class="background" aria-hidden="true" d="M0,0h0v0h0Z"></path><g><g class="mark-group role-column-title facet-title" role="graphics-object" aria-roledescription="group mark container"><g transform="translate(231,-21)"><path class="background" aria-hidden="true" d="M0,0h0v0h0Z"></path><g><g class="mark-group role-title"><g transform="translate(0,-21)"><path class="background" aria-hidden="true" d="M0,0h0v0h0Z" pointer-events="none"></path><g><g class="mark-text role-title-text" role="graphics-symbol" aria-roledescription="title" aria-label="Title text 'Number of Draws from Urn'" pointer-events="none"><text text-anchor="middle" transform="translate(0,9)" font-family="sans-serif" font-size="11px" font-weight="bold" fill="#000" opacity="1">Number of Draws from Urn</text></g></g><path class="foreground" aria-hidden="true" d="" pointer-events="none" display="none"></path></g></g></g><path class="foreground" aria-hidden="true" d="" display="none"></path></g></g><g class="mark-group role-row-header row_header" role="graphics-object" aria-roledescription="group mark container"><g transform="translate(-3,0)"><path class="background" aria-hidden="true" d="M0,0h0v100h0Z"></path><g><g class="mark-group role-axis" role="graphics-symbol" aria-roledescription="axis" aria-label="Y-axis titled 'Mean Reward (n=10,000)' for a linear scale with values from -0.3 to 0.3"><g transform="translate(0.5,0.5)"><path class="background" aria-hidden="true" d="M0,0h0v0h0Z" pointer-events="none"></path><g><g class="mark-rule role-axis-tick" pointer-events="none"><line transform="translate(0,90)" x2="-5" y2="0" stroke="#888" stroke-width="1" opacity="1"></line><line transform="translate(0,50)" x2="-5" y2="0" stroke="#888" stroke-width="1" opacity="1"></line><line transform="translate(0,10)" x2="-5" y2="0" stroke="#888" stroke-width="1" opacity="1"></line></g><g class="mark-text role-axis-label" pointer-events="none"><text text-anchor="end" transform="translate(-7,93)" font-family="sans-serif" font-size="10px" fill="#000" opacity="1">-0.2</text><text text-anchor="end" transform="translate(-7,53)" font-family="sans-serif" font-size="10px" fill="#000" opacity="1">0.0</text><text text-anchor="end" transform="translate(-7,12.999999999999998)" font-family="sans-serif" font-size="10px" fill="#000" opacity="1">0.2</text></g><g class="mark-rule role-axis-domain" pointer-events="none"><line transform="translate(0,100)" x2="0" y2="-100" stroke="#888" stroke-width="1" opacity="1"></line></g><g class="mark-text role-axis-title" pointer-events="none"><text text-anchor="middle" transform="translate(-29,50) rotate(-90) translate(0,-2)" font-family="sans-serif" font-size="11px" font-weight="bold" fill="#000" opacity="1">Mean Reward (n=10,000)</text></g></g><path class="foreground" aria-hidden="true" d="" pointer-events="none" display="none"></path></g></g></g><path class="foreground" aria-hidden="true" d="" display="none"></path></g><g transform="translate(-3,142)"><path class="background" aria-hidden="true" d="M0,0h0v100h0Z"></path><g><g class="mark-group role-axis" role="graphics-symbol" aria-roledescription="axis" aria-label="Y-axis titled 'Mean Reward (n=10,000)' for a linear scale with values from -0.3 to 0.3"><g transform="translate(0.5,0.5)"><path class="background" aria-hidden="true" d="M0,0h0v0h0Z" pointer-events="none"></path><g><g class="mark-rule role-axis-tick" pointer-events="none"><line transform="translate(0,90)" x2="-5" y2="0" stroke="#888" stroke-width="1" opacity="1"></line><line transform="translate(0,50)" x2="-5" y2="0" stroke="#888" stroke-width="1" opacity="1"></line><line transform="translate(0,10)" x2="-5" y2="0" stroke="#888" stroke-width="1" opacity="1"></line></g><g class="mark-text role-axis-label" pointer-events="none"><text text-anchor="end" transform="translate(-7,93)" font-family="sans-serif" font-size="10px" fill="#000" opacity="1">-0.2</text><text text-anchor="end" transform="translate(-7,53)" font-family="sans-serif" font-size="10px" fill="#000" opacity="1">0.0</text><text text-anchor="end" transform="translate(-7,12.999999999999998)" font-family="sans-serif" font-size="10px" fill="#000" opacity="1">0.2</text></g><g class="mark-rule role-axis-domain" pointer-events="none"><line transform="translate(0,100)" x2="0" y2="-100" stroke="#888" stroke-width="1" opacity="1"></line></g><g class="mark-text role-axis-title" pointer-events="none"><text text-anchor="middle" transform="translate(-29,50) rotate(-90) translate(0,-2)" font-family="sans-serif" font-size="11px" font-weight="bold" fill="#000" opacity="1">Mean Reward (n=10,000)</text></g></g><path class="foreground" aria-hidden="true" d="" pointer-events="none" display="none"></path></g></g></g><path class="foreground" aria-hidden="true" d="" display="none"></path></g></g><g class="mark-group role-column-footer column_footer" role="graphics-object" aria-roledescription="group mark container"><g transform="translate(0,243)"><path class="background" aria-hidden="true" d="M0,0h220v0h-220Z"></path><g><g class="mark-group role-axis" role="graphics-symbol" aria-roledescription="axis" aria-label="X-axis titled 'Belief Threshold' for a linear scale with values from 0.0 to 1.0"><g transform="translate(0.5,0.5)"><path class="background" aria-hidden="true" d="M0,0h0v0h0Z" pointer-events="none"></path><g><g class="mark-rule role-axis-tick" pointer-events="none"><line transform="translate(0,0)" x2="0" y2="5" stroke="#888" stroke-width="1" opacity="1"></line><line transform="translate(44,0)" x2="0" y2="5" stroke="#888" stroke-width="1" opacity="1"></line><line transform="translate(88,0)" x2="0" y2="5" stroke="#888" stroke-width="1" opacity="1"></line><line transform="translate(132,0)" x2="0" y2="5" stroke="#888" stroke-width="1" opacity="1"></line><line transform="translate(176,0)" x2="0" y2="5" stroke="#888" stroke-width="1" opacity="1"></line><line transform="translate(220,0)" x2="0" y2="5" stroke="#888" stroke-width="1" opacity="1"></line></g><g class="mark-text role-axis-label" pointer-events="none"><text text-anchor="start" transform="translate(0,15)" font-family="sans-serif" font-size="10px" fill="#000" opacity="1">0.0</text><text text-anchor="middle" transform="translate(44,15)" font-family="sans-serif" font-size="10px" fill="#000" opacity="1">0.2</text><text text-anchor="middle" transform="translate(88,15)" font-family="sans-serif" font-size="10px" fill="#000" opacity="1">0.4</text><text text-anchor="middle" transform="translate(132,15)" font-family="sans-serif" font-size="10px" fill="#000" opacity="1">0.6</text><text text-anchor="middle" transform="translate(176,15)" font-family="sans-serif" font-size="10px" fill="#000" opacity="1">0.8</text><text text-anchor="end" transform="translate(220,15)" font-family="sans-serif" font-size="10px" fill="#000" opacity="1">1.0</text></g><g class="mark-rule role-axis-domain" pointer-events="none"><line transform="translate(0,0)" x2="220" y2="0" stroke="#888" stroke-width="1" opacity="1"></line></g><g class="mark-text role-axis-title" pointer-events="none"><text text-anchor="middle" transform="translate(110,30)" font-family="sans-serif" font-size="11px" font-weight="bold" fill="#000" opacity="1">Belief Threshold</text></g></g><path class="foreground" aria-hidden="true" d="" pointer-events="none" display="none"></path></g></g></g><path class="foreground" aria-hidden="true" d="" display="none"></path></g><g transform="translate(244,243)"><path class="background" aria-hidden="true" d="M0,0h220v0h-220Z"></path><g><g class="mark-group role-axis" role="graphics-symbol" aria-roledescription="axis" aria-label="X-axis titled 'Belief Threshold' for a linear scale with values from 0.0 to 1.0"><g transform="translate(0.5,0.5)"><path class="background" aria-hidden="true" d="M0,0h0v0h0Z" pointer-events="none"></path><g><g class="mark-rule role-axis-tick" pointer-events="none"><line transform="translate(0,0)" x2="0" y2="5" stroke="#888" stroke-width="1" opacity="1"></line><line transform="translate(44,0)" x2="0" y2="5" stroke="#888" stroke-width="1" opacity="1"></line><line transform="translate(88,0)" x2="0" y2="5" stroke="#888" stroke-width="1" opacity="1"></line><line transform="translate(132,0)" x2="0" y2="5" stroke="#888" stroke-width="1" opacity="1"></line><line transform="translate(176,0)" x2="0" y2="5" stroke="#888" stroke-width="1" opacity="1"></line><line transform="translate(220,0)" x2="0" y2="5" stroke="#888" stroke-width="1" opacity="1"></line></g><g class="mark-text role-axis-label" pointer-events="none"><text text-anchor="start" transform="translate(0,15)" font-family="sans-serif" font-size="10px" fill="#000" opacity="1">0.0</text><text text-anchor="middle" transform="translate(44,15)" font-family="sans-serif" font-size="10px" fill="#000" opacity="1">0.2</text><text text-anchor="middle" transform="translate(88,15)" font-family="sans-serif" font-size="10px" fill="#000" opacity="1">0.4</text><text text-anchor="middle" transform="translate(132,15)" font-family="sans-serif" font-size="10px" fill="#000" opacity="1">0.6</text><text text-anchor="middle" transform="translate(176,15)" font-family="sans-serif" font-size="10px" fill="#000" opacity="1">0.8</text><text text-anchor="end" transform="translate(220,15)" font-family="sans-serif" font-size="10px" fill="#000" opacity="1">1.0</text></g><g class="mark-rule role-axis-domain" pointer-events="none"><line transform="translate(0,0)" x2="220" y2="0" stroke="#888" stroke-width="1" opacity="1"></line></g><g class="mark-text role-axis-title" pointer-events="none"><text text-anchor="middle" transform="translate(110,30)" font-family="sans-serif" font-size="11px" font-weight="bold" fill="#000" opacity="1">Belief Threshold</text></g></g><path class="foreground" aria-hidden="true" d="" pointer-events="none" display="none"></path></g></g></g><path class="foreground" aria-hidden="true" d="" display="none"></path></g></g><g class="mark-group role-scope cell" role="graphics-object" aria-roledescription="group mark container"><g transform="translate(0,0)"><path class="background" aria-hidden="true" d="M0.5,0.5h220v100h-220Z" stroke="#ddd"></path><g><g class="mark-group role-axis" aria-hidden="true"><g transform="translate(0.5,100.5)"><path class="background" aria-hidden="true" d="M0,0h0v0h0Z" pointer-events="none"></path><g><g class="mark-rule role-axis-grid" pointer-events="none"><line transform="translate(0,-100)" x2="0" y2="100" stroke="#ddd" stroke-width="1" opacity="1"></line><line transform="translate(44,-100)" x2="0" y2="100" stroke="#ddd" stroke-width="1" opacity="1"></line><line transform="translate(88,-100)" x2="0" y2="100" stroke="#ddd" stroke-width="1" opacity="1"></line><line transform="translate(132,-100)" x2="0" y2="100" stroke="#ddd" stroke-width="1" opacity="1"></line><line transform="translate(176,-100)" x2="0" y2="100" stroke="#ddd" stroke-width="1" opacity="1"></line><line transform="translate(220,-100)" x2="0" y2="100" stroke="#ddd" stroke-width="1" opacity="1"></line></g></g><path class="foreground" aria-hidden="true" d="" pointer-events="none" display="none"></path></g></g><g class="mark-group role-axis" aria-hidden="true"><g transform="translate(0.5,0.5)"><path class="background" aria-hidden="true" d="M0,0h0v0h0Z" pointer-events="none"></path><g><g class="mark-rule role-axis-grid" pointer-events="none"><line transform="translate(0,90)" x2="220" y2="0" stroke="#ddd" stroke-width="1" opacity="1"></line><line transform="translate(0,50)" x2="220" y2="0" stroke="#ddd" stroke-width="1" opacity="1"></line><line transform="translate(0,10)" x2="220" y2="0" stroke="#ddd" stroke-width="1" opacity="1"></line></g></g><path class="foreground" aria-hidden="true" d="" pointer-events="none" display="none"></path></g></g><g class="mark-group role-scope child_pathgroup" role="graphics-object" aria-roledescription="group mark container"><g transform="translate(0,0)"><path class="background" aria-hidden="true" d="M0,0h220v100h-220Z"></path><g><g class="mark-line role-mark child_marks" role="graphics-object" aria-roledescription="line mark container"><path aria-label="Belief Threshold: 0; Mean Reward (n=10,000): -0.2048; Update Rule: Schupbach" role="graphics-symbol" aria-roledescription="line mark" d="M0,90.96L2.2,90.94L4.4,90.94L6.6,90.96L8.8,90.94L11,90.96L13.2,90.96L15.400000000000002,90.96L17.6,90.96L19.8,90.96L22,90.94L24.2,90.96L26.4,90.96L28.6,90.96L30.800000000000004,90.86000000000001L33,90.94L35.2,90.9L37.400000000000006,90.96L39.6,90.94L41.8,90.96L44,90.96L46.199999999999996,90.96L48.4,90.96L50.6,90.86000000000001L52.8,90.92L55,90.96L57.2,90.96L59.400000000000006,87.1L61.60000000000001,88.53999999999999L63.8,87.08L66,85.7L68.2,87.36L70.4,56.800000000000004L72.60000000000001,59.02L74.80000000000001,56.64L77,57.879999999999995L79.2,56.76L81.4,58.620000000000005L83.6,56.96L85.8,57.78L88,55.96L90.19999999999999,57.26L92.39999999999999,54.82L94.6,58.24L96.8,55.48L99,58.06L101.2,59.31999999999999L103.39999999999999,55.2L105.6,58.34L107.8,58.26L110,56.71999999999999L112.2,55.42L114.4,58.02L116.60000000000001,60.68L118.80000000000001,56.46L121.00000000000001,57.699999999999996L123.20000000000002,57.099999999999994L125.39999999999999,57.56L127.6,56.18000000000001L129.79999999999998,57.68L132,56.60000000000001L134.2,50L136.4,50L138.6,50L140.8,50L143,50L145.20000000000002,50L147.4,50L149.60000000000002,50L151.79999999999998,50L154,50L156.2,50L158.4,50L160.6,50L162.8,50L165,50L167.2,50L169.4,50L171.6,50L173.8,50L176,50L178.20000000000002,50L180.39999999999998,50L182.6,50L184.79999999999998,50L187,50L189.2,50L191.4,50L193.6,50L195.8,50L198,50L200.20000000000002,50L202.4,50L204.60000000000002,50L206.79999999999998,50L209,50L211.2,50L213.4,50L215.6,50L217.8,50" stroke="#72b7b2" stroke-width="2"></path></g></g><path class="foreground" aria-hidden="true" d="" display="none"></path></g><g transform="translate(0,0)"><path class="background" aria-hidden="true" d="M0,0h220v100h-220Z"></path><g><g class="mark-line role-mark child_marks" role="graphics-object" aria-roledescription="line mark container"><path aria-label="Belief Threshold: 0; Mean Reward (n=10,000): -0.2045; Update Rule: Good" role="graphics-symbol" aria-roledescription="line mark" d="M0,90.9L2.2,90.92L4.4,90.96L6.6,90.92L8.8,90.94L11,90.96L13.2,90.92L15.400000000000002,90.94L17.6,90.96L19.8,90.92L22,90.96L24.2,90.94L26.4,90.94L28.6,90.92L30.800000000000004,90.96L33,90.96L35.2,90.96L37.400000000000006,90.94L39.6,90.94L41.8,90.96L44,90.96L46.199999999999996,90.96L48.4,90.96L50.6,90.96L52.8,90.96L55,84.6L57.2,84.8L59.400000000000006,85.18L61.60000000000001,85.13999999999999L63.8,86.1L66,57.71999999999999L68.2,57.48L70.4,57.699999999999996L72.60000000000001,55.24L74.80000000000001,55.620000000000005L77,55.86L79.2,53.82L81.4,56.49999999999999L83.6,56.89999999999999L85.8,57.00000000000001L88,58.08L90.19999999999999,57.66L92.39999999999999,59.42000000000001L94.6,58.440000000000005L96.8,56.220000000000006L99,55.980000000000004L101.2,57.919999999999995L103.39999999999999,53.66L105.6,57.46L107.8,58.699999999999996L110,57.49999999999999L112.2,56.44L114.4,56.82000000000001L116.60000000000001,57.11999999999999L118.80000000000001,58.9L121.00000000000001,50L123.20000000000002,50L125.39999999999999,50L127.6,50L129.79999999999998,50L132,50L134.2,50L136.4,50L138.6,50L140.8,50L143,50L145.20000000000002,50L147.4,50L149.60000000000002,50L151.79999999999998,50L154,50L156.2,50L158.4,50L160.6,50L162.8,50L165,50L167.2,50L169.4,50L171.6,50L173.8,50L176,50L178.20000000000002,50L180.39999999999998,50L182.6,50L184.79999999999998,50L187,50L189.2,50L191.4,50L193.6,50L195.8,50L198,50L200.20000000000002,50L202.4,50L204.60000000000002,50L206.79999999999998,50L209,50L211.2,50L213.4,50L215.6,50L217.8,50" stroke="#f58518" stroke-width="2"></path></g></g><path class="foreground" aria-hidden="true" d="" display="none"></path></g><g transform="translate(0,0)"><path class="background" aria-hidden="true" d="M0,0h220v100h-220Z"></path><g><g class="mark-line role-mark child_marks" role="graphics-object" aria-roledescription="line mark container"><path aria-label="Belief Threshold: 0; Mean Reward (n=10,000): -0.2045; Update Rule: Popper" role="graphics-symbol" aria-roledescription="line mark" d="M0,90.9L2.2,90.96L4.4,90.96L6.6,90.96L8.8,90.92L11,90.94L13.2,90.9L15.400000000000002,90.96L17.6,90.96L19.8,90.94L22,90.96L24.2,90.96L26.4,90.92L28.6,90.96L30.800000000000004,90.96L33,90.96L35.2,90.94L37.400000000000006,90.96L39.6,90.96L41.8,90.92L44,90.94L46.199999999999996,90.96L48.4,90.92L50.6,90.94L52.8,90.94L55,90.96L57.2,90.96L59.400000000000006,83.72L61.60000000000001,84.3L63.8,86.53999999999999L66,86.26L68.2,86.62L70.4,88.42L72.60000000000001,56.82000000000001L74.80000000000001,56.68L77,57.42L79.2,56.24L81.4,55.3L83.6,55.800000000000004L85.8,58.18L88,57.519999999999996L90.19999999999999,57.34L92.39999999999999,58.78L94.6,58.82000000000001L96.8,57.519999999999996L99,56.54L101.2,59.4L103.39999999999999,57.31999999999999L105.6,58.14L107.8,59.18L110,57.2L112.2,57.74L114.4,57.440000000000005L116.60000000000001,57.04L118.80000000000001,55.46L121.00000000000001,59.06L123.20000000000002,55.49999999999999L125.39999999999999,56.58L127.6,56.76L129.79999999999998,56.46L132,57.9L134.2,58.160000000000004L136.4,58.28L138.6,58.599999999999994L140.8,50L143,50L145.20000000000002,50L147.4,50L149.60000000000002,50L151.79999999999998,50L154,50L156.2,50L158.4,50L160.6,50L162.8,50L165,50L167.2,50L169.4,50L171.6,50L173.8,50L176,50L178.20000000000002,50L180.39999999999998,50L182.6,50L184.79999999999998,50L187,50L189.2,50L191.4,50L193.6,50L195.8,50L198,50L200.20000000000002,50L202.4,50L204.60000000000002,50L206.79999999999998,50L209,50L211.2,50L213.4,50L215.6,50L217.8,50" stroke="#e45756" stroke-width="2"></path></g></g><path class="foreground" aria-hidden="true" d="" display="none"></path></g><g transform="translate(0,0)"><path class="background" aria-hidden="true" d="M0,0h220v100h-220Z"></path><g><g class="mark-line role-mark child_marks" role="graphics-object" aria-roledescription="line mark container"><path aria-label="Belief Threshold: 0; Mean Reward (n=10,000): -0.2046; Update Rule: Bayes" role="graphics-symbol" aria-roledescription="line mark" d="M0,90.92L2.2,90.94L4.4,90.9L6.6,90.96L8.8,90.96L11,90.96L13.2,90.94L15.400000000000002,90.96L17.6,90.94L19.8,90.96L22,90.9L24.2,90.96L26.4,90.94L28.6,90.94L30.800000000000004,90.96L33,90.96L35.2,90.96L37.400000000000006,90.96L39.6,90.96L41.8,90.94L44,90.94L46.199999999999996,89.2L48.4,88.08L50.6,86.84L52.8,88.24000000000001L55,89.56L57.2,57.440000000000005L59.400000000000006,56.49999999999999L61.60000000000001,57.919999999999995L63.8,57.82000000000001L66,56.36L68.2,57.18L70.4,59.06L72.60000000000001,54.89999999999999L74.80000000000001,58.519999999999996L77,57.78L79.2,58.660000000000004L81.4,57.48L83.6,55.94L85.8,57.64L88,57.98L90.19999999999999,57.220000000000006L92.39999999999999,58.58L94.6,56.46L96.8,57.099999999999994L99,58.660000000000004L101.2,50L103.39999999999999,50L105.6,50L107.8,50L110,50L112.2,50L114.4,50L116.60000000000001,50L118.80000000000001,50L121.00000000000001,50L123.20000000000002,50L125.39999999999999,50L127.6,50L129.79999999999998,50L132,50L134.2,50L136.4,50L138.6,50L140.8,50L143,50L145.20000000000002,50L147.4,50L149.60000000000002,50L151.79999999999998,50L154,50L156.2,50L158.4,50L160.6,50L162.8,50L165,50L167.2,50L169.4,50L171.6,50L173.8,50L176,50L178.20000000000002,50L180.39999999999998,50L182.6,50L184.79999999999998,50L187,50L189.2,50L191.4,50L193.6,50L195.8,50L198,50L200.20000000000002,50L202.4,50L204.60000000000002,50L206.79999999999998,50L209,50L211.2,50L213.4,50L215.6,50L217.8,50" stroke="#4c78a8" stroke-width="2"></path></g></g><path class="foreground" aria-hidden="true" d="" display="none"></path></g></g><g class="mark-group role-title"><g transform="translate(110,-20)"><path class="background" aria-hidden="true" d="M0,0h0v0h0Z" pointer-events="none"></path><g><g class="mark-text role-title-text" role="graphics-symbol" aria-roledescription="title" aria-label="Title text '5'" pointer-events="none"><text text-anchor="middle" transform="translate(0,8)" font-family="sans-serif" font-size="10px" fill="#000" opacity="1">5</text></g></g><path class="foreground" aria-hidden="true" d="" pointer-events="none" display="none"></path></g></g></g><path class="foreground" aria-hidden="true" d="" display="none"></path></g><g transform="translate(244,0)"><path class="background" aria-hidden="true" d="M0.5,0.5h220v100h-220Z" stroke="#ddd"></path><g><g class="mark-group role-axis" aria-hidden="true"><g transform="translate(0.5,100.5)"><path class="background" aria-hidden="true" d="M0,0h0v0h0Z" pointer-events="none"></path><g><g class="mark-rule role-axis-grid" pointer-events="none"><line transform="translate(0,-100)" x2="0" y2="100" stroke="#ddd" stroke-width="1" opacity="1"></line><line transform="translate(44,-100)" x2="0" y2="100" stroke="#ddd" stroke-width="1" opacity="1"></line><line transform="translate(88,-100)" x2="0" y2="100" stroke="#ddd" stroke-width="1" opacity="1"></line><line transform="translate(132,-100)" x2="0" y2="100" stroke="#ddd" stroke-width="1" opacity="1"></line><line transform="translate(176,-100)" x2="0" y2="100" stroke="#ddd" stroke-width="1" opacity="1"></line><line transform="translate(220,-100)" x2="0" y2="100" stroke="#ddd" stroke-width="1" opacity="1"></line></g></g><path class="foreground" aria-hidden="true" d="" pointer-events="none" display="none"></path></g></g><g class="mark-group role-axis" aria-hidden="true"><g transform="translate(0.5,0.5)"><path class="background" aria-hidden="true" d="M0,0h0v0h0Z" pointer-events="none"></path><g><g class="mark-rule role-axis-grid" pointer-events="none"><line transform="translate(0,90)" x2="220" y2="0" stroke="#ddd" stroke-width="1" opacity="1"></line><line transform="translate(0,50)" x2="220" y2="0" stroke="#ddd" stroke-width="1" opacity="1"></line><line transform="translate(0,10)" x2="220" y2="0" stroke="#ddd" stroke-width="1" opacity="1"></line></g></g><path class="foreground" aria-hidden="true" d="" pointer-events="none" display="none"></path></g></g><g class="mark-group role-scope child_pathgroup" role="graphics-object" aria-roledescription="group mark container"><g transform="translate(0,0)"><path class="background" aria-hidden="true" d="M0,0h220v100h-220Z"></path><g><g class="mark-line role-mark child_marks" role="graphics-object" aria-roledescription="line mark container"><path aria-label="Belief Threshold: 0; Mean Reward (n=10,000): -0.1622; Update Rule: Schupbach" role="graphics-symbol" aria-roledescription="line mark" d="M0,82.44L2.2,80.46L4.4,81.56L6.6,83.11999999999999L8.8,79.94L11,77.96000000000001L13.2,82L15.400000000000002,80.84L17.6,80.56L19.8,79L22,80.72L24.2,81.67999999999999L26.4,80.89999999999999L28.6,78.28L30.800000000000004,76.25999999999999L33,78.28L35.2,79.84L37.400000000000006,82.88L39.6,85.08L41.8,77.88L44,84.00000000000001L46.199999999999996,79.84L48.4,76.6L50.6,79.94L52.8,81.46L55,74.64L57.2,81.89999999999999L59.400000000000006,77.88L61.60000000000001,82.34L63.8,80.02L66,79.64L68.2,80.44L70.4,80.64L72.60000000000001,79.16000000000001L74.80000000000001,80.24L77,80.24L79.2,72.8L81.4,55.22L83.6,59.06L85.8,43.34L88,42.779999999999994L90.19999999999999,43.599999999999994L92.39999999999999,42.42L94.6,42.72L96.8,32.96L99,32.14L101.2,31.08L103.39999999999999,33.220000000000006L105.6,35.760000000000005L107.8,31.220000000000002L110,35.12L112.2,33.68L114.4,31.56L116.60000000000001,33.02L118.80000000000001,33.34L121.00000000000001,32.9L123.20000000000002,34.93999999999999L125.39999999999999,33.14L127.6,34.58L129.79999999999998,35.419999999999995L132,36.22L134.2,31.200000000000006L136.4,31.000000000000007L138.6,29.64L140.8,30.820000000000004L143,30.699999999999996L145.20000000000002,32.49999999999999L147.4,31.740000000000002L149.60000000000002,29.56L151.79999999999998,32.42L154,30.759999999999998L156.2,33.18L158.4,32.56L160.6,31.240000000000002L162.8,31.400000000000006L165,31.94L167.2,31.64L169.4,31.240000000000002L171.6,30.679999999999996L173.8,33.699999999999996L176,32.74L178.20000000000002,31.020000000000003L180.39999999999998,31.620000000000005L182.6,31.56L184.79999999999998,50L187,50L189.2,50L191.4,50L193.6,50L195.8,50L198,50L200.20000000000002,50L202.4,50L204.60000000000002,50L206.79999999999998,50L209,50L211.2,50L213.4,50L215.6,50L217.8,50" stroke="#72b7b2" stroke-width="2"></path></g></g><path class="foreground" aria-hidden="true" d="" display="none"></path></g><g transform="translate(0,0)"><path class="background" aria-hidden="true" d="M0,0h220v100h-220Z"></path><g><g class="mark-line role-mark child_marks" role="graphics-object" aria-roledescription="line mark container"><path aria-label="Belief Threshold: 0; Mean Reward (n=10,000): -0.158; Update Rule: Good" role="graphics-symbol" aria-roledescription="line mark" d="M0,81.60000000000001L2.2,79.32000000000001L4.4,79.64L6.6,80.2L8.8,79.08L11,78.67999999999999L13.2,81.60000000000001L15.400000000000002,78.44L17.6,80.16L19.8,80.64L22,80.60000000000001L24.2,79.08L26.4,76.32L28.6,81.84L30.800000000000004,79.32000000000001L33,82.08L35.2,76.84L37.400000000000006,81.84L39.6,79.12L41.8,81.88L44,78.64L46.199999999999996,82.48L48.4,78.2L50.6,79.32000000000001L52.8,82.11999999999999L55,78.14L57.2,76.08L59.400000000000006,83.88L61.60000000000001,77.2L63.8,83.7L66,77.92L68.2,80.56L70.4,68.72L72.60000000000001,54.14L74.80000000000001,56.220000000000006L77,45.58L79.2,45.660000000000004L81.4,46.81999999999999L83.6,45.4L85.8,34.540000000000006L88,30.759999999999998L90.19999999999999,34.93999999999999L92.39999999999999,32.379999999999995L94.6,32.78L96.8,32.86L99,31.259999999999998L101.2,33.9L103.39999999999999,32.24L105.6,34.919999999999995L107.8,35L110,31.979999999999997L112.2,31.699999999999996L114.4,31.320000000000004L116.60000000000001,35.13999999999999L118.80000000000001,31.499999999999993L121.00000000000001,34.14L123.20000000000002,32.099999999999994L125.39999999999999,30.740000000000002L127.6,31.200000000000006L129.79999999999998,29.879999999999995L132,31.779999999999998L134.2,31.64L136.4,31.04L138.6,29.82L140.8,30.240000000000002L143,31.06L145.20000000000002,31.34L147.4,32.24L149.60000000000002,32.56L151.79999999999998,33.199999999999996L154,30.979999999999997L156.2,31.740000000000002L158.4,32.76L160.6,31.499999999999993L162.8,30.159999999999997L165,30.879999999999995L167.2,50L169.4,50L171.6,50L173.8,50L176,50L178.20000000000002,50L180.39999999999998,50L182.6,50L184.79999999999998,50L187,50L189.2,50L191.4,50L193.6,50L195.8,50L198,50L200.20000000000002,50L202.4,50L204.60000000000002,50L206.79999999999998,50L209,50L211.2,50L213.4,50L215.6,50L217.8,50" stroke="#f58518" stroke-width="2"></path></g></g><path class="foreground" aria-hidden="true" d="" display="none"></path></g><g transform="translate(0,0)"><path class="background" aria-hidden="true" d="M0,0h220v100h-220Z"></path><g><g class="mark-line role-mark child_marks" role="graphics-object" aria-roledescription="line mark container"><path aria-label="Belief Threshold: 0; Mean Reward (n=10,000): -0.1432; Update Rule: Popper" role="graphics-symbol" aria-roledescription="line mark" d="M0,78.64L2.2,80.76L4.4,81.88L6.6,79.02L8.8,81.2L11,77.84L13.2,81.64L15.400000000000002,77.4L17.6,81.32L19.8,82.84L22,79.28L24.2,81.60000000000001L26.4,82.60000000000001L28.6,79.56L30.800000000000004,83.80000000000001L33,81.56L35.2,84.28L37.400000000000006,81.4L39.6,84.76L41.8,79.16000000000001L44,83.72L46.199999999999996,78.08L48.4,79.38000000000001L50.6,80.28L52.8,82.4L55,80.44L57.2,79.94L59.400000000000006,81.08L61.60000000000001,82.32L63.8,83.64L66,83.16L68.2,77.84L70.4,78.24L72.60000000000001,77.92L74.80000000000001,79.67999999999999L77,79.67999999999999L79.2,72.18L81.4,56.46L83.6,60.3L85.8,46.74L88,44.66L90.19999999999999,43.26L92.39999999999999,44.56L94.6,46.120000000000005L96.8,33.34L99,33.76L101.2,34.18L103.39999999999999,34.9L105.6,36.22L107.8,32.78L110,35.9L112.2,36.68L114.4,31.840000000000003L116.60000000000001,34.14L118.80000000000001,32.60000000000001L121.00000000000001,33.64L123.20000000000002,32.099999999999994L125.39999999999999,31.58L127.6,33.64L129.79999999999998,32.66L132,31.06L134.2,31.86L136.4,31.259999999999998L138.6,31.66L140.8,32.2L143,31.520000000000003L145.20000000000002,29.800000000000004L147.4,31.34L149.60000000000002,31.259999999999998L151.79999999999998,30.000000000000004L154,32.74L156.2,31.759999999999998L158.4,31.540000000000003L160.6,31.94L162.8,30.499999999999993L165,31.699999999999996L167.2,31.179999999999996L169.4,31.259999999999998L171.6,31.259999999999998L173.8,31.840000000000003L176,31.320000000000004L178.20000000000002,33.24L180.39999999999998,30.64L182.6,33.699999999999996L184.79999999999998,32.14L187,50L189.2,50L191.4,50L193.6,50L195.8,50L198,50L200.20000000000002,50L202.4,50L204.60000000000002,50L206.79999999999998,50L209,50L211.2,50L213.4,50L215.6,50L217.8,50" stroke="#e45756" stroke-width="2"></path></g></g><path class="foreground" aria-hidden="true" d="" display="none"></path></g><g transform="translate(0,0)"><path class="background" aria-hidden="true" d="M0,0h220v100h-220Z"></path><g><g class="mark-line role-mark child_marks" role="graphics-object" aria-roledescription="line mark container"><path aria-label="Belief Threshold: 0; Mean Reward (n=10,000): -0.176; Update Rule: Bayes" role="graphics-symbol" aria-roledescription="line mark" d="M0,85.2L2.2,83L4.4,82.60000000000001L6.6,78.36000000000001L8.8,80.4L11,78.60000000000001L13.2,78.36000000000001L15.400000000000002,81.56L17.6,77.8L19.8,80.88L22,81.84L24.2,81.2L26.4,76.76L28.6,81.67999999999999L30.800000000000004,80.64L33,81.32L35.2,82.52L37.400000000000006,80.56L39.6,82.84L41.8,82.96L44,83.32L46.199999999999996,81.11999999999999L48.4,79.67999999999999L50.6,78.88L52.8,79.64L55,78.24L57.2,84.88L59.400000000000006,83.32L61.60000000000001,59.13999999999999L63.8,58.71999999999999L66,46.540000000000006L68.2,46.46L70.4,44.42L72.60000000000001,45.96L74.80000000000001,33.42L77,35.160000000000004L79.2,31.800000000000004L81.4,32.54L83.6,32.60000000000001L85.8,32.24L88,33.040000000000006L90.19999999999999,32.120000000000005L92.39999999999999,34.24L94.6,34.93999999999999L96.8,32.16L99,31.879999999999995L101.2,32.64L103.39999999999999,31.36L105.6,30.740000000000002L107.8,29.56L110,32.08L112.2,32.48L114.4,31.96L116.60000000000001,32.58L118.80000000000001,31.400000000000006L121.00000000000001,31.099999999999994L123.20000000000002,32.68L125.39999999999999,32.3L127.6,32.16L129.79999999999998,32.919999999999995L132,30.14L134.2,32.02L136.4,31.379999999999995L138.6,28.04L140.8,31.34L143,30.36L145.20000000000002,30.499999999999993L147.4,30.14L149.60000000000002,50L151.79999999999998,50L154,50L156.2,50L158.4,50L160.6,50L162.8,50L165,50L167.2,50L169.4,50L171.6,50L173.8,50L176,50L178.20000000000002,50L180.39999999999998,50L182.6,50L184.79999999999998,50L187,50L189.2,50L191.4,50L193.6,50L195.8,50L198,50L200.20000000000002,50L202.4,50L204.60000000000002,50L206.79999999999998,50L209,50L211.2,50L213.4,50L215.6,50L217.8,50" stroke="#4c78a8" stroke-width="2"></path></g></g><path class="foreground" aria-hidden="true" d="" display="none"></path></g></g><g class="mark-group role-title"><g transform="translate(110,-20)"><path class="background" aria-hidden="true" d="M0,0h0v0h0Z" pointer-events="none"></path><g><g class="mark-text role-title-text" role="graphics-symbol" aria-roledescription="title" aria-label="Title text '10'" pointer-events="none"><text text-anchor="middle" transform="translate(0,8)" font-family="sans-serif" font-size="10px" fill="#000" opacity="1">10</text></g></g><path class="foreground" aria-hidden="true" d="" pointer-events="none" display="none"></path></g></g></g><path class="foreground" aria-hidden="true" d="" display="none"></path></g><g transform="translate(0,142)"><path class="background" aria-hidden="true" d="M0.5,0.5h220v100h-220Z" stroke="#ddd"></path><g><g class="mark-group role-axis" aria-hidden="true"><g transform="translate(0.5,100.5)"><path class="background" aria-hidden="true" d="M0,0h0v0h0Z" pointer-events="none"></path><g><g class="mark-rule role-axis-grid" pointer-events="none"><line transform="translate(0,-100)" x2="0" y2="100" stroke="#ddd" stroke-width="1" opacity="1"></line><line transform="translate(44,-100)" x2="0" y2="100" stroke="#ddd" stroke-width="1" opacity="1"></line><line transform="translate(88,-100)" x2="0" y2="100" stroke="#ddd" stroke-width="1" opacity="1"></line><line transform="translate(132,-100)" x2="0" y2="100" stroke="#ddd" stroke-width="1" opacity="1"></line><line transform="translate(176,-100)" x2="0" y2="100" stroke="#ddd" stroke-width="1" opacity="1"></line><line transform="translate(220,-100)" x2="0" y2="100" stroke="#ddd" stroke-width="1" opacity="1"></line></g></g><path class="foreground" aria-hidden="true" d="" pointer-events="none" display="none"></path></g></g><g class="mark-group role-axis" aria-hidden="true"><g transform="translate(0.5,0.5)"><path class="background" aria-hidden="true" d="M0,0h0v0h0Z" pointer-events="none"></path><g><g class="mark-rule role-axis-grid" pointer-events="none"><line transform="translate(0,90)" x2="220" y2="0" stroke="#ddd" stroke-width="1" opacity="1"></line><line transform="translate(0,50)" x2="220" y2="0" stroke="#ddd" stroke-width="1" opacity="1"></line><line transform="translate(0,10)" x2="220" y2="0" stroke="#ddd" stroke-width="1" opacity="1"></line></g></g><path class="foreground" aria-hidden="true" d="" pointer-events="none" display="none"></path></g></g><g class="mark-group role-scope child_pathgroup" role="graphics-object" aria-roledescription="group mark container"><g transform="translate(0,0)"><path class="background" aria-hidden="true" d="M0,0h220v100h-220Z"></path><g><g class="mark-line role-mark child_marks" role="graphics-object" aria-roledescription="line mark container"><path aria-label="Belief Threshold: 0; Mean Reward (n=10,000): -0.0314; Update Rule: Schupbach" role="graphics-symbol" aria-roledescription="line mark" d="M0,56.279999999999994L2.2,55.76L4.4,57.519999999999996L6.6,53.56000000000001L8.8,53.04L11,55.24L13.2,55.76L15.400000000000002,56.44L17.6,54.76L19.8,52.47999999999999L22,55.48L24.2,54.48L26.4,54.67999999999999L28.6,54.64L30.800000000000004,55.2L33,55.60000000000001L35.2,53.56000000000001L37.400000000000006,56.84L39.6,55.76L41.8,56.08L44,53.839999999999996L46.199999999999996,56.04L48.4,51.04L50.6,59.199999999999996L52.8,55.00000000000001L55,55.67999999999999L57.2,52.400000000000006L59.400000000000006,51.36000000000001L61.60000000000001,50.03999999999999L63.8,53.44L66,54.120000000000005L68.2,51.760000000000005L70.4,57.71999999999999L72.60000000000001,55.67999999999999L74.80000000000001,52.36000000000001L77,53.6L79.2,55.92L81.4,55.32L83.6,52.32L85.8,52L88,51.879999999999995L90.19999999999999,46.81999999999999L92.39999999999999,48.12L94.6,36.56L96.8,39.44L99,31.34L101.2,23.560000000000002L103.39999999999999,21.70000000000001L105.6,23.9L107.8,23.080000000000002L110,23.599999999999998L112.2,22.639999999999993L114.4,25.1L116.60000000000001,20.040000000000003L118.80000000000001,16.779999999999994L121.00000000000001,15.200000000000003L123.20000000000002,16.660000000000007L125.39999999999999,15.579999999999995L127.6,17.179999999999996L129.79999999999998,17.92L132,16.92L134.2,17.700000000000003L136.4,15.739999999999998L138.6,17.159999999999997L140.8,16.900000000000006L143,12.539999999999996L145.20000000000002,16.660000000000007L147.4,18.259999999999998L149.60000000000002,16.379999999999995L151.79999999999998,15.939999999999998L154,16.460000000000008L156.2,18.399999999999995L158.4,15.239999999999998L160.6,16.779999999999994L162.8,15.52L165,16.779999999999994L167.2,16.280000000000005L169.4,15.920000000000002L171.6,14.3L173.8,16.359999999999996L176,16.14L178.20000000000002,15.359999999999996L180.39999999999998,17.379999999999995L182.6,14.860000000000007L184.79999999999998,16.300000000000004L187,22.46L189.2,24.239999999999995L191.4,22.299999999999997L193.6,23.2L195.8,22.560000000000002L198,23.520000000000007L200.20000000000002,22.799999999999997L202.4,22.439999999999994L204.60000000000002,25.439999999999998L206.79999999999998,50L209,50L211.2,50L213.4,50L215.6,50L217.8,50" stroke="#72b7b2" stroke-width="2"></path></g></g><path class="foreground" aria-hidden="true" d="" display="none"></path></g><g transform="translate(0,0)"><path class="background" aria-hidden="true" d="M0,0h220v100h-220Z"></path><g><g class="mark-line role-mark child_marks" role="graphics-object" aria-roledescription="line mark container"><path aria-label="Belief Threshold: 0; Mean Reward (n=10,000): -0.0086; Update Rule: Good" role="graphics-symbol" aria-roledescription="line mark" d="M0,51.72L2.2,53.92L4.4,58.11999999999999L6.6,55.32L8.8,54.36L11,53.04L13.2,54.120000000000005L15.400000000000002,53.12L17.6,55.44L19.8,53.879999999999995L22,53.800000000000004L24.2,52.92L26.4,53.44L28.6,58.599999999999994L30.800000000000004,57.56L33,51.47999999999999L35.2,55.120000000000005L37.400000000000006,53.239999999999995L39.6,53.879999999999995L41.8,57.48L44,49.2L46.199999999999996,52.47999999999999L48.4,58.040000000000006L50.6,55.120000000000005L52.8,54.36L55,54.84L57.2,53.92L59.400000000000006,53.6L61.60000000000001,50.12L63.8,54.67999999999999L66,53.12L68.2,56.84L70.4,53.36000000000001L72.60000000000001,53.839999999999996L74.80000000000001,56.400000000000006L77,54.120000000000005L79.2,52.52L81.4,49.660000000000004L83.6,40.92L85.8,31.44L88,29.14L90.19999999999999,26.160000000000004L92.39999999999999,22.38L94.6,23.68L96.8,21.70000000000001L99,24.3L101.2,19.540000000000003L103.39999999999999,19.900000000000006L105.6,14.860000000000007L107.8,15.460000000000008L110,17.04L112.2,16.439999999999998L114.4,15.460000000000008L116.60000000000001,15.300000000000002L118.80000000000001,15.600000000000003L121.00000000000001,16.74L123.20000000000002,15.620000000000001L125.39999999999999,17.459999999999997L127.6,16.439999999999998L129.79999999999998,16.700000000000003L132,16.02L134.2,15.339999999999998L136.4,16.480000000000004L138.6,17.06L140.8,16.439999999999998L143,16.179999999999993L145.20000000000002,16.999999999999993L147.4,18.61999999999999L149.60000000000002,15.900000000000002L151.79999999999998,16.999999999999993L154,15.999999999999993L156.2,16.520000000000003L158.4,15.920000000000002L160.6,17.34L162.8,15.239999999999998L165,22.720000000000006L167.2,22.799999999999997L169.4,21.940000000000005L171.6,23.639999999999993L173.8,25.52L176,23.120000000000008L178.20000000000002,22.219999999999995L180.39999999999998,22.720000000000006L182.6,22.639999999999993L184.79999999999998,24.680000000000003L187,22.68L189.2,22.68L191.4,24.519999999999996L193.6,50L195.8,50L198,50L200.20000000000002,50L202.4,50L204.60000000000002,50L206.79999999999998,50L209,50L211.2,50L213.4,50L215.6,50L217.8,50" stroke="#f58518" stroke-width="2"></path></g></g><path class="foreground" aria-hidden="true" d="" display="none"></path></g><g transform="translate(0,0)"><path class="background" aria-hidden="true" d="M0,0h220v100h-220Z"></path><g><g class="mark-line role-mark child_marks" role="graphics-object" aria-roledescription="line mark container"><path aria-label="Belief Threshold: 0; Mean Reward (n=10,000): -0.0194; Update Rule: Popper" role="graphics-symbol" aria-roledescription="line mark" d="M0,53.879999999999995L2.2,56.11999999999999L4.4,53.96000000000001L6.6,56.11999999999999L8.8,54.279999999999994L11,54.400000000000006L13.2,55.60000000000001L15.400000000000002,52.839999999999996L17.6,53.64L19.8,57.879999999999995L22,55.08L24.2,56.800000000000004L26.4,55.120000000000005L28.6,53.92L30.800000000000004,55.08L33,52.64L35.2,54.64L37.400000000000006,55.720000000000006L39.6,53.64L41.8,54.84L44,54.400000000000006L46.199999999999996,53.32L48.4,54.48L50.6,52.879999999999995L52.8,56.64L55,55.04L57.2,55.64L59.400000000000006,53.92L61.60000000000001,54.67999999999999L63.8,54.16L66,56.44L68.2,55.559999999999995L70.4,53.48L72.60000000000001,56.24L74.80000000000001,52.2L77,55.76L79.2,56.36L81.4,52L83.6,55.2L85.8,56.919999999999995L88,55.279999999999994L90.19999999999999,46.74L92.39999999999999,46.660000000000004L94.6,36.6L96.8,28.659999999999997L99,23.92000000000001L101.2,22.540000000000006L103.39999999999999,23.960000000000004L105.6,22.26L107.8,24.6L110,21.999999999999996L112.2,22.98L114.4,22.140000000000004L116.60000000000001,16.559999999999995L118.80000000000001,14.800000000000002L121.00000000000001,18.100000000000005L123.20000000000002,17.720000000000002L125.39999999999999,16.39999999999999L127.6,14.460000000000006L129.79999999999998,15.839999999999998L132,17.94L134.2,15.080000000000005L136.4,15.939999999999998L138.6,14.12L140.8,16.199999999999992L143,16.199999999999992L145.20000000000002,18.04L147.4,15.860000000000007L149.60000000000002,16.82L151.79999999999998,16.12L154,16.880000000000006L156.2,14.000000000000002L158.4,16.900000000000006L160.6,17.520000000000003L162.8,15.700000000000003L165,15.959999999999997L167.2,16.599999999999994L169.4,16.34L171.6,15.579999999999995L173.8,17.599999999999994L176,16.999999999999993L178.20000000000002,14.779999999999994L180.39999999999998,14.900000000000002L182.6,21.4L184.79999999999998,21.36L187,21.639999999999993L189.2,22.560000000000002L191.4,22.499999999999996L193.6,22.940000000000005L195.8,21.720000000000006L198,22.140000000000004L200.20000000000002,23.419999999999995L202.4,23.599999999999998L204.60000000000002,21.279999999999998L206.79999999999998,50L209,50L211.2,50L213.4,50L215.6,50L217.8,50" stroke="#e45756" stroke-width="2"></path></g></g><path class="foreground" aria-hidden="true" d="" display="none"></path></g><g transform="translate(0,0)"><path class="background" aria-hidden="true" d="M0,0h220v100h-220Z"></path><g><g class="mark-line role-mark child_marks" role="graphics-object" aria-roledescription="line mark container"><path aria-label="Belief Threshold: 0; Mean Reward (n=10,000): -0.0336; Update Rule: Bayes" role="graphics-symbol" aria-roledescription="line mark" d="M0,56.71999999999999L2.2,53.44L4.4,52.36000000000001L6.6,55.84L8.8,53.32L11,55.400000000000006L13.2,52.56000000000001L15.400000000000002,53.32L17.6,52.04L19.8,54.32L22,58.36L24.2,52.96000000000001L26.4,53.92L28.6,55.279999999999994L30.800000000000004,57.800000000000004L33,54.52L35.2,54.04L37.400000000000006,51.36000000000001L39.6,53.52L41.8,53.67999999999999L44,55.52L46.199999999999996,54.279999999999994L48.4,55.2L50.6,53.279999999999994L52.8,53.67999999999999L55,55.00000000000001L57.2,53.239999999999995L59.400000000000006,53.56000000000001L61.60000000000001,59.28L63.8,56.48L66,53L68.2,53.48L70.4,45.599999999999994L72.60000000000001,36.4L74.80000000000001,32.49999999999999L77,23.799999999999997L79.2,24.78L81.4,24.960000000000004L83.6,22.660000000000004L85.8,23.659999999999993L88,20.500000000000007L90.19999999999999,19.479999999999997L92.39999999999999,21.88L94.6,20.38L96.8,16.14L99,16.84L101.2,16.04L103.39999999999999,17.300000000000004L105.6,16.720000000000002L107.8,15.680000000000005L110,16.300000000000004L112.2,16.82L114.4,17.04L116.60000000000001,16.439999999999998L118.80000000000001,16.359999999999996L121.00000000000001,15.039999999999997L123.20000000000002,15.080000000000005L125.39999999999999,16.779999999999994L127.6,15.300000000000002L129.79999999999998,15.480000000000004L132,15.779999999999994L134.2,15.200000000000003L136.4,17.020000000000003L138.6,17.579999999999995L140.8,17.300000000000004L143,16.04L145.20000000000002,16.779999999999994L147.4,16.700000000000003L149.60000000000002,24.019999999999996L151.79999999999998,22.48L154,22.019999999999996L156.2,22.160000000000004L158.4,23.819999999999997L160.6,23.340000000000003L162.8,22.860000000000003L165,23.520000000000007L167.2,22.720000000000006L169.4,21.43999999999999L171.6,20.900000000000006L173.8,22.140000000000004L176,22.299999999999997L178.20000000000002,50L180.39999999999998,50L182.6,50L184.79999999999998,50L187,50L189.2,50L191.4,50L193.6,50L195.8,50L198,50L200.20000000000002,50L202.4,50L204.60000000000002,50L206.79999999999998,50L209,50L211.2,50L213.4,50L215.6,50L217.8,50" stroke="#4c78a8" stroke-width="2"></path></g></g><path class="foreground" aria-hidden="true" d="" display="none"></path></g></g><g class="mark-group role-title"><g transform="translate(110,-20)"><path class="background" aria-hidden="true" d="M0,0h0v0h0Z" pointer-events="none"></path><g><g class="mark-text role-title-text" role="graphics-symbol" aria-roledescription="title" aria-label="Title text '15'" pointer-events="none"><text text-anchor="middle" transform="translate(0,8)" font-family="sans-serif" font-size="10px" fill="#000" opacity="1">15</text></g></g><path class="foreground" aria-hidden="true" d="" pointer-events="none" display="none"></path></g></g></g><path class="foreground" aria-hidden="true" d="" display="none"></path></g><g transform="translate(244,142)"><path class="background" aria-hidden="true" d="M0.5,0.5h220v100h-220Z" stroke="#ddd"></path><g><g class="mark-group role-axis" aria-hidden="true"><g transform="translate(0.5,100.5)"><path class="background" aria-hidden="true" d="M0,0h0v0h0Z" pointer-events="none"></path><g><g class="mark-rule role-axis-grid" pointer-events="none"><line transform="translate(0,-100)" x2="0" y2="100" stroke="#ddd" stroke-width="1" opacity="1"></line><line transform="translate(44,-100)" x2="0" y2="100" stroke="#ddd" stroke-width="1" opacity="1"></line><line transform="translate(88,-100)" x2="0" y2="100" stroke="#ddd" stroke-width="1" opacity="1"></line><line transform="translate(132,-100)" x2="0" y2="100" stroke="#ddd" stroke-width="1" opacity="1"></line><line transform="translate(176,-100)" x2="0" y2="100" stroke="#ddd" stroke-width="1" opacity="1"></line><line transform="translate(220,-100)" x2="0" y2="100" stroke="#ddd" stroke-width="1" opacity="1"></line></g></g><path class="foreground" aria-hidden="true" d="" pointer-events="none" display="none"></path></g></g><g class="mark-group role-axis" aria-hidden="true"><g transform="translate(0.5,0.5)"><path class="background" aria-hidden="true" d="M0,0h0v0h0Z" pointer-events="none"></path><g><g class="mark-rule role-axis-grid" pointer-events="none"><line transform="translate(0,90)" x2="220" y2="0" stroke="#ddd" stroke-width="1" opacity="1"></line><line transform="translate(0,50)" x2="220" y2="0" stroke="#ddd" stroke-width="1" opacity="1"></line><line transform="translate(0,10)" x2="220" y2="0" stroke="#ddd" stroke-width="1" opacity="1"></line></g></g><path class="foreground" aria-hidden="true" d="" pointer-events="none" display="none"></path></g></g><g class="mark-group role-scope child_pathgroup" role="graphics-object" aria-roledescription="group mark container"><g transform="translate(0,0)"><path class="background" aria-hidden="true" d="M0,0h220v100h-220Z"></path><g><g class="mark-line role-mark child_marks" role="graphics-object" aria-roledescription="line mark container"><path aria-label="Belief Threshold: 0; Mean Reward (n=10,000): 0.0704; Update Rule: Schupbach" role="graphics-symbol" aria-roledescription="line mark" d="M0,35.919999999999995L2.2,36.84L4.4,36.440000000000005L6.6,36.760000000000005L8.8,35.68L11,38.839999999999996L13.2,36.56L15.400000000000002,39.44L17.6,40.04L19.8,37.440000000000005L22,35.68L24.2,37.2L26.4,36.72L28.6,33.599999999999994L30.800000000000004,31.800000000000004L33,35.199999999999996L35.2,39.6L37.400000000000006,33.24L39.6,32.28L41.8,34.56L44,36.56L46.199999999999996,30.800000000000004L48.4,33.199999999999996L50.6,39.839999999999996L52.8,37.8L55,36.28L57.2,36.24000000000001L59.400000000000006,36.040000000000006L61.60000000000001,39.519999999999996L63.8,35.160000000000004L66,33.040000000000006L68.2,37.24000000000001L70.4,37.4L72.60000000000001,37.519999999999996L74.80000000000001,35.36L77,32.96L79.2,36.919999999999995L81.4,33.599999999999994L83.6,35.64000000000001L85.8,34.599999999999994L88,36L90.19999999999999,34.519999999999996L92.39999999999999,29.459999999999997L94.6,24.4L96.8,26.939999999999998L99,28.34L101.2,21.23999999999999L103.39999999999999,22.9L105.6,19.36L107.8,22.160000000000004L110,17.080000000000005L112.2,15.02L114.4,10.58L116.60000000000001,13.200000000000001L118.80000000000001,9.260000000000002L121.00000000000001,9.939999999999994L123.20000000000002,9.060000000000002L125.39999999999999,9.040000000000003L127.6,9.040000000000003L129.79999999999998,9.040000000000003L132,9.040000000000003L134.2,9.040000000000003L136.4,9.040000000000003L138.6,9.040000000000003L140.8,9.040000000000003L143,9.040000000000003L145.20000000000002,9.040000000000003L147.4,9.079999999999998L149.60000000000002,9.040000000000003L151.79999999999998,9.040000000000003L154,9.040000000000003L156.2,9.040000000000003L158.4,9.060000000000002L160.6,9.060000000000002L162.8,9.040000000000003L165,9.040000000000003L167.2,9.040000000000003L169.4,9.040000000000003L171.6,9.040000000000003L173.8,11.580000000000002L176,9.999999999999998L178.20000000000002,10.280000000000001L180.39999999999998,11.820000000000007L182.6,10.220000000000006L184.79999999999998,12.580000000000002L187,12.359999999999992L189.2,13.179999999999993L191.4,12.840000000000007L193.6,11.880000000000003L195.8,10.739999999999995L198,11.7L200.20000000000002,11.539999999999996L202.4,11.959999999999994L204.60000000000002,12.759999999999994L206.79999999999998,9.660000000000002L209,18.259999999999998L211.2,18.28000000000001L213.4,19.399999999999995L215.6,50L217.8,50" stroke="#72b7b2" stroke-width="2"></path></g></g><path class="foreground" aria-hidden="true" d="" display="none"></path></g><g transform="translate(0,0)"><path class="background" aria-hidden="true" d="M0,0h220v100h-220Z"></path><g><g class="mark-line role-mark child_marks" role="graphics-object" aria-roledescription="line mark container"><path aria-label="Belief Threshold: 0; Mean Reward (n=10,000): 0.071; Update Rule: Good" role="graphics-symbol" aria-roledescription="line mark" d="M0,35.8L2.2,36.96L4.4,40.68000000000001L6.6,37.28L8.8,34.64L11,35.64000000000001L13.2,35.8L15.400000000000002,33.919999999999995L17.6,36.28L19.8,33.56L22,37.040000000000006L24.2,35.84L26.4,35.8L28.6,36.160000000000004L30.800000000000004,34.84L33,37L35.2,34.8L37.400000000000006,29.32L39.6,38.239999999999995L41.8,31.44L44,35.919999999999995L46.199999999999996,37.760000000000005L48.4,33.11999999999999L50.6,34.760000000000005L52.8,38.35999999999999L55,37.519999999999996L57.2,36.88L59.400000000000006,37.480000000000004L61.60000000000001,36.24000000000001L63.8,39L66,34.4L68.2,38.959999999999994L70.4,35.08L72.60000000000001,32.56L74.80000000000001,33.879999999999995L77,37.28L79.2,35.12L81.4,35.24L83.6,28.859999999999996L85.8,26.900000000000002L88,23.859999999999992L90.19999999999999,27.059999999999995L92.39999999999999,24.9L94.6,18.88000000000001L96.8,13.179999999999993L99,10.919999999999996L101.2,16.199999999999992L103.39999999999999,9.160000000000002L105.6,9.040000000000003L107.8,9.040000000000003L110,10.099999999999998L112.2,9.040000000000003L114.4,11.099999999999998L116.60000000000001,9.040000000000003L118.80000000000001,9.040000000000003L121.00000000000001,9.040000000000003L123.20000000000002,9.060000000000002L125.39999999999999,9.040000000000003L127.6,9.040000000000003L129.79999999999998,9.040000000000003L132,9.040000000000003L134.2,9.040000000000003L136.4,9.060000000000002L138.6,9.040000000000003L140.8,9.040000000000003L143,9.040000000000003L145.20000000000002,9.040000000000003L147.4,9.040000000000003L149.60000000000002,9.040000000000003L151.79999999999998,12.240000000000006L154,10.860000000000003L156.2,9.28L158.4,12.7L160.6,12.1L162.8,11.159999999999993L165,12.419999999999998L167.2,11.359999999999992L169.4,13.060000000000006L171.6,10.160000000000002L173.8,11.139999999999993L176,10.48L178.20000000000002,11.539999999999996L180.39999999999998,9.960000000000003L182.6,10.139999999999993L184.79999999999998,11.099999999999998L187,10.420000000000007L189.2,12.1L191.4,19.759999999999998L193.6,17.84L195.8,19.619999999999994L198,18.759999999999998L200.20000000000002,17.500000000000004L202.4,18.58L204.60000000000002,17.92L206.79999999999998,50L209,50L211.2,50L213.4,50L215.6,50L217.8,50" stroke="#f58518" stroke-width="2"></path></g></g><path class="foreground" aria-hidden="true" d="" display="none"></path></g><g transform="translate(0,0)"><path class="background" aria-hidden="true" d="M0,0h220v100h-220Z"></path><g><g class="mark-line role-mark child_marks" role="graphics-object" aria-roledescription="line mark container"><path aria-label="Belief Threshold: 0; Mean Reward (n=10,000): 0.067; Update Rule: Popper" role="graphics-symbol" aria-roledescription="line mark" d="M0,36.6L2.2,39.6L4.4,37.63999999999999L6.6,34.040000000000006L8.8,37.8L11,35.96L13.2,40.400000000000006L15.400000000000002,35.6L17.6,35.36L19.8,33.48L22,36L24.2,31.840000000000003L26.4,36.199999999999996L28.6,34.36L30.800000000000004,35.08L33,38.28L35.2,38.2L37.400000000000006,34.28L39.6,32.800000000000004L41.8,37.440000000000005L44,35.96L46.199999999999996,32.56L48.4,34.68L50.6,35.6L52.8,32.879999999999995L55,38.72L57.2,35.84L59.400000000000006,36.84L61.60000000000001,35.12L63.8,36.919999999999995L66,40.36L68.2,33.31999999999999L70.4,33.8L72.60000000000001,33.440000000000005L74.80000000000001,35.88L77,35.84L79.2,35.12L81.4,33.440000000000005L83.6,35.96L85.8,33.28L88,31.679999999999996L90.19999999999999,38.6L92.39999999999999,31.379999999999995L94.6,26.22L96.8,25.78L99,26.580000000000005L101.2,21.060000000000002L103.39999999999999,21.500000000000007L105.6,18.66L107.8,17.12L110,9.200000000000008L112.2,9.879999999999999L114.4,10.959999999999992L116.60000000000001,9.060000000000002L118.80000000000001,9.040000000000003L121.00000000000001,9.040000000000003L123.20000000000002,9.060000000000002L125.39999999999999,9.060000000000002L127.6,9.040000000000003L129.79999999999998,9.960000000000003L132,9.060000000000002L134.2,9.040000000000003L136.4,9.040000000000003L138.6,9.040000000000003L140.8,9.040000000000003L143,9.040000000000003L145.20000000000002,9.040000000000003L147.4,9.040000000000003L149.60000000000002,9.040000000000003L151.79999999999998,9.060000000000002L154,9.060000000000002L156.2,9.160000000000002L158.4,9.040000000000003L160.6,9.040000000000003L162.8,9.060000000000002L165,9.040000000000003L167.2,9.040000000000003L169.4,11.6L171.6,11.799999999999999L173.8,9.999999999999998L176,10.939999999999994L178.20000000000002,10.599999999999998L180.39999999999998,9.860000000000003L182.6,11.620000000000008L184.79999999999998,10.7L187,11.240000000000006L189.2,10.160000000000002L191.4,11.060000000000002L193.6,12.3L195.8,9.919999999999995L198,10.280000000000001L200.20000000000002,9.319999999999995L202.4,10.620000000000008L204.60000000000002,10.260000000000002L206.79999999999998,17.94L209,18.779999999999998L211.2,17.659999999999997L213.4,19.100000000000005L215.6,50L217.8,50" stroke="#e45756" stroke-width="2"></path></g></g><path class="foreground" aria-hidden="true" d="" display="none"></path></g><g transform="translate(0,0)"><path class="background" aria-hidden="true" d="M0,0h220v100h-220Z"></path><g><g class="mark-line role-mark child_marks" role="graphics-object" aria-roledescription="line mark container"><path aria-label="Belief Threshold: 0; Mean Reward (n=10,000): 0.072; Update Rule: Bayes" role="graphics-symbol" aria-roledescription="line mark" d="M0,35.6L2.2,35.36L4.4,37.68L6.6,33.199999999999996L8.8,38.68000000000001L11,36.440000000000005L13.2,34.160000000000004L15.400000000000002,34.28L17.6,37.88L19.8,38.2L22,32.56L24.2,38.28L26.4,35.64000000000001L28.6,36.31999999999999L30.800000000000004,34.64L33,34.84L35.2,36.199999999999996L37.400000000000006,39.2L39.6,41L41.8,36.8L44,32.56L46.199999999999996,34.28L48.4,38.04L50.6,35.36L52.8,33.64L55,34.519999999999996L57.2,34.28L59.400000000000006,40.36L61.60000000000001,37.839999999999996L63.8,37.68L66,35.88L68.2,37.12L70.4,37.35999999999999L72.60000000000001,37.6L74.80000000000001,30.14L77,28.180000000000007L79.2,24.819999999999997L81.4,25.419999999999998L83.6,16.26000000000001L85.8,15.200000000000003L88,14.42L90.19999999999999,12.419999999999998L92.39999999999999,10.499999999999998L94.6,9.040000000000003L96.8,9.079999999999998L99,9.040000000000003L101.2,9.060000000000002L103.39999999999999,9.060000000000002L105.6,9.040000000000003L107.8,9.040000000000003L110,9.060000000000002L112.2,9.060000000000002L114.4,9.040000000000003L116.60000000000001,9.040000000000003L118.80000000000001,9.040000000000003L121.00000000000001,9.040000000000003L123.20000000000002,9.040000000000003L125.39999999999999,9.040000000000003L127.6,9.060000000000002L129.79999999999998,9.040000000000003L132,9.040000000000003L134.2,9.040000000000003L136.4,9.040000000000003L138.6,11.180000000000001L140.8,11.759999999999993L143,9.599999999999998L145.20000000000002,11.060000000000002L147.4,9.960000000000003L149.60000000000002,9.919999999999995L151.79999999999998,11.959999999999994L154,12.860000000000005L156.2,12.480000000000002L158.4,9.799999999999997L160.6,11.040000000000006L162.8,11.660000000000004L165,10.18L167.2,10.88L169.4,11.519999999999996L171.6,11.299999999999999L173.8,11.2L176,10.7L178.20000000000002,16.559999999999995L180.39999999999998,19.340000000000003L182.6,19.16L184.79999999999998,17.720000000000002L187,18.759999999999998L189.2,18.700000000000006L191.4,19.100000000000005L193.6,17.56L195.8,50L198,50L200.20000000000002,50L202.4,50L204.60000000000002,50L206.79999999999998,50L209,50L211.2,50L213.4,50L215.6,50L217.8,50" stroke="#4c78a8" stroke-width="2"></path></g></g><path class="foreground" aria-hidden="true" d="" display="none"></path></g></g><g class="mark-group role-title"><g transform="translate(110,-20)"><path class="background" aria-hidden="true" d="M0,0h0v0h0Z" pointer-events="none"></path><g><g class="mark-text role-title-text" role="graphics-symbol" aria-roledescription="title" aria-label="Title text '20'" pointer-events="none"><text text-anchor="middle" transform="translate(0,8)" font-family="sans-serif" font-size="10px" fill="#000" opacity="1">20</text></g></g><path class="foreground" aria-hidden="true" d="" pointer-events="none" display="none"></path></g></g></g><path class="foreground" aria-hidden="true" d="" display="none"></path></g></g><g class="mark-group role-legend" role="graphics-symbol" aria-roledescription="legend" aria-label="Symbol legend titled 'Update Rule' for stroke color with 4 values: Bayes, Good, Popper, Schupbach"><g transform="translate(483,0)"><path class="background" aria-hidden="true" d="M0,0h69v66h-69Z" pointer-events="none"></path><g><g class="mark-group role-legend-entry"><g transform="translate(0,16)"><path class="background" aria-hidden="true" d="M0,0h0v0h0Z" pointer-events="none"></path><g><g class="mark-group role-scope" role="graphics-object" aria-roledescription="group mark container"><g transform="translate(0,0)"><path class="background" aria-hidden="true" d="M0,0h69v11h-69Z" pointer-events="none" opacity="1"></path><g><g class="mark-symbol role-legend-symbol" pointer-events="none"><path transform="translate(6,6)" d="M-5,0L5,0" stroke="#4c78a8" stroke-width="1.5" opacity="1"></path></g><g class="mark-text role-legend-label" pointer-events="none"><text text-anchor="start" transform="translate(16,9)" font-family="sans-serif" font-size="10px" fill="#000" opacity="1">Bayes</text></g></g><path class="foreground" aria-hidden="true" d="" pointer-events="none" display="none"></path></g><g transform="translate(0,13)"><path class="background" aria-hidden="true" d="M0,0h69v11h-69Z" pointer-events="none" opacity="1"></path><g><g class="mark-symbol role-legend-symbol" pointer-events="none"><path transform="translate(6,6)" d="M-5,0L5,0" stroke="#f58518" stroke-width="1.5" opacity="1"></path></g><g class="mark-text role-legend-label" pointer-events="none"><text text-anchor="start" transform="translate(16,9)" font-family="sans-serif" font-size="10px" fill="#000" opacity="1">Good</text></g></g><path class="foreground" aria-hidden="true" d="" pointer-events="none" display="none"></path></g><g transform="translate(0,26)"><path class="background" aria-hidden="true" d="M0,0h69v11h-69Z" pointer-events="none" opacity="1"></path><g><g class="mark-symbol role-legend-symbol" pointer-events="none"><path transform="translate(6,6)" d="M-5,0L5,0" stroke="#e45756" stroke-width="1.5" opacity="1"></path></g><g class="mark-text role-legend-label" pointer-events="none"><text text-anchor="start" transform="translate(16,9)" font-family="sans-serif" font-size="10px" fill="#000" opacity="1">Popper</text></g></g><path class="foreground" aria-hidden="true" d="" pointer-events="none" display="none"></path></g><g transform="translate(0,39)"><path class="background" aria-hidden="true" d="M0,0h69v11h-69Z" pointer-events="none" opacity="1"></path><g><g class="mark-symbol role-legend-symbol" pointer-events="none"><path transform="translate(6,6)" d="M-5,0L5,0" stroke="#72b7b2" stroke-width="1.5" opacity="1"></path></g><g class="mark-text role-legend-label" pointer-events="none"><text text-anchor="start" transform="translate(16,9)" font-family="sans-serif" font-size="10px" fill="#000" opacity="1">Schupbach</text></g></g><path class="foreground" aria-hidden="true" d="" pointer-events="none" display="none"></path></g></g></g><path class="foreground" aria-hidden="true" d="" pointer-events="none" display="none"></path></g></g><g class="mark-text role-legend-title" pointer-events="none"><text text-anchor="start" transform="translate(0,9)" font-family="sans-serif" font-size="11px" font-weight="bold" fill="#000" opacity="1">Update Rule</text></g></g><path class="foreground" aria-hidden="true" d="" pointer-events="none" display="none"></path></g></g><g class="mark-group role-title"><g transform="translate(-43.00000000000001,-59)"><path class="background" aria-hidden="true" d="M0,0h0v0h0Z" pointer-events="none"></path><g><g class="mark-text role-title-text" role="graphics-symbol" aria-roledescription="title" aria-label="Title text 'Average Reward vs. Belief Threshold by Update Rule '" pointer-events="none"><text text-anchor="start" transform="translate(0,10)" font-family="sans-serif" font-size="13px" font-weight="bold" fill="#000" opacity="1">Average Reward vs. Belief Threshold by Update Rule</text></g></g><path class="foreground" aria-hidden="true" d="" pointer-events="none" display="none"></path></g></g></g><path class="foreground" aria-hidden="true" d="" display="none"></path></g></g></g></svg>
